<svg width="120" height="120" viewBox="0 0 120 120" fill="none" xmlns="http://www.w3.org/2000/svg">
<path d="M101 32.1162V93.6162C101 93.6162 101 102.727 91.8889 102.727H28.1111C19 102.727 19 93.6162 19 93.6162V82.2273C19 82.2273 75.9444 77.6718 101 32.1162Z" fill="#4289C1"/>
<path d="M91.5339 73.6708C91.5339 73.6708 97.3765 69.9467 96.6772 68.4593C95.9733 66.9696 69.8495 70.7143 56.7523 75.1878C37.1019 81.9004 26.8132 92.3213 28.2208 95.296C29.6262 98.2708 45.5365 99.7445 65.1846 93.0342C78.2864 88.5606 100.19 75.8962 99.4879 74.4088C98.7841 72.9214 91.5339 73.6708 91.5339 73.6708V73.6708Z" fill="#1C6399"/>
<path d="M90.6911 72.5403C90.6911 72.5403 96.7272 68.8525 96.0416 67.3219C95.3514 65.7889 68.6126 69.1031 55.1577 73.4149C34.9675 79.8861 24.2642 90.3252 25.6423 93.3888C27.0204 96.4524 43.2336 98.2655 63.4192 91.7966C76.8809 87.4848 99.4833 74.9798 98.7977 73.4491C98.1075 71.9162 90.6911 72.5403 90.6911 72.5403V72.5403Z" fill="#A6D388"/>
<path d="M90.6909 72.5401C90.6909 72.5401 96.4013 69.0459 96.0619 67.4492L27.5555 89.0107C25.9109 90.9172 25.2344 92.4797 25.6421 93.3886C25.9975 94.1812 27.3619 94.8851 29.5144 95.3884L98.7474 73.5992C98.7543 73.5537 98.8135 73.4831 98.7975 73.4489C98.1074 71.9159 90.6909 72.5401 90.6909 72.5401V72.5401Z" fill="#F5F8FA"/>
<path d="M52.9818 23.7088C49.6562 22.2693 44.5381 23.8478 43.6065 27.7223C42.3036 33.1297 45.2601 37.8447 48.7064 37.5873C52.319 37.3185 54.5557 36.5942 56.1388 32.9361C57.7218 29.2803 56.3073 25.1484 52.9818 23.7088V23.7088Z" fill="#FFDC5D"/>
<path d="M55.1503 33.8592C60.2457 28.2627 48.4149 28.4312 48.4149 28.4312C46.1758 28.438 47.5903 32.2146 46.4719 34.2122C45.7043 35.5948 48.7156 36.4422 48.7156 36.4422C48.7156 36.4422 50.1096 36.4672 50.1278 38.1619V38.1778C50.1301 38.6083 50.0686 39.1185 49.8453 39.795C48.7315 43.1479 53.2096 45.3733 54.3212 42.0159C54.7608 40.6857 54.6469 39.5012 54.4829 38.4033L54.4669 38.3054C54.2187 36.6768 53.8907 35.244 55.1503 33.8592V33.8592Z" fill="#FFDC5D"/>
<path d="M57.1827 25.0192C55.5951 22.7141 50.0829 20.5433 46.4475 23.2721C44.0103 22.7664 42.9921 25.0647 43.1561 26.4132C43.286 27.4906 45.91 27.855 46.5022 29.9096C46.9783 29.4153 47.1331 28.3743 47.0534 27.8117C47.8643 28.6454 47.4293 30.7546 50.6796 32.2511C53.823 33.6952 53.1647 36.4923 53.1647 36.4923C53.1647 36.4923 54.8708 35.7543 56.0825 34.4423C58.4036 31.9345 58.932 27.5589 57.1827 25.0192V25.0192Z" fill="#FFAC33"/>
<path d="M56.0387 85.4898C55.1777 85.262 53.8269 84.1686 53.4101 83.4124C51.9045 80.6859 53.7996 75.4949 53.8429 72.5315C53.8543 71.6887 48.8022 68.0351 47.3284 70.2173C45.8547 72.3994 49.5857 80.9661 49.178 84.3235C49.0869 85.0661 48.6609 86.1776 48.891 86.6355C49.1211 87.0933 50.7519 88.321 51.8544 88.5465C54.672 89.1274 57.5283 87.7675 57.8768 87.3689C58.3825 86.7904 56.9019 85.7175 56.0387 85.4898V85.4898ZM73.1448 78.1508C72.384 78.0027 71.2087 77.0825 70.8306 76.4356C70.17 75.3013 71.1882 68.1399 71.1198 65.1697C70.3226 64.6367 65.6691 67.2789 65.6691 67.2789C64.6737 71.4131 67.5301 73.8002 67.1702 76.9868C67.0973 77.6337 66.7829 79.1826 67.0084 79.5653C67.2339 79.9502 68.7213 80.9183 69.6917 81.0504C72.1699 81.3875 74.5684 80.0413 74.8486 79.6746C75.254 79.1416 73.9056 78.2988 73.1448 78.1508V78.1508ZM82.2194 48.592C80.8778 48.0568 79.149 47.9634 77.427 47.7128C74.6982 47.3142 70.9308 45.9703 69.3887 45.2391C67.5096 44.1116 63.5189 41.4558 62.5281 40.802C61.5372 40.1483 60.2116 39.2418 58.5761 38.9502H58.2208C59.0977 40.1848 59.6079 41.5901 59.9246 45.4214C59.9246 45.4214 67.4845 49.2048 68.1132 49.4143C70.6757 50.2685 75.3611 50.248 78.0078 50.5805C79.3791 50.7536 80.3334 50.5486 81.4222 50.4735C83.0668 50.3619 84.5656 50.3482 84.6612 49.6284C84.7751 48.7925 83.3059 49.0248 82.2194 48.592V48.592ZM44.053 39.8659C40.2582 42.1277 36.3814 46.8108 34.9874 48.7811C34.1674 49.4257 33.4249 50.1796 32.9443 50.4575C32.0582 50.9655 28.0379 53.7193 25.3502 55.0245C24.5438 55.4026 22.0292 56.0221 20.8128 56.8034C19.8288 57.4366 18.8881 57.4002 19.1569 58.1974C19.3892 58.8853 20.314 58.6894 21.9517 58.4981C23.5894 58.3068 26.3456 57.8398 27.2476 57.2089C29.0698 55.9994 34.8713 54.5758 37.7185 52.5827C38.2219 52.2296 43.151 47.6559 44.053 46.3393C45.2898 42.8885 44.6953 40.5173 44.053 39.8659V39.8659Z" fill="#FFDC5D"/>
<path d="M71.4848 64.9556C70.9632 62.7211 68.0681 60.293 65.3872 58.2407C62.7063 56.1884 59.9775 54.9653 59.9775 54.9653C60.0549 53.856 59.5857 52.0155 59.7748 50.3733C60.0003 48.4303 60.367 46.5261 60.367 46.5261C60.367 46.5261 64.0866 48.182 68.116 49.412C68.8039 48.5852 69.5236 46.2345 69.3893 45.2369C67.3324 43.3213 63.7335 41.2416 62.7404 40.5856C61.7473 39.9296 60.8339 39.1347 58.5767 38.9502H54.8434C54.8434 38.9502 54.6179 40.9 53.1373 41.0412C51.6568 41.1824 49.8869 38.9502 49.8869 38.9502L45.9054 39.3306C40.8988 40.1005 36.7943 46.2186 34.9857 48.7856C34.1657 49.4302 34.1657 49.4303 33.7876 49.8038C35.8991 51.175 38.6347 52.1613 38.6347 52.1613C41.3407 49.8289 43.3679 48.6649 44.2699 47.3484C44.2699 47.3484 45.771 50.437 46.3473 52.7877C46.9235 55.1384 46.8074 59.4502 46.8074 59.4502C46.8074 59.4502 46.796 63.2632 46.9395 63.8691C47.1399 64.7164 47.7435 67.1696 47.7435 68.1604C47.7435 68.1604 46.3632 71.2013 47.0557 73.8184C47.9736 77.3011 49.0715 81.7177 49.1672 82.9477C52.3834 82.9477 52.9642 82.13 52.9642 82.13C52.9642 82.13 53.0098 80.219 53.2694 78.0801C53.4266 76.7773 53.8822 74.5632 53.8822 72.6294C53.8822 70.6956 54.3764 69.3859 54.6634 68.5841C54.9504 67.7823 56.0324 65.2768 56.2055 63.9101C56.251 63.5411 56.2237 63.0582 56.1554 62.5434C57.3717 63.2085 59.5561 64.3474 60.9023 64.7164C62.8361 65.2449 64.3053 66.0717 64.8155 66.5159C65.3257 66.96 65.6719 67.2789 65.6719 67.2789C65.6719 67.2789 65.2141 68.5476 65.3508 70.732C65.476 72.7296 66.9293 74.5086 67.173 76.8889C69.207 76.5859 70.658 75.7522 70.658 75.7522C70.658 75.7522 70.8379 72.7091 70.8812 71.388C70.9336 69.7799 71.8196 66.3929 71.4848 64.9556V64.9556Z" fill="#292F33"/>
<path d="M35.382 50.7218C37.1929 48.157 42.368 40.8385 47.928 40.3579C47.928 40.3579 50.4746 43.6811 53.7705 43.1709C57.0665 42.6607 57.1462 40.1688 57.1462 40.1688L61.0799 40.5082C62.2052 40.5993 62.9955 40.8453 63.631 41.1483C63.2598 40.9182 62.9386 40.7178 62.7404 40.5879C61.7496 39.9342 60.8339 39.1347 58.5767 38.9502H54.8434C54.8434 38.9502 54.1395 40.5424 53.1328 40.695C52.126 40.8476 49.8869 38.9502 49.8869 38.9502L45.9054 39.3306C39.8055 40.2895 35.505 48.3073 33.7876 49.8038C34.029 50.0407 34.8263 50.4484 35.382 50.7218V50.7218Z" fill="#67757F"/>
<path d="M50.3471 82.9041C49.4315 79.8064 47.4247 72.661 49.3221 69.1099C49.493 68.2717 48.7982 66.019 48.5978 65.1716C48.4543 64.5657 48.3632 59.6184 48.4338 58.9829C57.2237 58.7027 59.9776 54.9672 59.9776 54.9672C59.9776 54.9672 55.1054 57.68 47.7824 56.2655C48.1787 52.35 45.1994 46.3868 45.1994 46.3868C44.7142 46.3299 44.5957 46.7695 44.27 47.3526C44.27 47.3526 46.033 51.6006 46.3474 53.5436C46.6594 55.4842 46.8075 59.4499 46.8075 59.4499C46.8075 59.4499 46.7961 63.2629 46.9396 63.8687C47.14 64.7161 47.7436 67.1692 47.7436 68.1601C45.5752 72.2214 47.5181 74.9479 49.1672 82.9474C49.5522 82.9656 49.9326 82.9656 50.3471 82.9041V82.9041ZM67.0205 72.5129C66.8838 70.3308 67.0751 68.7796 66.8565 68.315C66.6378 67.8503 65.672 67.2786 65.672 67.2786C65.672 67.2786 65.2142 68.5473 65.3509 70.7317C65.4761 72.7293 66.9225 74.6814 67.1731 76.8885C67.8769 76.7837 68.0979 76.7222 68.7812 76.5218C67.3849 75.9273 67.107 73.8932 67.0205 72.5129V72.5129Z" fill="#67757F"/>
</svg>
