<svg width="120" height="120" viewBox="0 0 120 120" fill="none" xmlns="http://www.w3.org/2000/svg">
<path d="M98.3142 65.2283C101.707 65.2283 104.457 61.378 104.457 56.6283C104.457 51.8787 101.707 48.0283 98.3142 48.0283C94.9216 48.0283 92.1714 51.8787 92.1714 56.6283C92.1714 61.378 94.9216 65.2283 98.3142 65.2283Z" fill="#F4900C"/>
<path d="M22.1429 65.2283C25.5355 65.2283 28.2857 61.378 28.2857 56.6283C28.2857 51.8787 25.5355 48.0283 22.1429 48.0283C18.7503 48.0283 16 51.8787 16 56.6283C16 61.378 18.7503 65.2283 22.1429 65.2283Z" fill="#F4900C"/>
<path d="M99.5426 67.6857C99.5426 69.0445 98.4443 70.1428 97.0855 70.1428H89.7141C88.3553 70.1428 87.2569 69.0445 87.2569 67.6857V45.5714C87.2569 44.2151 88.3553 43.1143 89.7141 43.1143H97.0855C98.4443 43.1143 99.5426 44.2151 99.5426 45.5714V67.6857ZM33.1998 67.6857C33.1998 69.0445 32.099 70.1428 30.7426 70.1428H23.3712C22.0149 70.1428 20.9141 69.0445 20.9141 67.6857V45.5714C20.9141 44.2151 22.0149 43.1143 23.3712 43.1143H30.7426C32.099 43.1143 33.1998 44.2151 33.1998 45.5714V67.6857Z" fill="#FFAC33"/>
<path d="M84.8001 33.2857C84.8001 40.0699 73.797 43.1143 60.2287 43.1143C46.6579 43.1143 35.6572 40.0699 35.6572 33.2857C35.6572 26.5015 46.6579 21 60.2287 21C73.797 21 84.8001 26.5015 84.8001 33.2857Z" fill="#FFCC4D"/>
<path d="M77.4288 31.0327C77.4288 34.9912 69.7257 38.2002 60.2288 38.2002C50.7295 38.2002 43.0288 34.9912 43.0288 31.0327C43.0288 27.0743 50.7295 23.8652 60.2288 23.8652C69.7257 23.8652 77.4288 27.0743 77.4288 31.0327Z" fill="#F4900C"/>
<path d="M89.7141 34.514C89.7141 37.9073 86.9646 38.1997 83.5712 38.1997H36.8855C33.4922 38.1997 30.7427 37.9073 30.7427 34.514C30.7427 31.1206 33.4922 28.3711 36.8855 28.3711H83.5712C86.9646 28.3711 89.7141 31.1206 89.7141 34.514Z" fill="#226699"/>
<path d="M89.7143 35.7432H30.7429C28.0302 35.7432 25.8286 37.9448 25.8286 40.6575V104.543H94.6286V40.6575C94.6286 37.9448 92.427 35.7432 89.7143 35.7432Z" fill="#55ACEE"/>
<path d="M102 102.085V99.6282C102 96.9155 99.7989 94.7139 97.0862 94.7139H70.2321L61.9662 102.98C61.0055 103.94 59.4526 103.94 58.4918 102.98L50.226 94.7139H23.3719C20.6592 94.7139 18.4576 96.9155 18.4576 99.6282V102.085C18.4576 104.798 18.2021 107 20.9147 107H99.5433C102.256 107 102 104.798 102 102.085Z" fill="#3B88C3"/>
<path d="M76.2002 67.6856C82.3069 67.6856 87.2574 62.7351 87.2574 56.6284C87.2574 50.5217 82.3069 45.5713 76.2002 45.5713C70.0935 45.5713 65.1431 50.5217 65.1431 56.6284C65.1431 62.7351 70.0935 67.6856 76.2002 67.6856Z" fill="white"/>
<path d="M76.1996 63.3151C79.8921 63.3151 82.8854 60.3218 82.8854 56.6292C82.8854 52.9367 79.8921 49.9434 76.1996 49.9434C72.507 49.9434 69.5137 52.9367 69.5137 56.6292C69.5137 60.3218 72.507 63.3151 76.1996 63.3151Z" fill="#DD2E44"/>
<path d="M44.2573 67.6856C50.364 67.6856 55.3145 62.7351 55.3145 56.6284C55.3145 50.5217 50.364 45.5713 44.2573 45.5713C38.1506 45.5713 33.2002 50.5217 33.2002 56.6284C33.2002 62.7351 38.1506 67.6856 44.2573 67.6856Z" fill="white"/>
<path d="M87.2573 83.6575C87.2573 87.0508 84.5078 89.8004 81.1145 89.8004H39.3431C35.9497 89.8004 33.2002 87.0508 33.2002 83.6575C33.2002 80.2642 35.9497 77.5146 39.3431 77.5146H81.1145C84.5078 77.5146 87.2573 80.2642 87.2573 83.6575Z" fill="#F5F8FA"/>
<path d="M57.7716 77.5146H62.6859V89.8004H57.7716V77.5146ZM45.4859 77.5146H50.4002V89.8004H45.4859V77.5146ZM70.0573 77.5146H74.9716V89.8004H70.0573V77.5146ZM33.2002 83.6575C33.2002 86.6306 35.3109 89.1075 38.1145 89.6775V77.6375C35.3109 78.2076 33.2002 80.6844 33.2002 83.6575ZM82.3431 77.6375V89.675C85.1467 89.105 87.2573 86.6282 87.2573 83.655C87.2573 80.6819 85.1467 78.2076 82.3431 77.6375Z" fill="#CCD6DD"/>
<path d="M44.2567 63.3151C47.9492 63.3151 50.9426 60.3218 50.9426 56.6292C50.9426 52.9367 47.9492 49.9434 44.2567 49.9434C40.5642 49.9434 37.5708 52.9367 37.5708 56.6292C37.5708 60.3218 40.5642 63.3151 44.2567 63.3151Z" fill="#DD2E44"/>
</svg>
