<svg width="32" height="32" viewBox="0 0 32 32" fill="none" xmlns="http://www.w3.org/2000/svg">
<circle cx="16" cy="16" r="16" fill="#CED4DA"/>
<path d="M14.1593 15.3779C14.1593 15.3779 15.9459 15.2285 15.9459 13.1371C15.9459 11.0457 14.5067 10 12.6705 10H6.56641V21.7517H12.6705C12.6705 21.7517 16.3925 21.8513 16.3925 18.266C16.3429 18.266 16.5414 15.3779 14.1593 15.3779ZM9.24626 12.0914H12.6705C12.6705 12.0914 13.5142 12.0914 13.5142 13.3363C13.5142 14.5812 13.0179 14.7306 12.472 14.7306H9.24626V12.0914ZM12.472 19.6603H9.24626V16.5232H12.6705C12.6705 16.5232 13.9112 16.5232 13.9112 18.1166C13.8616 19.4611 12.9683 19.6105 12.472 19.6603Z" fill="white"/>
<path d="M23.638 10.6973H18.8242V12.1413H23.638V10.6973Z" fill="white"/>
<path d="M21.3048 12.9883C16.7888 12.9883 16.7888 17.5197 16.7888 17.5197C16.7888 17.5197 16.491 22.0012 21.3048 22.0012C21.3048 22.0012 25.3246 22.2502 25.3246 18.8641H23.2403C23.2403 18.8641 23.2899 20.109 21.3544 20.109C21.3544 20.109 19.2701 20.2584 19.2701 18.0674H25.3246C25.3742 18.0674 26.069 12.9883 21.3048 12.9883ZM19.3197 16.5238C19.3197 16.5238 19.5679 14.7311 21.3544 14.7311C23.141 14.7311 23.141 16.5238 23.141 16.5238H19.3197Z" fill="white"/>
</svg>
