<svg width="150" height="102" viewBox="0 0 150 102" fill="none" xmlns="http://www.w3.org/2000/svg">
<path d="M65.5742 47.9237C66.0515 39.2063 66.5579 30.5655 69.3459 22.2166C70.3826 19.1122 72.7763 12.3249 76.5084 11.1884C77.3826 10.9221 78.8853 18.3567 79.1371 19.3264C80.0689 22.9136 79.9753 26.5649 79.9753 30.2406C79.9753 30.6454 79.5266 36.8195 80.3563 36.8195C84.4428 36.8195 88.5084 35.8428 92.662 36.0209C96.0748 36.1672 96.4339 36.9122 96.8147 33.3018C97.4359 27.4109 97.9173 20.0442 100.834 14.763C101.226 14.054 106.285 7.6747 106.72 9.24893C108.777 16.6915 110.846 23.8924 111.94 31.5716C113.175 40.2481 114.713 48.591 114.949 57.3167C115.028 60.2205 115.635 63.1294 115.635 66.0632C115.635 66.7207 115.607 67.3842 115.635 68.0407C115.697 69.4505 116.732 65.4372 117.197 64.1048C118.69 59.8321 120.956 56.2753 123.731 52.6963C127.653 47.6371 131.73 42.5805 136.665 38.4547C138.334 37.0594 141.573 34.0238 144.094 34.2335C146.144 34.404 145.477 41.9168 145.447 42.9991C145.193 52.1132 142.724 60.7244 139.466 69.1625C137.133 75.2036 135.754 81.711 132.589 87.3971C131.556 89.2534 130.725 91.2813 129.846 93.1964C129.053 94.9237 128.739 96.9006 128.169 98.7105" stroke="white" stroke-width="3" stroke-linecap="round"/>
<path d="M65.3259 52.5C65.3259 57.7249 65.5742 61.1561 65.5742 66.3645C65.5742 66.5875 65.5637 69.1898 65.3259 68.9881C64.3325 68.1456 63.8657 66.3257 63.167 65.2538C61.3734 62.5021 59.1261 60.0675 57.1871 57.4214C53.8251 52.8333 51.162 47.7865 47.3862 43.4992C45.746 41.6368 44.6476 40.2284 42.3425 41.4692C40.5478 42.4353 37.8898 43.6058 37.0313 45.644C36.2726 47.4451 36.6874 49.8544 36.6874 51.7338C36.6874 60.9553 36.9272 70.4867 38.4068 79.5973C39.2102 84.5442 40.5989 88.6359 43.9091 92.428C44.8207 93.4723 45.3733 94.7031 46.1253 95.8558C46.903 97.0481 48.0951 98.3013 48.6471 99.6093" stroke="white" stroke-width="3" stroke-linecap="round"/>
<path d="M75.5742 47.1774C78.166 46.8619 80.7355 46.9938 83.3192 47.3639C84.1475 47.4825 84.966 47.642 85.7686 47.89C85.9722 47.9529 86.8907 48.0818 86.4612 48.416C84.5079 49.9361 82.4269 51.2373 80.5171 52.8312C79.8263 53.4078 79.0892 53.9928 78.4833 54.6758C78.0707 55.141 78.3427 54.9688 78.6344 54.9688" stroke="white" stroke-width="3" stroke-linecap="round"/>
<path d="M107.574 42C104.477 43.368 101.271 44.6025 98.2491 46.1298C98.037 46.237 95.4041 47.5284 95.5829 48.1111C95.7117 48.5308 97.1663 49.0085 97.4404 49.1532C98.7312 49.8349 100.002 50.5539 101.218 51.3661C101.918 51.833 102.587 52.3467 103.291 52.807C103.418 52.8906 103.424 52.8846 103.48 53" stroke="white" stroke-width="3" stroke-linecap="round"/>
<path d="M88.3562 53C91.2815 53.0141 94.0923 53.2001 96.9202 53.9592C97.6676 54.1598 97.6122 54.709 97.5254 55.3669C97.1029 58.5677 95.2715 63.5685 91.0069 62.9472C87.5286 62.4404 86.8978 59.0415 86.6065 56.3137C86.5407 55.6971 86.5775 55.1092 86.6986 54.5073C86.7721 54.1421 86.8065 53.3463 87.0538 53.1121" stroke="white" stroke-width="3" stroke-linecap="round"/>
<path d="M8.9287 27.0762C8.33989 29.3006 8.28809 31.5522 7.98326 33.8215C7.6314 36.4409 7.20903 39.0875 6.71964 41.6851C6.28863 43.9727 6.06765 46.3242 5.57419 48.5941C5.34075 49.668 5.04165 50.9002 5.00147 51.985C4.93894 53.6735 6.87951 53.656 8.18325 53.7849C14.7261 54.432 21.3137 53.7629 27.8194 54.8122C28.1216 54.8609 29.0554 55.0802 29.3103 54.8486C30.1726 54.0646 30.2238 52.1621 30.3648 51.1122C30.7936 47.9201 31.8031 44.6885 31.8375 41.4578C31.862 39.154 31.6739 36.8713 31.6739 34.5761C31.6739 32.9397 31.8375 31.3342 31.8375 29.6943C31.8375 29.5526 31.9167 29.0297 31.7557 28.9671C31.1485 28.7309 30.2439 28.8305 29.6103 28.7852C27.4487 28.6308 25.2881 28.4734 23.1285 28.2943C20.9243 28.1116 18.683 28.2216 16.4741 28.2216C15.8479 28.2216 15.2695 28.1235 14.6468 28.058C14.1026 28.0007 13.2019 28.0725 12.6923 27.858C11.6358 27.4132 10.2132 27.7237 9.09233 27.4034" stroke="white" stroke-width="3" stroke-linecap="round"/>
<path d="M32.6562 34.9297C35.3815 35.3526 37.2898 36.6323 38.6198 39.1024C39.167 40.1186 39.3653 41.646 39.3653 42.7841" stroke="white" stroke-width="3" stroke-linecap="round"/>
<path d="M31.5117 51.6214C32.6693 51.7784 33.4336 51.7854 34.4571 51.3305C34.6675 51.237 35.5225 50.8868 35.6026 50.9669" stroke="white" stroke-width="3" stroke-linecap="round"/>
<path d="M18.7471 9.23828C17.6089 11.4476 16.1058 13.6899 17.0289 16.2746C17.3497 17.1727 17.8947 18.2258 17.9289 19.1836C17.9518 19.8239 17.7653 20.3964 17.7653 21.02" stroke="white" stroke-width="3" stroke-linecap="round"/>
<path d="M35.1106 9.40234C33.4351 11.0508 31.4015 12.7722 31.347 15.3295C31.3287 16.1937 31.2895 16.9655 31.147 17.8204C30.9959 18.7274 30.5823 19.4975 30.3652 20.3658" stroke="white" stroke-width="3" stroke-linecap="round"/>
<path d="M8.4375 38.6934C13.766 38.6934 19.0795 39.0206 24.4009 39.0206C25.4676 39.0206 26.5342 39.0206 27.6009 39.0206C28.195 39.0206 29.5206 38.8312 29.8736 39.1843" stroke="white" stroke-width="3" stroke-linecap="round"/>
<path d="M7.94727 45.5664C11.526 45.5664 15.104 45.73 18.6744 45.73C20.7762 45.73 22.8654 45.5664 24.9652 45.5664C26.6561 45.5664 28.347 45.5664 30.0379 45.5664" stroke="white" stroke-width="3" stroke-linecap="round"/>
</svg>
