<svg width="120" height="120" viewBox="0 0 120 120" fill="none" xmlns="http://www.w3.org/2000/svg">
<path d="M59.85 117.7C58.5825 117.7 57.4287 116.992 56.8568 115.864L51.0068 104.313L41.1787 112.75C40.558 113.273 39.7812 113.553 38.9948 113.553C38.5625 113.553 38.127 113.472 37.7143 113.299C36.5475 112.818 35.7448 111.717 35.6538 110.462L34.6658 97.5402L22.3547 101.573C22.0135 101.684 21.6625 101.739 21.3115 101.739C20.434 101.739 19.5825 101.395 18.939 100.755C18.0485 99.8672 17.7333 98.5412 18.1265 97.3387L22.1565 85.0277L9.2475 84.0495C7.98975 83.9487 6.888 83.1557 6.40375 81.989C5.92275 80.8158 6.134 79.48 6.95625 78.5212L15.3868 68.6933L3.83625 62.8432C2.7085 62.2712 2 61.111 2 59.85C2 58.589 2.7085 57.4287 3.83625 56.8568L15.3868 51.0068L6.95625 41.1787C6.13725 40.22 5.92275 38.8778 6.40375 37.7143C6.888 36.5475 7.9865 35.7448 9.2475 35.6538L22.1565 34.6658L18.1265 22.3547C17.7333 21.1523 18.0485 19.836 18.939 18.939C19.5825 18.302 20.434 17.9608 21.3115 17.9608C21.6625 17.9608 22.0135 18.016 22.3547 18.1265L34.6658 22.1565L35.6538 9.2475C35.748 7.9865 36.5475 6.888 37.7143 6.40375C38.127 6.23475 38.5625 6.15025 38.9948 6.15025C39.7812 6.15025 40.558 6.42325 41.1787 6.95625L51.0068 15.3868L56.8568 3.83625C57.4287 2.7085 58.5825 2 59.85 2C61.111 2 62.2712 2.7085 62.84 3.83625L68.6965 15.3868L78.5245 6.95625C79.142 6.42325 79.9252 6.15025 80.7052 6.15025C81.144 6.15025 81.5762 6.23475 81.9922 6.40375C83.1557 6.888 83.952 7.9865 84.0527 9.2475L85.0375 22.1565L97.3387 18.1265C97.68 18.0128 98.0375 17.9608 98.382 17.9608C99.2595 17.9608 100.117 18.302 100.751 18.939C101.648 19.836 101.964 21.1555 101.57 22.3547L97.537 34.6658L110.459 35.6538C111.713 35.748 112.815 36.5475 113.296 37.7143C113.777 38.8778 113.569 40.22 112.747 41.1787L104.31 51.0068L115.861 56.8568C116.992 57.432 117.7 58.589 117.7 59.85C117.7 61.111 116.992 62.268 115.864 62.8432L104.313 68.6933L112.75 78.5212C113.573 79.48 113.78 80.8158 113.299 81.989C112.818 83.1525 111.717 83.9487 110.452 84.0495L97.5402 85.0277L101.573 97.3387C101.967 98.5445 101.651 99.864 100.755 100.755C100.121 101.395 99.2595 101.739 98.3852 101.739C98.0407 101.739 97.6832 101.684 97.342 101.573L85.0407 97.5402L84.056 110.452C83.9552 111.717 83.1622 112.818 81.9955 113.299C81.5762 113.472 81.144 113.553 80.7085 113.553C79.9285 113.553 79.1485 113.273 78.5277 112.75L68.6997 104.313L62.8432 115.864C62.2712 116.992 61.111 117.7 59.85 117.7Z" fill="#F4900C"/>
<path d="M102.1 59.8496C102.1 83.1814 83.1814 102.1 59.8496 102.1C36.5179 102.1 17.5996 83.1846 17.5996 59.8496C17.5996 36.5146 36.5179 17.5996 59.8496 17.5996C83.1814 17.5996 102.1 36.5179 102.1 59.8496Z" fill="#FFCC4D"/>
<path d="M59.849 77.6304C39.6275 77.6304 33.849 70.0644 33.849 73.6394C33.849 77.2209 45.406 86.5744 59.849 86.5744C74.292 86.5744 85.849 77.2176 85.849 73.6394C85.849 70.0644 80.0737 77.6304 59.849 77.6304ZM85.849 49.0174C85.849 53.8046 81.9685 57.6851 77.1812 57.6851C72.3972 57.6851 68.5167 53.8046 68.5167 49.0174C68.5167 44.2301 72.3972 40.3496 77.1812 40.3496C81.9685 40.3496 85.849 44.2269 85.849 49.0174ZM51.1812 49.0174C51.1812 53.8046 47.2975 57.6851 42.5135 57.6851C37.7295 57.6851 33.8457 53.8046 33.8457 49.0174C33.8457 44.2301 37.7327 40.3496 42.5167 40.3496C47.3007 40.3496 51.1812 44.2269 51.1812 49.0174Z" fill="#F4900C"/>
</svg>
