<svg width="120" height="120" viewBox="0 0 120 120" fill="none" xmlns="http://www.w3.org/2000/svg">
<path d="M117 60C117 91.4798 91.4798 117 60 117C28.5202 117 3 91.4798 3 60C3 28.5202 28.5202 3 60 3C91.4798 3 117 28.5202 117 60Z" fill="#FFD983"/>
<path d="M33.0843 37.8337C39.2055 37.8337 44.1676 32.8715 44.1676 26.7503C44.1676 20.6292 39.2055 15.667 33.0843 15.667C26.9632 15.667 22.001 20.6292 22.001 26.7503C22.001 32.8715 26.9632 37.8337 33.0843 37.8337Z" fill="#FFCC4D"/>
<path d="M80.5843 104.334C86.7055 104.334 91.6676 99.3715 91.6676 93.2503C91.6676 87.1292 86.7055 82.167 80.5843 82.167C74.4632 82.167 69.501 87.1292 69.501 93.2503C69.501 99.3715 74.4632 104.334 80.5843 104.334Z" fill="#FFCC4D"/>
<path d="M72.6673 25.1667C76.1651 25.1667 79.0007 22.3311 79.0007 18.8333C79.0007 15.3355 76.1651 12.5 72.6673 12.5C69.1695 12.5 66.334 15.3355 66.334 18.8333C66.334 22.3311 69.1695 25.1667 72.6673 25.1667Z" fill="#FFCC4D"/>
<path d="M12.5007 63.1663C14.2496 63.1663 15.6673 61.7486 15.6673 59.9997C15.6673 58.2508 14.2496 56.833 12.5007 56.833C10.7517 56.833 9.33398 58.2508 9.33398 59.9997C9.33398 61.7486 10.7517 63.1663 12.5007 63.1663Z" fill="#FFCC4D"/>
<path d="M98.0007 34.6663C99.7496 34.6663 101.167 33.2486 101.167 31.4997C101.167 29.7508 99.7496 28.333 98.0007 28.333C96.2517 28.333 94.834 29.7508 94.834 31.4997C94.834 33.2486 96.2517 34.6663 98.0007 34.6663Z" fill="#FFCC4D"/>
<path d="M53.6676 104.333C55.4165 104.333 56.8343 102.916 56.8343 101.167C56.8343 99.4178 55.4165 98 53.6676 98C51.9187 98 50.501 99.4178 50.501 101.167C50.501 102.916 51.9187 104.333 53.6676 104.333Z" fill="#FFCC4D"/>
<path d="M104.334 69.4997C107.832 69.4997 110.668 66.6641 110.668 63.1663C110.668 59.6685 107.832 56.833 104.334 56.833C100.837 56.833 98.001 59.6685 98.001 63.1663C98.001 66.6641 100.837 69.4997 104.334 69.4997Z" fill="#FFCC4D"/>
<path d="M22.0003 91.6667C25.4981 91.6667 28.3337 88.8311 28.3337 85.3333C28.3337 81.8355 25.4981 79 22.0003 79C18.5025 79 15.667 81.8355 15.667 85.3333C15.667 88.8311 18.5025 91.6667 22.0003 91.6667Z" fill="#FFCC4D"/>
<path d="M60 81.8627C37.8333 81.8627 31.5 73.5723 31.5 77.4895C31.5 81.413 44.1667 91.6667 60 91.6667C75.8333 91.6667 88.5 81.413 88.5 77.4895C88.5 73.5723 82.1667 81.8627 60 81.8627ZM88.5 50.5C88.5 55.7472 84.244 60 79 60C73.756 60 69.5 55.7472 69.5 50.5C69.5 45.2528 73.756 41 79 41C84.244 41 88.5 45.2528 88.5 50.5ZM50.5 50.5C50.5 55.7472 46.244 60 41 60C35.756 60 31.5 55.7472 31.5 50.5C31.5 45.2528 35.756 41 41 41C46.244 41 50.5 45.2528 50.5 50.5Z" fill="#292F33"/>
</svg>
