<svg width="32" height="32" viewBox="0 0 32 32" fill="#CED4DA" xmlns="http://www.w3.org/2000/svg">
<path fill-rule="evenodd" clip-rule="evenodd" d="M16.0767 8.48099e-06C12.2602 -0.00395365 8.56698 1.38047 5.659 3.90518C2.75101 6.4299 0.818306 9.92987 0.207233 13.7779C-0.403841 17.6259 0.346661 21.5704 2.32424 24.9046C4.30183 28.2387 7.37722 30.7446 10.9993 31.973C11.8077 32.1241 12.0937 31.6105 12.0937 31.1775C12.0937 30.7445 12.0937 29.7576 12.0937 28.388C7.6078 29.385 6.66134 26.1826 6.66134 26.1826C6.36374 25.1902 5.73151 24.3374 4.87685 23.7759C3.42758 22.7688 4.99516 22.7688 4.99516 22.7688C5.5032 22.8421 5.98824 23.0325 6.41356 23.3257C6.83888 23.6188 7.19333 24.0069 7.45006 24.4606C7.6682 24.8647 7.9623 25.2207 8.31548 25.5083C8.66867 25.796 9.07398 26.0095 9.50817 26.1368C9.94236 26.264 10.3969 26.3024 10.8456 26.2498C11.2944 26.1972 11.7286 26.0546 12.1232 25.8302C12.1851 25.0018 12.5348 24.2232 13.1091 23.6349C9.54017 23.222 5.79374 21.8122 5.79374 15.5787C5.76924 13.9503 6.35874 12.3747 7.4402 11.178C6.95854 9.76213 7.01484 8.21318 7.59794 6.83771C7.59794 6.83771 8.94863 6.39462 12.0148 8.51944C14.6477 7.78105 17.4268 7.78105 20.0597 8.51944C23.1259 6.39462 24.4667 6.83771 24.4667 6.83771C25.0579 8.19862 25.1283 9.73647 24.6639 11.1478C25.7454 12.3444 26.3349 13.9201 26.3104 15.5485C26.3104 21.8524 22.5541 23.2321 18.9752 23.6047C19.359 23.9987 19.6553 24.4724 19.8441 24.9936C20.033 25.5149 20.1098 26.0715 20.0696 26.6257C20.0696 28.8211 20.0696 30.5934 20.0696 31.1271C20.0696 31.6609 20.3555 32.0737 21.1738 31.9126C24.7547 30.6518 27.784 28.1388 29.7266 24.8176C31.6693 21.4964 32.4003 17.5808 31.7904 13.7625C31.1805 9.94418 29.2691 6.4689 26.3938 3.95059C23.5184 1.43229 19.8642 0.033028 16.0767 8.48099e-06V8.48099e-06Z" fill="#CED4DA"/>
</svg>
