<svg width="32" height="32" viewBox="0 0 32 32" fill="none" xmlns="http://www.w3.org/2000/svg">
<path fill-rule="evenodd" clip-rule="evenodd" d="M16.0007 8.4828e-06C12.1985 -0.0039545 8.51917 1.38077 5.62211 3.90602C2.72505 6.43127 0.799607 9.93199 0.190829 13.7808C-0.417949 17.6297 0.329733 21.575 2.29989 24.9099C4.27004 28.2448 7.33388 30.7511 10.9424 31.9799C11.7478 32.1309 12.0326 31.6173 12.0326 31.1841C12.0326 30.751 12.0326 29.7639 12.0326 28.3941C7.56359 29.3913 6.62068 26.1882 6.62068 26.1882C6.32421 25.1955 5.69435 24.3426 4.84291 23.7809C3.39908 22.7737 4.96077 22.7737 4.96077 22.7737C5.46689 22.847 5.95012 23.0375 6.37384 23.3306C6.79756 23.6238 7.15068 24.012 7.40644 24.4659C7.62376 24.87 7.91676 25.2261 8.26862 25.5138C8.62047 25.8015 9.02427 26.0151 9.45682 26.1424C9.88938 26.2696 10.3422 26.3081 10.7893 26.2554C11.2363 26.2028 11.6689 26.0602 12.0621 25.8357C12.1237 25.0071 12.472 24.2283 13.0443 23.6399C9.4887 23.2269 5.75635 21.8168 5.75635 15.582C5.73194 13.9533 6.31923 12.3773 7.39662 11.1804C6.91677 9.76422 6.97286 8.21493 7.55377 6.83916C7.55377 6.83916 8.89938 6.39598 11.954 8.52125C14.5771 7.78271 17.3457 7.78271 19.9688 8.52125C23.0234 6.39598 24.3592 6.83916 24.3592 6.83916C24.9482 8.20037 25.0183 9.73854 24.5556 11.1501C25.633 12.3471 26.2203 13.9231 26.1959 15.5518C26.1959 21.8571 22.4537 23.237 18.8883 23.6097C19.2706 24.0038 19.5659 24.4776 19.754 24.9989C19.9421 25.5203 20.0187 26.077 19.9786 26.6314C19.9786 28.8272 19.9786 30.5999 19.9786 31.1338C19.9786 31.6676 20.2634 32.0806 21.0786 31.9194C24.646 30.6583 27.664 28.1448 29.5993 24.8229C31.5347 21.501 32.2629 17.5846 31.6554 13.7654C31.0478 9.9463 29.1435 6.47028 26.279 3.95144C23.4144 1.43259 19.7739 0.033035 16.0007 8.4828e-06V8.4828e-06Z" fill="#343A40"/>
</svg>
