<svg width="180" height="81" viewBox="0 0 180 81" fill="none" xmlns="http://www.w3.org/2000/svg">
<path d="M36.8132 30.3871C36.1773 28.6339 36.2875 26.0808 36.6833 24.2958C37.251 21.7357 39.3362 20.453 41.7375 19.6683C43.423 19.1175 44.9708 19.0955 46.7268 19.0955C46.9312 19.0955 47.3321 19.3105 47.4965 19.2592C48.3676 18.9875 48.865 16.8743 49.2586 16.1681C50.5382 13.8723 53.0637 12.7393 55.6018 12.2588C58.7937 11.6546 62.6683 11.2019 65.8679 11.9861C69.8727 12.9676 71.3529 18.0935 71.664 21.6775C71.7196 22.3179 71.7011 22.9628 71.7011 23.6049C71.7011 23.8129 71.4588 24.7662 71.5342 24.914C71.5639 24.9724 71.653 24.8413 71.7196 24.8413C71.9758 24.8413 72.234 24.9912 72.4708 25.0686C73.2793 25.3328 73.8374 25.6082 74.4461 26.205C76.7913 28.5041 77.6146 32.1991 77.5436 35.3328C77.524 36.1978 77.0685 37.0881 76.746 37.8784C76.4785 38.5339 75.9441 39.1174 75.457 39.6239C75.1536 39.9394 74.3792 40.4449 74.2977 40.924C74.0541 42.3572 75.1516 44.1883 75.5033 45.6061C75.7731 46.6932 75.8743 47.9542 75.8743 49.0699C75.8743 53.2087 75.6632 57.1 73.0922 60.6069C71.8569 62.2917 70.08 63.2769 68.1214 63.9707C66.2022 64.6505 64.3457 65.2997 62.2882 65.398C57.8076 65.6123 53.8619 65.2018 49.5924 63.6798C45.6815 62.2856 42.61 59.5482 40.4114 56.1612C38.5867 53.3503 38.9421 49.7152 38.9832 46.5334C39.0105 44.4204 39.4249 41.5526 40.7452 39.7876C41.485 38.7986 42.0363 38.2763 41.1626 37.2056C40.7585 36.7105 40.1971 36.1476 39.6138 35.9146C38.9074 35.6325 38.3133 35.0983 37.7313 34.6418C37.3965 34.3792 37.5444 33.6716 37.3139 33.3327" stroke="#ADB5BD" stroke-width="1.49106" stroke-linecap="round"/>
<path d="M41.6538 27.7699C41.6538 28.5341 41.256 29.8085 42.2844 30.0246C43.2999 30.2379 43.8318 29.5196 44.2319 28.6791C45.0291 27.0045 42.7006 27.3387 41.8208 27.7699" stroke="#ADB5BD" stroke-width="1.49106" stroke-linecap="round"/>
<path d="M60.685 16.4775C60.2694 16.8211 58.3064 18.145 58.7004 19.014C59.2463 20.2182 60.6484 18.8108 61.3898 18.5686C61.6102 18.4965 62.9348 18.1085 62.6603 17.7049C62.3968 17.3174 61.177 16.9254 60.685 16.8048" stroke="#ADB5BD" stroke-width="1.49106" stroke-linecap="round"/>
<path d="M56.1772 28.9144C55.9506 29.9514 55.4644 30.6601 56.474 31.2964C57.4875 31.9351 58.1116 30.7962 58.3844 30.0236C58.6114 29.3807 58.6597 28.8758 57.9392 28.7144C57.2935 28.5697 56.4412 28.1172 56.0103 28.7508" stroke="#ADB5BD" stroke-width="1.49106" stroke-linecap="round"/>
<path d="M70.034 35.2975C69.6704 36.2554 69.4106 36.8829 70.3678 37.3522C70.9521 37.6385 71.3893 37.5861 71.5271 36.843C71.8294 35.2128 71.2044 34.9702 69.5332 34.9702" stroke="#ADB5BD" stroke-width="1.49106" stroke-linecap="round"/>
<path d="M71.8691 21.0592C72.9699 21.0592 73.545 21.012 74.4194 21.7683C74.8217 22.1163 74.9073 22.7811 75.2077 23.2229C75.6114 23.8165 76.0148 24.7817 75.5416 25.4776" stroke="#ADB5BD" stroke-width="1.49106" stroke-linecap="round"/>
<path d="M44.6575 19.2593C44.2257 17.8719 43.4423 16.6838 42.7564 15.4137C42.3606 14.6809 42.1711 13.7539 41.8197 12.9863C41.1512 11.5258 40.7554 10.0837 40.1875 8.62238C39.7678 7.54222 40.0475 6.20306 39.4456 5.14946C39.105 4.55309 37.2902 5.92306 36.9695 6.08588C36.4319 6.35882 35.5816 6.48253 35.8381 7.19503C36.1126 7.95748 36.4832 8.67866 36.8026 9.42242C37.5866 11.2478 38.2195 13.1408 38.8985 15.0045C39.2499 15.9692 39.6292 16.9042 39.9835 17.8592C40.3294 18.7919 40.4092 19.2769 41.3189 19.9139" stroke="#ADB5BD" stroke-width="1.49106" stroke-linecap="round"/>
<path d="M48.921 37.7054C47.7128 38.411 46.5726 39.3019 46.3146 40.7474C46.1432 41.7076 46.0663 43.2422 46.4916 44.1317C47.0314 45.2605 47.5218 45.7615 48.7046 46.2095C49.7828 46.6179 51.0812 46.7981 52.2256 46.5566C53.5244 46.2826 54.7669 45.6305 55.5106 44.5125C56.3221 43.2928 55.5546 41.3809 54.9352 40.2749C54.2715 39.0898 53.5161 38.3113 52.4125 37.5511C51.4246 36.8705 50.2263 37.1847 49.098 37.1847" stroke="#ADB5BD" stroke-width="1.49106" stroke-linecap="round"/>
<path d="M50.0729 40.4832C49.5864 40.9746 49.382 41.9063 49.8762 42.4983C50.1849 42.8683 50.8924 43.289 51.3121 42.8262C51.6203 42.4863 51.7676 42.1933 51.7547 41.7366C51.7475 41.4827 51.5111 40.5855 51.2039 40.5025C50.2569 40.2464 50.5151 41.741 50.781 42.132" stroke="#ADB5BD" stroke-width="1.49106" stroke-linecap="round"/>
<path d="M64.5014 38.314C63.4701 38.5084 61.8312 38.5374 61.177 39.4903C60.7467 40.1171 60.4992 40.8342 60.3459 41.5729C60.1181 42.6713 60.2921 43.7152 61.1082 44.533C61.8166 45.2429 62.4468 45.7901 63.4441 45.9937C64.2241 46.1531 64.9239 45.9193 65.6521 45.7093C67.3117 45.2308 68.2996 43.5263 67.9732 41.8911C67.8204 41.1254 67.466 39.508 66.67 39.1383C66.5098 39.064 66.3939 38.9019 66.2324 38.8443C65.9857 38.7563 65.6615 38.7651 65.4013 38.7093C65.0964 38.6439 64.8114 38.5743 64.5014 38.5743" stroke="#ADB5BD" stroke-width="1.49106" stroke-linecap="round"/>
<path d="M63.0846 40.918C62.9636 42.0296 62.8038 42.8753 63.7485 43.5598C64.658 44.2189 65.3047 43.1764 65.1008 42.3546C64.9947 41.9268 64.6712 41.2474 64.1812 41.1735C63.7819 41.1132 63.3309 40.9156 63.4829 41.482C63.6182 41.9859 63.6131 42.6522 64.1468 42.9138" stroke="#ADB5BD" stroke-width="1.49106" stroke-linecap="round"/>
<path d="M47.5957 49.9415C47.9823 51.1836 48.5219 51.4907 49.7103 51.894C50.5724 52.1865 51.636 52.0241 52.5429 52.0241C53.5744 52.0241 54.4717 51.0046 55.2967 50.5104C55.9813 50.1003 57.1249 50.0659 57.9031 50.25C59.5962 50.6507 61.2492 51.0317 62.8994 51.571C64.1252 51.9715 65.4578 52.1481 66.7549 52.0049C68.5079 51.8112 70.0792 50.9873 70.0792 49.0737" stroke="#ADB5BD" stroke-width="1.49106" stroke-linecap="round"/>
<path d="M74.7891 59.0897C77.9082 59.1158 81.1365 59.8118 84.244 59.6199C86.7616 59.4644 89.2775 59.2548 91.7949 59.0897C93.7266 58.9629 95.7835 59.0427 97.6908 58.676C99.9959 58.2329 102.35 57.0512 104.495 56.1414C106.579 55.2577 108.345 54.1004 110.142 52.7689C111.836 51.5147 113.588 50.1218 114.913 48.4738C115.909 47.234 116.351 45.9283 116.557 44.3908C116.662 43.6104 116.58 42.8069 116.806 42.0576C117.135 40.9706 117.212 39.2138 118.645 38.8124C123.437 37.4702 124.638 42.3746 124.638 45.8225C124.638 47.1674 124.533 48.3397 124.238 49.6404C123.806 51.5476 122.155 53.3522 121.036 54.9006C118.059 59.0203 113.762 62.7029 109.147 64.965C105.944 66.5348 102.42 68.0209 98.9565 68.9101C97.2831 69.3397 95.3205 70.3524 93.5799 70.3524C92.1743 70.3524 90.7871 71.5449 89.3934 71.6887C88.1947 71.8124 86.3786 73.4553 85.9316 74.5945C85.736 75.093 84.122 79.7063 84.3305 79.7063" stroke="#ADB5BD" stroke-width="1.49106" stroke-linecap="round"/>
<path d="M41.1026 58.137C37.3605 57.0651 33.4078 56.2396 30.0899 54.1282C27.8609 52.7098 25.2471 51.1579 23.8696 48.868C22.0083 45.774 20.3416 42.5468 19.2287 39.1112C17.9034 35.0202 16.1695 31.0679 15.0097 26.9258C14.2196 24.1045 14.2308 21.3523 14.2308 18.4522C14.2308 16.8145 14.538 14.8571 14.2091 13.245C13.8475 11.4724 12.1252 9.00238 10.0117 9.27863C6.66923 9.71553 5.23372 14.5507 5.07874 17.2856C4.90158 20.4117 5.07874 23.5931 5.07874 26.7243C5.07874 29.1634 5.07893 31.5755 5.51146 33.9783C6.51588 39.558 7.89621 44.5806 10.9205 49.4513C12.6774 52.2809 14.6532 55.1363 17.0434 57.4795C17.93 58.3486 18.6567 59.2575 19.6398 60.046C20.746 60.9333 21.7998 61.8493 22.4957 63.0897C23.3179 64.5552 24.3564 66.4835 24.3564 68.1908C24.3564 69.5564 24.7139 71.5523 24.3131 72.8783C23.8509 74.4078 23.3136 75.8751 22.1712 77.078C21.3951 77.8952 20.9266 79.3849 19.8777 79.899" stroke="#ADB5BD" stroke-width="1.49106" stroke-linecap="round"/>
<path d="M39.498 46.4615C40.6159 46.1692 41.9033 45.846 42.4524 47.1246C42.8526 48.0563 42.9504 49.3438 42.7906 50.3622C42.6642 51.1676 42.2167 52.0336 41.5522 52.5222C40.9546 52.9616 40.0842 52.9241 39.498 53.3072" stroke="#ADB5BD" stroke-width="1.49106" stroke-linecap="round"/>
<path d="M74.6814 44.707C73.5309 45.0905 72.9632 45.4766 72.488 46.5014C72.1427 47.2461 72.3291 48.4479 72.4632 49.2221C72.5753 49.8694 73.0151 50.6876 73.7414 50.8458C73.9958 50.9012 75.2379 51.3394 75.2186 51.3773" stroke="#ADB5BD" stroke-width="1.49106" stroke-linecap="round"/>
<path d="M83.5493 49.4531C82.7671 49.6083 81.9478 49.7562 81.2235 50.0996C80.6133 50.3888 80.4005 50.9218 80.1497 51.5148C79.8497 52.2242 79.782 53.1265 79.8645 53.8954C80.0705 55.8137 82.2914 56.0788 83.879 56.0575C84.3719 56.0509 85.7551 55.9337 85.8751 55.3455C86.0237 54.6175 86.1166 53.5196 85.9108 52.799C85.8104 52.4476 85.7192 52.1868 85.3048 52.2093C84.9195 52.2303 84.3908 52.2283 84.0305 52.3797C83.843 52.4584 83.661 52.5526 83.4736 52.633C83.3758 52.6749 82.7994 52.8339 83.0681 52.8339" stroke="#ADB5BD" stroke-width="1.49106" stroke-linecap="round"/>
<path d="M89.0039 55.506C88.4856 54.4774 87.9558 53.4768 87.7029 52.3611C87.5489 51.6819 87.3811 50.901 87.3999 50.2033C87.4305 49.0614 88.8518 48.1734 89.8683 48.9016C90.3652 49.2576 90.6555 50.2467 90.4653 50.8061C90.2024 51.5795 88.0772 52.0904 88.7009 53.0687C88.9305 53.4287 89.7687 53.4587 90.1267 53.5404C90.5577 53.6388 90.9895 53.6693 91.4277 53.7151C91.9247 53.7671 92.4392 53.9335 92.9337 53.9335" stroke="#ADB5BD" stroke-width="1.49106" stroke-linecap="round"/>
<path d="M96.009 46.1313C95.2595 46.4284 94.4459 46.5527 93.7054 46.8617C93.3398 47.0142 93.1054 47.3257 93.0578 47.6987C92.9193 48.7851 92.798 50.2228 93.436 51.1957C93.7338 51.6499 93.9571 52.2465 94.3873 52.6002C94.7282 52.8805 95.1634 53.2097 95.625 53.2097C96.1599 53.2097 96.7497 53.1183 97.2181 52.853C97.6441 52.6117 98.2147 52.4404 98.5877 52.1479" stroke="#ADB5BD" stroke-width="1.49106" stroke-linecap="round"/>
<path d="M93.5332 50.277C94.3079 50.0646 95.026 49.7836 95.7738 49.5073C96.3212 49.3051 96.7632 49.0834 97.3497 48.9624" stroke="#ADB5BD" stroke-width="1.49106" stroke-linecap="round"/>
<path d="M101.011 51.2367C100.707 50.5033 100.505 49.7294 100.269 48.9728C100.147 48.5808 100.031 48.2122 100.031 47.8015C100.031 47.2051 99.9629 46.6264 99.9913 46.0235C100.021 45.3855 100.142 44.347 100.753 43.9618C100.91 43.863 101.055 43.855 101.235 43.855C101.683 43.855 102.195 43.7826 102.633 43.8775C102.959 43.9481 103.394 44.1233 103.633 44.3578C104.176 44.8904 104.698 45.4597 105.166 46.0572C105.559 46.559 106.025 46.9683 106.349 47.5206C106.467 47.7211 106.715 47.9393 106.788 48.1526" stroke="#ADB5BD" stroke-width="1.49106" stroke-linecap="round"/>
<path d="M100.188 48.4064C101.051 47.8909 101.899 47.3419 102.738 46.7942C103.091 46.5634 103.462 46.3526 103.803 46.1032C103.984 45.9709 104.094 45.8312 104.313 45.7773" stroke="#ADB5BD" stroke-width="1.49106" stroke-linecap="round"/>
<path d="M105.756 42.0353C106.736 41.4181 107.68 40.6736 108.575 39.9399C109.039 39.5599 109.55 39.203 110.077 38.9118C110.31 38.7829 111.026 38.4961 110.759 38.4961" stroke="#ADB5BD" stroke-width="1.49106" stroke-linecap="round"/>
<path d="M107.975 40.2676C108.767 41.4104 109.756 42.3812 110.834 43.2618C111.118 43.4935 111.359 43.7462 111.625 43.9978C111.739 44.106 111.946 44.1898 111.946 44.3629" stroke="#ADB5BD" stroke-width="1.49106" stroke-linecap="round"/>
<path d="M134.821 48.6917C137.002 49.2095 139.158 48.9471 140.541 47.0094C141.262 46.0006 141.564 44.758 141.638 43.5513C141.755 41.6124 141.714 39.7004 140.986 37.8606C139.92 35.1676 137.046 33.2912 134.122 33.2706C132.991 33.2626 131.97 33.2951 130.87 33.551C129.641 33.8369 128.713 34.6348 127.862 35.5188C125.83 37.628 125.807 40.4623 127.29 42.8503C127.849 43.7521 128.821 44.3928 129.901 44.5742C130.272 44.6366 130.632 44.6728 131.008 44.6728C131.249 44.6728 131.58 44.5194 131.58 44.7663" stroke="#ADB5BD" stroke-width="1.49106" stroke-linecap="round"/>
<path d="M113.162 63.085C111.711 64.6373 111.257 66.7393 110.652 68.703C110.077 70.5652 109.921 72.4948 109.921 74.4509C109.921 75.4474 109.931 76.4982 109.635 77.4416C109.549 77.7162 109.193 79.3642 109.54 79.5341" stroke="#ADB5BD" stroke-width="1.49106" stroke-linecap="round"/>
<path d="M129.578 53.8323C129.518 54.381 129.063 57.6643 130.198 57.6643C131.693 57.6643 131.437 54.4425 131.008 53.661C130.843 53.3603 130.254 53.0924 130.007 53.4689C129.735 53.8841 129.864 54.5571 129.864 55.0266C129.864 55.1724 129.89 56.7089 130.012 56.7089C130.213 56.7089 130.507 56.0976 130.526 55.9352C130.565 55.6158 130.531 55.2758 130.531 54.9539" stroke="#ADB5BD" stroke-width="1.49106" stroke-linecap="round"/>
<path d="M128.816 60.0013C129.715 60.4333 130.432 60.927 131.454 60.9359C132.578 60.9456 133.583 60.9738 134.621 60.5101C135.213 60.2458 135.831 59.763 136.231 59.2536C136.369 59.0783 136.646 58.6357 136.941 58.7136C137.835 58.9495 138.534 59.534 139.494 59.534C140.857 59.534 141.433 59.1123 142.163 58.0386" stroke="#ADB5BD" stroke-width="1.49106" stroke-linecap="round"/>
<path d="M134.631 61.3089C134.379 62.2486 134.44 63.2011 134.44 64.1647C134.44 64.8071 134.594 65.6692 134.959 66.2105C135.8 67.4589 138.223 68.4477 139.323 67.0101C140.408 65.5925 141.018 63.9205 141.018 62.1501C141.018 61.4433 140.79 60.6714 141.018 60.0005" stroke="#ADB5BD" stroke-width="1.49106" stroke-linecap="round"/>
<path d="M142.163 51.5895C141.876 53.0311 142.133 54.1716 142.619 55.4941C142.875 56.1937 143.846 55.6473 144.027 55.2034C144.363 54.3815 144.175 53.2776 143.879 52.4722C143.748 52.1157 143.483 51.8396 143.191 51.6103C142.831 51.328 142.83 52.5107 142.83 52.6384C142.83 53.369 142.898 54.1061 142.926 54.8399C142.942 55.2619 143.358 54.4705 143.381 54.3414C143.459 53.9 143.292 53.4227 143.212 52.9914" stroke="#ADB5BD" stroke-width="1.49106" stroke-linecap="round"/>
<path d="M148.548 74.5796C148.548 72.3872 148.39 70.1859 147.986 68.027C147.682 66.3971 147.205 64.7994 146.927 63.167C146.759 62.1754 146.737 61.2085 146.737 60.2074C146.737 59.8573 146.76 59.7198 147.118 59.5532C148.209 59.0457 149.501 58.8475 150.666 58.577C152.062 58.2532 153.477 57.9025 154.851 57.497C156.066 57.1382 157.265 56.9052 158.505 56.6351C160.112 56.285 161.709 55.9105 163.357 55.7991C164.592 55.7156 165.876 55.3482 167.043 54.9528C167.616 54.7587 168.164 54.7478 168.77 54.6932C169.356 54.6404 169.522 54.5463 169.448 55.1189C169.26 56.5686 169.523 58.1824 169.665 59.6259C169.859 61.6014 169.808 63.5927 169.808 65.5762C169.808 67.2881 169.998 69.0595 169.998 70.7477C169.998 71.605 170.073 71.9066 169.024 72.0095C167.211 72.1872 165.326 72.3197 163.505 72.3366C161.011 72.3596 158.83 73.4537 156.418 73.8371C155.092 74.048 153.758 74.4691 152.414 74.5744C151.625 74.6364 150.806 74.5388 150.031 74.7198C149.278 74.8956 148.398 74.8862 147.685 75.1923C147.186 75.406 146.566 75.4512 146.032 75.5558C145.272 75.7048 144.496 75.8767 143.718 75.8881C143.302 75.8942 138.647 76.6682 138.734 76.8798C139.113 77.8087 139.641 78.277 139.682 79.3254C139.69 79.547 139.781 79.7169 139.999 79.72C141.332 79.7389 142.652 79.5597 143.982 79.5331C145.321 79.5063 146.648 79.2131 147.976 79.0658C148.807 78.9735 149.574 78.8367 150.386 78.6452C155.108 77.5306 159.932 76.8545 164.649 75.7219C165.834 75.4375 167.068 75.3855 168.261 75.1196C168.848 74.9888 169.395 74.7509 169.988 74.6679C170.307 74.6232 169.589 73.1024 169.522 72.8039C169.413 72.3246 169.617 72.1327 169.617 71.6823" stroke="#ADB5BD" stroke-width="1.49106" stroke-linecap="round"/>
<path d="M141.875 41.4019C144.236 41.659 146.565 42.4781 148.803 43.2503C150.1 43.6981 151.331 44.2228 152.563 44.8184C153.623 45.3307 154.692 45.8359 155.54 46.6668C156.63 47.7358 157.567 48.8883 158.442 50.1249C159.375 51.4429 159.779 53.0605 160.73 54.3514C160.937 54.6321 161.001 54.934 161.154 55.2341C161.205 55.334 161.26 55.5122 161.345 55.5872C161.377 55.6158 161.499 55.5931 161.514 55.6287C161.568 55.756 160.477 56.0707 160.466 56.0753" stroke="#ADB5BD" stroke-width="1.49106" stroke-linecap="round"/>
<path d="M170.57 71.3081C171.792 72.0047 172.711 72.9652 173.822 73.79C174.183 74.0577 174.466 74.2612 174.649 74.6727C174.953 75.3596 175.175 76.9468 174.807 77.6167C174.605 77.9857 174.449 78.7513 174.055 78.9719C173.75 79.1433 173.462 79.728 173.24 80" stroke="#ADB5BD" stroke-width="1.49106" stroke-linecap="round"/>
<path d="M126.717 76.263C129.467 74.8338 132.325 73.4592 135.498 73.4592C136.1 73.4592 137.347 73.2229 137.733 73.8434C137.985 74.2477 138.331 74.6202 138.348 75.1207C138.41 76.9454 138.244 78.6506 136.441 79.5342" stroke="#ADB5BD" stroke-width="1.49106" stroke-linecap="round"/>
<path d="M154.285 62.8559C154.149 63.4808 154 64.0326 154.136 64.6692C154.297 65.4221 154.37 66.1776 154.493 66.9343C154.572 67.4207 154.636 67.949 154.778 68.4232C154.893 68.8036 155.062 69.1635 155.161 69.5525C155.207 69.7316 155.29 69.7656 155.486 69.7784C156.374 69.8364 157.277 69.732 158.166 69.7275C159.065 69.723 159.959 69.7407 160.847 69.5812C161.607 69.4446 162.404 69.2955 163.177 69.2694C163.281 69.2659 163.71 69.1848 163.745 69.0658C163.844 68.7234 163.054 68.1238 162.855 67.9396C162.214 67.3433 161.443 66.8875 160.788 66.2981C160.422 65.9687 160.049 65.6487 159.678 65.3246C159.36 65.046 158.992 64.8452 158.672 64.5738C158.353 64.3023 158.02 64.0323 157.647 63.8294C157.352 63.6688 157.029 63.5218 156.745 63.3426C156.528 63.206 156.288 63.1428 156.057 63.0149C155.95 62.9555 154.519 62.3432 154.519 62.6268" stroke="#ADB5BD" stroke-width="1.49106" stroke-linecap="round"/>
<path d="M160.184 65.4343C160.346 64.1292 160.835 62.7333 161.585 61.6294C161.615 61.5859 161.736 61.3641 161.793 61.359C161.936 61.3463 162.48 62.416 162.54 62.5075C163.027 63.2542 163.496 64.0464 163.779 64.8934C164.047 65.6967 164.272 66.6334 164.272 67.4798C164.272 67.7524 164.272 68.0249 164.272 68.2974C164.272 68.3578 164.286 68.4364 164.269 68.4947C164.223 68.6526 164.593 68.617 164.74 68.641" stroke="#ADB5BD" stroke-width="1.49106" stroke-linecap="round"/>
<path d="M119.386 58.3438C118.859 58.9558 118.457 59.6431 118.008 60.3031" stroke="#ADB5BD" stroke-width="1.49106" stroke-linecap="round"/>
<path d="M122.142 58.6826C121.768 59.0706 121.486 59.597 121.314 60.1015" stroke="#ADB5BD" stroke-width="1.49106" stroke-linecap="round"/>
<path d="M151.367 54.9644C150.97 55.3654 150.515 55.8461 150.332 56.3832" stroke="#ADB5BD" stroke-width="1.49106" stroke-linecap="round"/>
<path d="M154.809 54.4941C154.55 54.8137 154.347 55.1404 154.12 55.4776C154.009 55.6414 153.844 55.7727 153.844 55.9806" stroke="#ADB5BD" stroke-width="1.49106" stroke-linecap="round"/>
</svg>
