<svg width="160" height="160" viewBox="0 0 160 160" fill="none" xmlns="http://www.w3.org/2000/svg">
<mask id="mask0_3785_27504" style="mask-type:alpha" maskUnits="userSpaceOnUse" x="0" y="0" width="160" height="160">
<path d="M0 0H160V160H0V0Z" fill="#C4C4C4"/>
</mask>
<g mask="url(#mask0_3785_27504)">
<path fill-rule="evenodd" clip-rule="evenodd" d="M13.1594 44.5627C13.1605 44.5944 13.1618 44.628 13.1633 44.665C13.1648 44.703 13.1664 44.7447 13.1681 44.7916C13.202 45.7465 13.8094 46.6744 14.8014 47.8374C15.3 48.4219 15.8783 48.976 16.499 49.4874C17.1791 50.0478 17.9822 50.4957 18.9162 50.9744C19.1666 51.1027 19.3943 51.2184 19.6089 51.3208C19.6484 51.2624 19.6957 51.1906 19.7486 51.1087C19.8377 50.9706 19.9296 50.8237 20.0047 50.7017C20.0421 50.6409 20.0744 50.5879 20.0992 50.5467L20.1291 50.4966C20.133 50.4901 20.1356 50.4856 20.1372 50.4828C20.139 50.4797 20.1395 50.4789 20.1389 50.4799C20.3234 50.1549 20.5391 49.8528 20.7007 49.6265C20.7281 49.588 20.754 49.5517 20.7779 49.5179C20.9629 49.2562 21.0777 49.0777 21.1579 48.9016C21.3495 48.4813 21.5687 48.0764 21.7672 47.714C21.7896 47.673 21.8117 47.6327 21.8336 47.5928C22.0131 47.2654 22.1741 46.972 22.3198 46.6748C22.602 46.099 22.7645 45.6282 22.803 45.1897C22.7948 45.1833 22.7859 45.1764 22.7762 45.1691C22.5929 45.0315 22.3326 44.9009 22.046 44.7761C22.0458 44.7761 22.0457 44.7762 22.0456 44.7763C21.9807 44.8126 21.8913 44.8756 21.7749 44.9776C21.6592 45.0789 21.5416 45.1964 21.4088 45.334C20.9292 45.8308 20.4545 46.3238 19.9865 46.8192C19.9861 46.852 19.9846 46.8867 19.9817 46.9227C19.9745 47.0114 19.9507 47.2294 19.8294 47.4753C19.6892 47.7596 19.3868 48.1282 18.8616 48.2669C18.402 48.3882 18.0323 48.26 17.8762 48.1928C17.7057 48.1193 17.5859 48.0304 17.5293 47.9858C17.4128 47.8941 17.3294 47.8015 17.2949 47.7627C17.0058 47.4367 16.7672 47.151 16.5433 46.8829C16.2255 46.5024 15.9375 46.1575 15.5769 45.7836C15.0291 45.2155 14.5034 44.8016 13.905 44.5518C13.8005 44.5082 13.5498 44.4936 13.1594 44.5627ZM19.9425 46.3999C19.9413 46.3928 19.9417 46.394 19.9429 46.4019L19.9425 46.3999ZM21.9256 53.2395C21.924 53.3483 21.9104 53.4587 21.8839 53.569C21.6901 54.3745 20.8801 54.8704 20.0747 54.6767C19.1085 54.4443 18.2747 54.0168 17.5916 53.6666L17.5479 53.6442C16.5917 53.1541 15.5393 52.5838 14.5913 51.8028C13.8593 51.1996 13.1501 50.5242 12.519 49.7843C11.5502 48.6486 10.2448 47.0028 10.17 44.8981C10.1693 44.8781 10.1681 44.8534 10.1668 44.8247C10.1554 44.5811 10.1303 44.0448 10.2449 43.551C10.3163 43.243 10.4571 42.8625 10.7487 42.5137C11.0543 42.148 11.4601 41.8963 11.9257 41.7694C12.6055 41.5841 13.9016 41.2996 15.0605 41.7833C16.1827 42.2517 17.0395 42.9784 17.7364 43.7011C17.9086 43.8798 18.0863 44.0759 18.2632 44.2775C18.5925 43.9325 18.9224 43.5902 19.2502 43.2506C19.5244 42.9665 19.9935 42.4863 20.5824 42.1573C21.2225 41.7997 22.1337 41.5537 23.1296 41.9765C23.4728 42.1222 24.0614 42.3826 24.5774 42.77C25.0563 43.1295 25.8119 43.8558 25.8119 44.9887C25.8119 46.1609 25.4159 47.1744 25.0135 47.9954C24.8353 48.3587 24.6396 48.7154 24.4642 49.0351C24.4419 49.0757 24.42 49.1157 24.3984 49.155C24.1992 49.5188 24.0286 49.8367 23.8878 50.1457C23.6827 50.5956 23.4266 50.9682 23.2276 51.2497C23.1914 51.3009 23.1574 51.3487 23.1253 51.3938C22.963 51.6223 22.8495 51.7819 22.7477 51.9611C22.6844 52.0727 22.4688 52.4262 22.2695 52.7351C22.1698 52.8895 22.056 53.0614 21.9563 53.1979C21.9475 53.21 21.9372 53.224 21.9256 53.2395ZM19.5342 45.7663C19.5359 45.7682 19.5376 45.7701 19.5393 45.7721L19.5391 45.7718C19.5386 45.7712 19.5369 45.7693 19.5342 45.7663Z" fill="#F35D78"/>
<path fill-rule="evenodd" clip-rule="evenodd" d="M12.6506 45.4176C12.5033 45.1803 12.4204 44.8991 12.4261 44.5991C12.4299 44.3965 12.4376 44.1675 12.4601 43.9268C12.4571 43.9583 12.4728 43.7627 12.4988 43.6101C12.5052 43.5724 12.5205 43.4853 12.5497 43.3862C12.5623 43.3434 12.596 43.233 12.6622 43.105C12.6952 43.0411 12.7611 42.9239 12.8716 42.7984C12.9733 42.6828 13.2036 42.4564 13.5836 42.3464C14.0288 42.2175 14.4624 42.3099 14.7863 42.508C15.0594 42.675 15.2086 42.8856 15.2726 42.9861C15.3985 43.1841 15.4478 43.3666 15.4608 43.4146L15.4612 43.416C15.4968 43.5477 15.5108 43.6674 15.5166 43.72C15.5513 44.032 15.5786 44.3872 15.6032 44.706C15.6052 44.7324 15.6072 44.7586 15.6092 44.7845C15.8632 44.9092 16.026 45.0787 16.1087 45.178C16.2315 45.3255 16.3001 45.4646 16.3328 45.537C16.3994 45.6846 16.4313 45.8158 16.4444 45.8723C16.4464 45.881 16.4484 45.8897 16.4503 45.8984C16.6721 45.8839 16.9221 45.8974 17.1842 45.9678C17.6729 46.0989 18.0061 46.3923 18.2072 46.6189C18.2593 46.6098 18.318 46.6013 18.3807 46.5954C18.534 46.581 18.7009 46.5843 18.873 46.6145C19.0438 46.4144 19.219 46.2677 19.3403 46.172C19.4912 46.0529 19.7891 45.8476 19.855 45.8022C19.8628 45.7968 19.8674 45.7936 19.868 45.7932C20.1393 45.5955 20.2774 45.4504 20.5629 45.1155C20.5649 45.1131 20.5676 45.11 20.5709 45.1061C20.6192 45.0492 20.7968 44.8402 20.9827 44.648C21.074 44.5537 21.2159 44.4123 21.3712 44.2925C21.4364 44.2423 21.5941 44.1241 21.8085 44.037C21.894 44.0022 22.7684 43.6478 23.4874 44.3668C24.0731 44.9526 24.0731 45.9023 23.4874 46.4881C23.374 46.6015 23.247 46.6929 23.1116 46.7624C23.0053 46.8746 22.8992 46.9991 22.8535 47.0528C22.8507 47.0561 22.8482 47.059 22.8459 47.0617C22.5011 47.4663 22.1853 47.8166 21.635 48.2176C21.5645 48.269 21.4813 48.3262 21.4188 48.3691C21.4017 48.381 21.3861 48.3917 21.3728 48.4009C21.3309 48.4299 21.2958 48.4546 21.2655 48.4767C21.2656 48.5204 21.2668 48.5716 21.2688 48.6361C21.2692 48.6494 21.2696 48.6639 21.2701 48.6794C21.2728 48.7622 21.2764 48.8733 21.2764 48.9778V50.0484C21.2766 50.0523 21.2769 50.0586 21.2775 50.068C21.2776 50.0704 21.2778 50.0733 21.278 50.0766C21.2795 50.1035 21.2827 50.1579 21.2842 50.2128C21.2859 50.2767 21.2866 50.3722 21.2772 50.4821C21.2679 50.5898 21.2463 50.7449 21.1883 50.919C21.1101 51.1537 20.9517 51.434 20.6611 51.6531C20.3724 51.8707 20.0647 51.9439 19.8293 51.9569C19.428 51.979 19.1316 51.835 19.0577 51.7991C18.8583 51.7022 18.7079 51.5771 18.6623 51.539L18.6607 51.5377C18.5907 51.4795 18.5305 51.4231 18.4965 51.3909L18.4858 51.3806C18.2493 51.1891 18.0284 51.0358 17.7825 50.8986C17.7407 50.8832 17.7023 50.8684 17.6682 50.8552C17.4926 50.7868 17.3208 50.712 17.1973 50.6575C17.0764 50.6041 17.039 50.5878 17.0393 50.5871C17.0395 50.5866 17.0506 50.5907 17.0657 50.596C16.8506 50.5206 16.6709 50.4337 16.5181 50.3465C16.4074 50.2983 16.2912 50.2444 16.1742 50.1844C16.0436 50.1173 15.9411 50.0388 15.9246 50.0261C15.9237 50.0255 15.9231 50.025 15.9228 50.0247C15.8843 49.9956 15.8483 49.9665 15.8191 49.9422C15.7611 49.894 15.6947 49.8356 15.6341 49.778C15.6049 49.7503 15.5632 49.7096 15.5198 49.6623C15.4986 49.6392 15.4647 49.6013 15.4274 49.5534L15.4264 49.5521C15.4029 49.5221 15.3126 49.4063 15.237 49.2401C15.2361 49.2381 15.2352 49.2361 15.2343 49.234C15.2274 49.2326 15.2205 49.2312 15.2135 49.2298C14.6703 49.1161 14.3179 48.7573 14.1354 48.4211C14.0082 48.1867 13.8833 47.9345 13.776 47.653C13.7736 47.6515 13.7712 47.6501 13.7688 47.6487C13.5052 47.5737 13.2985 47.4359 13.154 47.3007C12.8471 47.0135 12.754 46.6814 12.7361 46.6177C12.7356 46.6159 12.7352 46.6143 12.7348 46.6129C12.703 46.5014 12.6912 46.41 12.6864 46.3683C12.6762 46.2794 12.6758 46.2065 12.6758 46.1775C12.6758 45.8916 12.673 45.6674 12.654 45.4559C12.6529 45.4431 12.6517 45.4303 12.6506 45.4176ZM14.9137 46.42C14.9017 46.4274 14.9031 46.426 14.9148 46.4194L14.9137 46.42Z" fill="#F35D78"/>
<path fill-rule="evenodd" clip-rule="evenodd" d="M54.5326 37.1969C55.9165 37.9033 56.4656 39.5977 55.7593 40.9815C47.839 56.4979 41.0224 74.9356 46.5914 91.2805C49.6574 100.279 59.7965 104.962 69.9356 106.407C77.0531 107.422 83.6875 105.213 89.7878 101.199C95.9143 97.1672 101.345 91.4112 105.906 85.6575C111.774 78.2564 117.795 70.0842 118.509 61.4315C118.637 59.8831 119.996 58.7315 121.544 58.8592C123.093 58.987 124.244 60.3458 124.116 61.8942C123.24 72.5101 116.004 81.9779 110.315 89.1528C105.584 95.1207 99.7208 101.398 92.8806 105.899C86.0142 110.417 78.0089 113.241 69.1417 111.977C58.4643 110.455 45.406 105.246 41.2658 93.0951C34.8724 74.3309 42.8206 53.9542 50.7481 38.4236C51.4544 37.0398 53.1488 36.4906 54.5326 37.1969Z" fill="#343A40"/>
<path fill-rule="evenodd" clip-rule="evenodd" d="M74.7595 12.6388C75.6902 13.8829 75.4361 15.6459 74.1921 16.5765C70.1221 19.6212 67.3986 22.6233 65.5637 27.0528C65.2424 27.8286 65.0644 28.7939 64.9594 30.0084C64.9076 30.6082 64.8765 31.2229 64.8444 31.8841L64.8398 31.9795C64.81 32.5957 64.7778 33.2594 64.7243 33.9076C64.3006 39.0434 68.0299 42.8333 73.5896 46.2113C74.9174 47.0181 75.3398 48.7484 74.533 50.0762C73.7263 51.404 71.9959 51.8264 70.6681 51.0196C64.977 47.5618 58.3998 42.1371 59.1171 33.4449C59.1625 32.8944 59.1905 32.3172 59.2218 31.6719L59.2248 31.6114C59.2564 30.96 59.2918 30.2444 59.354 29.5239C59.4773 28.098 59.7182 26.4629 60.3657 24.8996C62.6964 19.2733 66.2054 15.5248 70.8218 12.0713C72.0659 11.1407 73.8289 11.3947 74.7595 12.6388Z" fill="#343A40"/>
<path fill-rule="evenodd" clip-rule="evenodd" d="M97.8419 19.8718C99.0073 20.8992 99.1191 22.6769 98.0917 23.8423C94.434 27.9912 91.1876 31.9742 90.3152 36.6483C90.0727 37.947 90.26 39.3836 90.7487 41.1007C90.9914 41.9535 91.2902 42.8169 91.6167 43.7413C91.6493 43.8339 91.6824 43.9273 91.7158 44.0215C92.0056 44.8407 92.316 45.7179 92.5795 46.5828C93.4822 49.5448 94.9746 50.931 98.0787 52.9482C98.431 53.1772 99.9581 54.0815 101.368 54.7327C101.707 54.8892 101.995 55.0099 102.228 55.099C102.613 54.9487 103.038 54.8815 103.479 54.9179C105.027 55.0456 106.179 56.4044 106.051 57.9528C106.003 58.5319 105.794 59.1949 105.299 59.7733C104.816 60.3376 104.229 60.6245 103.755 60.7639C102.917 61.0104 102.131 60.8877 101.729 60.8082C100.819 60.628 99.8154 60.2129 99.009 59.8405C97.3236 59.0621 95.5608 58.0219 95.0129 57.6659C91.4665 55.3612 88.6678 53.0472 87.1976 48.2229C86.9726 47.4846 86.7052 46.7283 86.4085 45.8894C86.3765 45.7988 86.3441 45.7073 86.3114 45.6147C85.9855 44.6916 85.6331 43.6801 85.3373 42.6408C84.749 40.5737 84.31 38.1573 84.7844 35.6159C85.9818 29.2013 90.3392 24.128 93.8713 20.1216C94.8988 18.9562 96.6764 18.8443 97.8419 19.8718ZM102.864 55.2954C102.865 55.2961 102.852 55.2948 102.823 55.2891C102.849 55.2918 102.864 55.2946 102.864 55.2954Z" fill="#343A40"/>
<path fill-rule="evenodd" clip-rule="evenodd" d="M119.646 29.3437C121.136 29.7838 121.987 31.3485 121.547 32.8385C120.188 37.4405 119.265 44.2891 120.24 50.2186C121.212 56.1358 123.874 60.368 129.071 61.5533C130.586 61.8987 131.534 63.4068 131.188 64.9215C130.843 66.4363 129.335 67.3842 127.82 67.0387C119.417 65.1223 115.836 58.1194 114.688 51.1309C113.541 44.1545 114.621 36.4268 116.151 31.2447C116.591 29.7547 118.156 28.9036 119.646 29.3437Z" fill="#343A40"/>
<path fill-rule="evenodd" clip-rule="evenodd" d="M63.1002 46.0758C64.2179 46.2614 65.2315 46.4297 66.2288 46.5329C67.5657 46.6714 68.5866 47.7247 68.7341 49.0069C70.2168 49.8669 71.7604 50.6351 73.3745 51.4385C74.4584 51.978 75.5741 52.5333 76.7246 53.1428C77.7674 53.6953 78.542 54.5045 79.015 55.4997C79.461 56.4383 79.5631 57.3822 79.5652 58.1328C79.5673 58.878 79.4681 59.6032 79.3861 60.1542C79.3648 60.2974 79.3449 60.4281 79.3264 60.5492C79.2642 60.9573 79.2188 61.2551 79.1946 61.5481C78.9307 64.7461 77.9492 68.3563 75.8896 71.1751C73.7407 74.1162 70.3964 76.1753 65.8885 75.8033C60.494 75.3582 55.0866 73.3467 50.5367 71.119C50.4827 71.0925 50.427 71.0653 50.3697 71.0373C49.1837 70.4578 47.3077 69.5411 45.7509 68.307C44.1699 67.0537 42.2176 64.9129 42.47 61.8545C42.6472 59.7069 43.585 57.2101 44.6115 55.0895C45.6607 52.922 46.9801 50.7867 48.1934 49.3311C50.9249 46.0542 54.4554 45.3408 57.667 45.4271C59.2313 45.4691 60.7987 45.6997 62.217 45.9302C62.5193 45.9794 62.8132 46.0282 63.1002 46.0758ZM63.9476 51.9099C63.3176 51.816 62.694 51.7122 62.0975 51.613C61.8304 51.5685 61.5687 51.525 61.3144 51.4837C59.9192 51.2569 58.6729 51.0824 57.5159 51.0513C55.2851 50.9914 53.7433 51.4602 52.5152 52.9335C51.6727 53.9443 50.5858 55.6607 49.6757 57.5409C48.7429 59.4679 48.1682 61.2147 48.0772 62.3172C48.062 62.5021 48.1266 63.0106 49.2459 63.8979C50.3142 64.7448 51.7153 65.4315 53.0109 66.0659C57.2608 68.1468 61.9469 69.8326 66.3512 70.1961C68.6166 70.383 70.1717 69.4641 71.3468 67.8558C72.6113 66.1251 73.3787 63.6144 73.5874 61.0854C73.6293 60.5775 73.7137 60.0278 73.78 59.5962C73.7948 59.4998 73.8087 59.4092 73.8211 59.3264C73.8997 58.7977 73.9397 58.4355 73.9389 58.1487C73.9388 58.1039 73.9376 58.0655 73.9358 58.0328C73.0956 57.5908 72.1648 57.1261 71.1966 56.6427C69.186 55.6389 67.014 54.5545 65.1561 53.4256C64.563 53.0653 64.1506 52.5206 63.9476 51.9099Z" fill="#343A40"/>
<path fill-rule="evenodd" clip-rule="evenodd" d="M100.645 59.1018C100.538 60.6518 99.1954 61.8221 97.6454 61.7156C96.874 61.6626 96.1113 61.6014 95.3582 61.5409C92.3486 61.2995 89.4925 61.0703 86.8499 61.4267C83.7579 61.8437 81.4879 63.0038 80.0906 65.737C79.1041 67.6667 79.0357 69.1764 79.4105 70.3954C79.8023 71.6695 80.8043 73.0303 82.6942 74.3627C85.1497 76.0937 89.976 78.6179 94.1948 79.4263C96.322 79.834 97.8837 79.7239 98.8649 79.2767C99.6185 78.9332 100.384 78.2421 100.668 76.3074C100.898 74.7371 101.109 72.5411 100.989 70.4495C100.861 68.2349 100.388 66.7141 99.7545 65.9664C98.75 64.7812 98.8965 63.006 100.082 62.0015C101.267 60.9969 103.042 61.1434 104.047 62.3286C105.914 64.5321 106.461 67.6274 106.606 70.125C106.757 72.7456 106.493 75.3579 106.235 77.123C105.719 80.6405 103.956 83.1394 101.198 84.3963C98.668 85.5495 95.7362 85.4504 93.1359 84.9521C87.8999 83.9487 82.3359 80.994 79.4524 78.9611C76.8945 77.1579 74.8994 74.8678 74.0327 72.049C73.149 69.1751 73.5607 66.1499 75.081 63.176C77.5806 58.2864 81.8375 56.4255 86.0978 55.8509C89.4058 55.4047 93.0421 55.7023 96.0863 55.9514C96.7676 56.0072 97.4193 56.0605 98.031 56.1025C99.581 56.209 100.751 57.5518 100.645 59.1018Z" fill="#343A40"/>
<path fill-rule="evenodd" clip-rule="evenodd" d="M88.8963 65.7544C87.9103 65.2756 86.6915 65.4004 85.8144 66.1673C84.6447 67.1899 84.5256 68.9671 85.5482 70.1368C85.6292 70.2294 85.7174 70.3315 85.8086 70.4371C86.0319 70.6955 86.2731 70.9746 86.4702 71.1866C86.6207 71.3484 86.8147 71.5477 87.0344 71.7345C87.2267 71.8981 87.6045 72.1978 88.1286 72.3957C88.7252 72.6209 89.6774 72.7629 90.6503 72.2468C91.5046 71.7937 91.8972 71.0751 92.0613 70.7082C92.3717 70.0143 92.455 69.2146 92.4988 68.6839C92.6266 67.1355 91.475 65.7767 89.9266 65.6489C89.5687 65.6194 89.221 65.6582 88.8963 65.7544ZM86.8417 68.6433C86.8399 68.6521 86.8389 68.6561 86.8388 68.656C86.8388 68.6559 86.8396 68.6515 86.8417 68.6433Z" fill="#343A40"/>
<path fill-rule="evenodd" clip-rule="evenodd" d="M66.635 58.783C66.9797 58.8418 67.1168 58.8634 67.1956 58.8699C68.744 58.9976 69.8956 60.3564 69.7678 61.9048C69.6401 63.4532 68.2813 64.6049 66.7329 64.4771C66.4213 64.4514 66.0842 64.3966 65.8348 64.3542C64.9695 65.4657 63.3893 65.7764 62.1563 65.0273L62.1511 65.0241C61.8715 64.8543 60.4554 63.9943 60.4504 62.2101C60.448 61.3596 60.7904 60.7222 61.0473 60.3569C61.2999 59.9976 61.5865 59.7338 61.7824 59.5677C62.5118 58.9495 63.3247 58.7228 63.9231 58.6368C64.521 58.5508 65.0844 58.5793 65.5057 58.6208C65.9288 58.6626 66.3375 58.7323 66.624 58.7811L66.635 58.783Z" fill="#343A40"/>
<path fill-rule="evenodd" clip-rule="evenodd" d="M62.0645 13.0182C62.6427 14.4603 61.9424 16.098 60.5003 16.6762C57.7875 17.7639 55.7633 18.7298 54.3383 19.9941C53.0479 21.1389 52.1742 22.597 51.9776 24.9799C51.7286 27.9969 52.5238 30.8185 53.7961 33.9919C54.3743 35.434 53.674 37.0718 52.2319 37.6499C50.7899 38.2281 49.1521 37.5278 48.5739 36.0857C47.1983 32.6546 46.0128 28.8496 46.3703 24.5172C46.6871 20.6789 48.2399 17.8831 50.6044 15.7854C52.8342 13.8071 55.6931 12.5419 58.4065 11.454C59.8486 10.8758 61.4863 11.5762 62.0645 13.0182Z" fill="#343A40"/>
<path fill-rule="evenodd" clip-rule="evenodd" d="M121.755 74.2272C121.411 74.4078 121.003 74.6218 120.744 74.7334C119.318 75.3493 117.662 74.6923 117.046 73.266C116.431 71.8396 117.087 70.184 118.514 69.5681C118.514 69.5682 118.514 69.568 118.515 69.5674C118.526 69.5624 118.596 69.529 118.775 69.4363C118.856 69.3943 118.945 69.3477 119.047 69.2943L119.069 69.2826C119.178 69.2253 119.3 69.1619 119.428 69.0953C119.936 68.832 120.599 68.4976 121.29 68.202C121.951 67.9196 122.791 67.6047 123.634 67.4631C124.27 67.356 125.979 67.1542 127.274 68.4476C127.855 69.0271 128.303 69.6786 128.594 70.1013C128.622 70.1418 128.648 70.1802 128.673 70.2162C129.011 70.7028 129.189 70.9306 129.372 71.0954C131.315 72.8462 131.859 74.9982 132.12 76.8202C132.395 78.7382 132.626 81.3124 132.298 83.8258C131.975 86.3055 131.044 89.1744 128.577 91.0871C126.789 92.4738 124.622 92.988 122.826 93.2527C121.903 93.3888 120.978 93.4712 120.15 93.5418C120.078 93.548 120.007 93.554 119.937 93.56C119.168 93.6253 118.499 93.6823 117.878 93.7646C114.741 94.1802 111.716 93.3526 109.349 92.7048C108.908 92.5841 108.49 92.4697 108.099 92.3708C106.592 91.9902 105.68 90.4605 106.06 88.9542C106.441 87.4479 107.971 86.5353 109.477 86.9159C110.065 87.0645 110.615 87.2112 111.135 87.3499C113.483 87.9764 115.224 88.4408 117.139 88.1871C117.899 88.0863 118.702 88.0182 119.442 87.9554C119.519 87.9489 119.596 87.9424 119.671 87.9359C120.504 87.8649 121.273 87.7947 122.005 87.6866C123.521 87.4631 124.508 87.1225 125.129 86.641C125.913 86.033 126.484 84.9 126.719 83.0978C126.95 81.3292 126.797 79.3415 126.55 77.6185C126.356 76.2639 126.087 75.709 125.606 75.2751C124.883 74.6236 124.378 73.895 124.049 73.4207C123.997 73.3459 123.949 73.2768 123.904 73.2126C123.784 73.2582 123.649 73.3122 123.502 73.3753C123.006 73.5871 122.492 73.8444 122.017 74.0906C121.937 74.1319 121.849 74.1783 121.755 74.2272ZM124.601 73.0068C124.601 73.0069 124.598 73.0073 124.591 73.0078C124.598 73.0069 124.601 73.0067 124.601 73.0068Z" fill="#343A40"/>
<path fill-rule="evenodd" clip-rule="evenodd" d="M69.9634 75.5612C69.4711 74.9137 68.7032 74.4838 67.8269 74.4515C64.8834 74.3428 61.7429 75.0354 59.3695 77.7615C59.0166 78.1669 58.4284 78.902 58.2372 79.8639C58.1238 80.4343 58.1278 81.2115 58.543 81.985C58.9507 82.7446 59.5728 83.1603 60.0481 83.3731C60.8681 83.7404 61.7 83.7111 62.0829 83.6877C62.5763 83.6575 63.0814 83.572 63.528 83.4787C65.0757 83.1554 67.5992 82.3042 67.4511 82.3446C67.9632 82.2049 68.6324 81.9485 69.1781 81.7395C69.2717 81.7036 69.3616 81.6691 69.4465 81.6369C69.4382 81.7076 69.4309 81.7795 69.4249 81.8524C69.3605 82.6322 69.6244 83.775 70.7067 84.4835C71.501 85.0034 72.2863 84.9619 72.5056 84.9467C73.0312 84.9102 73.463 84.7359 73.5959 84.6822L73.6013 84.68C73.9859 84.5249 74.3947 84.3031 74.6996 84.1291C74.8649 84.0348 75.0449 83.9283 75.2259 83.8177C75.4203 84.1832 75.8069 84.8262 76.4722 85.3129C76.7563 85.5207 77.1385 85.7343 77.6097 85.8575C77.6131 85.8678 77.6164 85.8781 77.6198 85.8883C77.7091 86.1572 77.845 86.5137 78.0547 86.8741C78.2546 87.2177 78.6251 87.7457 79.2629 88.1418C79.9895 88.5932 80.8541 88.7411 81.6985 88.555C82.3296 88.4159 82.8267 88.1189 83.1848 87.8439C83.4444 87.9022 83.7158 87.9428 84.0012 87.9663C85.5496 88.0941 86.9084 86.9424 87.0362 85.3941C87.1629 83.8576 86.03 82.5078 84.4996 82.3623C84.3862 82.2959 84.1391 82.1601 83.845 82.0603C83.3937 81.9071 82.8858 81.8463 82.3514 81.9268C82.3141 81.8414 82.2726 81.7537 82.2263 81.6657L82.2205 81.6547C82.1138 81.4518 81.8017 80.8578 81.2195 80.4039C80.8822 80.1409 80.394 79.8752 79.7727 79.792C79.6762 79.4137 79.5767 79.0403 79.48 78.761C79.4125 78.5659 79.2286 78.0402 78.8214 77.5558C78.5863 77.2762 78.2131 76.9318 77.6676 76.704C77.0975 76.4659 76.5265 76.4334 76.0355 76.5131C75.5879 76.5859 75.2172 76.7517 74.9499 76.9051C74.601 76.4217 74.1426 76.0377 73.6128 75.7737C72.8554 75.3962 72.0994 75.334 71.5653 75.3428C71.0096 75.3521 70.4761 75.4434 70.0243 75.5471C70.004 75.5517 69.9838 75.5564 69.9634 75.5612ZM80.2095 81.2027C80.2093 81.2035 80.2025 81.1932 80.19 81.1693C80.2035 81.1899 80.2098 81.2019 80.2095 81.2027ZM82.973 84.1531C82.973 84.1531 82.9723 84.1516 82.9711 84.1485C82.9724 84.1515 82.973 84.1531 82.973 84.1531ZM71.6589 80.9684C71.6675 80.9682 71.6655 80.9687 71.6544 80.9685C71.6562 80.9684 71.6576 80.9684 71.6589 80.9684ZM70.0454 79.209C70.046 79.1995 70.0467 79.1945 70.0469 79.1944C70.0471 79.1943 70.0468 79.199 70.0454 79.209ZM61.7218 78.0728C61.6853 78.0746 61.669 78.0737 61.67 78.0728C61.6709 78.072 61.6891 78.0711 61.7218 78.0728ZM63.512 81.5838C63.5109 81.584 63.5188 81.5714 63.539 81.5452C63.5232 81.5705 63.5131 81.5836 63.512 81.5838Z" fill="#343A40"/>
<path fill-rule="evenodd" clip-rule="evenodd" d="M63.858 86.1536C65.2746 85.5156 66.9402 86.1469 67.5781 87.5635C67.8916 88.2597 68.5503 89.0384 69.3331 89.3428C69.8882 89.5586 71.1013 89.7763 73.2625 88.1434C74.5021 87.2068 76.2663 87.4525 77.2029 88.6921C78.1395 89.9317 77.8938 91.6959 76.6542 92.6325C73.3277 95.1458 70.0825 95.6709 67.294 94.5865C64.7332 93.5907 63.1631 91.4616 62.448 89.8737C61.8101 88.4571 62.4413 86.7915 63.858 86.1536Z" fill="#343A40"/>
<path fill-rule="evenodd" clip-rule="evenodd" d="M50.4885 87.3808C50.4602 86.3894 49.9076 85.4431 48.9634 84.9571C47.582 84.246 45.8857 84.7894 45.1747 86.1708C45.1752 86.1698 45.1754 86.1693 45.1754 86.1693C45.1753 86.1693 45.1585 86.2002 45.1125 86.2718C45.0631 86.3485 44.9985 86.4437 44.9131 86.566C44.8675 86.6314 44.8087 86.7144 44.743 86.8071C44.604 87.0034 44.4339 87.2435 44.2919 87.4525C44.0676 87.7829 43.7994 88.198 43.5741 88.642C43.3681 89.048 43.0789 89.7033 43.0149 90.4787C42.9033 91.8317 43.7199 92.7419 44.3702 93.1378C44.8775 93.4467 45.3523 93.5159 45.5004 93.536C45.8652 93.5856 46.1819 93.5588 46.2939 93.549C46.591 93.523 46.9016 93.4665 47.1101 93.4256C47.1965 93.4086 47.2817 93.3911 47.3629 93.3738C47.3387 93.4371 47.3142 93.5017 47.2893 93.5675C47.081 94.1195 46.8626 94.738 46.701 95.3491C46.5484 95.9257 46.3918 96.6899 46.4339 97.4801C46.4768 98.2839 46.7632 99.5516 47.9554 100.417C49.0698 101.225 50.3323 101.2 51.1716 101.067C51.9837 100.939 52.7247 100.805 53.4298 100.678C53.9011 100.593 54.3564 100.511 54.8062 100.436C54.7949 100.511 54.7805 100.598 54.7622 100.71C54.7477 100.798 54.7307 100.9 54.711 101.024C54.6591 101.347 54.5602 101.967 54.5989 102.595C54.6356 103.19 54.8458 104.55 56.1596 105.403C57.3638 106.185 58.659 105.973 59.3422 105.799C60.0145 105.627 60.7106 105.295 61.2036 105.051C61.4688 104.92 61.7432 104.779 62.0005 104.647L62.0307 104.631C62.1517 104.569 62.2697 104.508 62.3857 104.449C62.4081 104.533 62.4432 104.654 62.4933 104.786C62.6679 105.247 63.0045 106.081 63.6803 106.709C64.0925 107.092 64.6953 107.46 65.4793 107.558C66.2355 107.653 66.8585 107.457 67.2614 107.271C67.8883 106.981 68.3949 106.503 68.5948 106.314C68.6064 106.303 68.6169 106.293 68.6264 106.285C68.7024 106.213 68.7717 106.147 68.8375 106.085C69.0313 105.901 69.1937 105.747 69.4019 105.571C69.4028 105.57 69.4036 105.569 69.4045 105.569C69.5842 105.769 69.849 106.054 70.165 106.318C70.5419 106.632 71.1067 107.016 71.8643 107.212C72.6671 107.42 73.4836 107.365 74.2499 107.094C75.9241 106.501 77.4705 105.615 78.7977 104.825C78.94 104.944 79.0986 105.059 79.275 105.166C80.1889 105.722 81.1001 105.669 81.5926 105.585C82.0382 105.51 82.4165 105.362 82.6571 105.257C82.7732 105.3 82.9146 105.349 83.0729 105.392C83.2566 105.442 83.4975 105.495 83.7772 105.518C85.3256 105.646 86.6844 104.494 86.8121 102.946C86.9314 101.501 85.9362 100.221 84.5441 99.9526C84.5322 99.9474 84.519 99.9415 84.5031 99.9345C84.4607 99.9158 84.3997 99.8888 84.2979 99.8448C84.1431 99.778 83.8253 99.6419 83.4587 99.5492C83.141 99.4689 82.5259 99.3503 81.8033 99.5173C81.434 99.1452 80.8831 98.752 80.1038 98.5924C78.9104 98.3482 77.9219 98.8121 77.3865 99.1209C76.9132 99.3939 76.478 99.6529 76.0678 99.8971C75.0441 100.506 74.1759 101.023 73.2583 101.434C73.1533 101.318 73.0244 101.178 72.8788 101.035C72.476 100.639 71.9593 100.159 71.3664 99.819C70.6527 99.4101 69.6882 99.1258 68.5893 99.4076C68.0178 99.5542 67.5479 99.8277 67.2113 100.065C67.1869 100.001 67.16 99.9343 67.1306 99.8676C67.0705 99.7317 66.9505 99.48 66.7469 99.2121C66.5886 99.0038 66.0828 98.3835 65.1457 98.1467C63.9961 97.8562 62.9037 98.1526 62.3047 98.3473C61.7489 98.5279 61.1922 98.7712 60.6956 99.0076C60.7095 98.8563 60.7196 98.7 60.7238 98.5427C60.7364 98.0658 60.7219 97.0332 60.103 96.0771C59.7512 95.5335 59.2317 95.0603 58.5511 94.7724C57.9 94.497 57.2604 94.4576 56.735 94.505C55.411 94.6243 54.0264 94.8558 52.7349 95.0848C52.7779 94.9754 52.823 94.8614 52.8694 94.7441C53.1665 93.9931 53.5168 93.1077 53.7161 92.4329C53.8458 91.9934 54.0651 91.1812 53.9745 90.3339C53.9243 89.865 53.7533 89.1269 53.165 88.4662C52.5275 87.7501 51.7067 87.4652 51.0169 87.4083C50.8419 87.3939 50.6654 87.385 50.4885 87.3808ZM50.2452 95.5158C50.2455 95.5154 50.2538 95.5143 50.2692 95.5136C50.2526 95.5158 50.2449 95.5161 50.2452 95.5158ZM57.9298 100.352C57.9298 100.352 57.9323 100.351 57.9371 100.351C57.9321 100.352 57.9297 100.352 57.9298 100.352ZM64.6057 102.336C64.6003 102.34 64.6017 102.339 64.6096 102.333C64.6081 102.334 64.6068 102.335 64.6057 102.336ZM67.8368 103.06C67.8368 103.06 67.8347 103.052 67.8308 103.033C67.8348 103.05 67.8368 103.059 67.8368 103.06ZM82.6775 100.807C82.6767 100.805 82.6758 100.804 82.675 100.803C82.6785 100.808 82.6793 100.81 82.6775 100.807ZM84.6199 99.984C84.6183 99.9833 84.6166 99.9827 84.615 99.9821C84.6364 99.9892 84.6391 99.9914 84.6199 99.984ZM80.2032 103.991C80.2032 103.992 80.2016 103.992 80.1985 103.994C80.2016 103.992 80.2031 103.991 80.2032 103.991ZM64.2557 103.642C64.2554 103.643 64.2463 103.644 64.2294 103.646C64.2474 103.643 64.2559 103.642 64.2557 103.642ZM61.9283 101.997C61.9261 101.99 61.9251 101.986 61.9251 101.986C61.9252 101.986 61.9263 101.99 61.9283 101.997ZM55.0996 98.374C55.0996 98.374 55.0997 98.3754 55.0997 98.3785C55.0996 98.3755 55.0996 98.374 55.0996 98.374ZM48.5564 91.2643C48.5561 91.2644 48.5582 91.2586 48.5634 91.2467C48.5593 91.2582 48.5567 91.2642 48.5564 91.2643Z" fill="#343A40"/>
<path fill-rule="evenodd" clip-rule="evenodd" d="M142.201 30.876C143.524 30.0616 145.256 30.4741 146.071 31.7973C149.564 37.4733 151.834 42.8834 151.238 50.1038C150.763 55.8632 150.117 61.975 148.6 67.8036C148.07 69.8407 147.331 71.4232 146.146 72.801C145.028 74.1002 143.63 75.0692 142.169 76.0404C141.583 76.4302 140.85 76.7505 140.366 76.9622L140.265 77.0063C140.009 77.1179 139.787 77.2151 139.59 77.3048C139.572 78.0805 139.235 78.8453 138.597 79.3865C137.412 80.391 135.636 80.2445 134.632 79.0593C134.225 78.5796 133.827 77.9288 133.682 77.108C133.528 76.2407 133.702 75.4346 134.044 74.775C134.629 73.6478 135.675 73.0112 136.214 72.7081C136.795 72.3811 137.453 72.0942 137.937 71.8832C137.983 71.8632 138.028 71.8438 138.07 71.8252C138.675 71.5605 138.942 71.4295 139.054 71.3551C140.549 70.3614 141.33 69.7717 141.88 69.1321C142.363 68.5711 142.779 67.8348 143.155 66.387C144.542 61.0586 145.159 55.3576 145.631 49.6411C146.088 44.1017 144.46 39.914 141.279 34.7462C140.465 33.423 140.877 31.6903 142.201 30.876Z" fill="#343A40"/>
<path fill-rule="evenodd" clip-rule="evenodd" d="M97.5981 101.423C99.1465 101.551 100.298 102.91 100.17 104.458C100.061 105.79 100.122 107.183 100.197 108.809L100.199 108.855C100.27 110.405 100.351 112.168 100.204 113.949C100.169 114.381 100.142 114.877 100.113 115.414C100.015 117.216 99.8918 119.494 99.3249 121.468C99.1469 122.087 99.0686 122.622 98.9675 123.313C98.9038 123.748 98.8311 124.245 98.7188 124.864C98.4709 126.229 98.0353 127.965 96.8236 129.519C94.8721 132.021 91.6656 132.786 89.0088 132.678C86.3267 132.569 83.3164 131.551 81.3939 129.367C80.638 128.509 79.9385 127.565 79.5138 126.386C79.0803 125.182 79.0212 123.984 79.1236 122.743C79.3129 120.449 78.5484 118.055 77.6399 115.211C77.4972 114.765 77.3511 114.307 77.2045 113.837C76.742 112.354 77.5694 110.776 79.0526 110.314C80.5358 109.851 82.1132 110.679 82.5757 112.162C82.6919 112.535 82.8208 112.931 82.9561 113.347C83.8473 116.087 85.0206 119.694 84.7308 123.205C84.6677 123.97 84.7394 124.291 84.8072 124.479C84.8837 124.692 85.0561 125.013 85.6166 125.649C86.2371 126.354 87.5956 126.99 89.237 127.057C90.9039 127.124 91.9758 126.586 92.3869 126.059C92.7486 125.595 92.9845 124.953 93.1829 123.859C93.2257 123.623 93.2716 123.319 93.3236 122.975C93.4604 122.068 93.6397 120.88 93.9173 119.914C94.2931 118.606 94.3665 117.277 94.4557 115.66C94.4926 114.991 94.5323 114.273 94.5971 113.487C94.711 112.107 94.6508 110.685 94.5764 109.067C94.5747 109.031 94.573 108.995 94.5714 108.958C94.501 107.431 94.4217 105.71 94.5631 103.995C94.6909 102.447 96.0497 101.295 97.5981 101.423Z" fill="#343A40"/>
<path fill-rule="evenodd" clip-rule="evenodd" d="M93.9193 124.985C95.0245 123.893 96.8057 123.904 97.8976 125.009C99.9984 127.135 102.283 129.244 104.662 131.432C104.747 131.51 104.832 131.589 104.918 131.667C107.201 133.767 109.562 135.939 111.832 138.197C116.534 142.876 121.016 148.09 123.903 154.275C124.518 155.59 125.063 156.838 125.591 158.044C126.567 160.277 127.482 162.369 128.656 164.49C129.409 165.849 128.917 167.561 127.558 168.313C126.198 169.066 124.486 168.574 123.734 167.215C122.44 164.878 121.334 162.355 120.288 159.968C119.784 158.82 119.295 157.704 118.805 156.655C116.332 151.357 112.395 146.695 107.864 142.186C105.674 140.007 103.385 137.902 101.08 135.782C101.004 135.712 100.929 135.642 100.853 135.573C98.4877 133.397 96.1053 131.2 93.8954 128.964C92.8034 127.858 92.8141 126.077 93.9193 124.985Z" fill="#343A40"/>
<path fill-rule="evenodd" clip-rule="evenodd" d="M79.8056 124.584C80.7474 125.819 80.5092 127.585 79.2735 128.526C68.9051 136.429 59.0743 146.935 58.0449 159.409C57.9171 160.958 56.5583 162.109 55.0099 161.982C53.4615 161.854 52.3099 160.495 52.4377 158.947C53.6788 143.907 65.3067 132.098 75.8629 124.052C77.0986 123.11 78.8638 123.348 79.8056 124.584Z" fill="#343A40"/>
<path fill-rule="evenodd" clip-rule="evenodd" d="M132.839 52.5223C134.388 52.65 135.539 54.0088 135.411 55.5572C135.183 58.3238 134.834 61.0009 134.466 63.6258C134.266 65.0512 133.527 66.2784 133.115 66.9636C133.086 67.012 133.058 67.0576 133.033 67.1005C132.789 67.5086 132.639 67.7689 132.533 68.0005C132.453 68.1739 132.438 68.2514 132.436 68.2604C132.305 69.8055 130.947 70.9537 129.401 70.8261C127.853 70.6984 126.701 69.3396 126.829 67.7912C126.952 66.2971 127.721 65.0176 128.132 64.3322C128.156 64.2923 128.179 64.2544 128.201 64.2186C128.743 63.309 128.868 63.0277 128.894 62.844C129.258 60.247 129.589 57.6973 129.804 55.0945C129.932 53.5461 131.291 52.3945 132.839 52.5223Z" fill="#343A40"/>
<path fill-rule="evenodd" clip-rule="evenodd" d="M64.4202 138.774C65.9699 138.884 67.1369 140.23 67.0268 141.779C66.7325 145.919 67.0801 150.313 67.6507 154.606C67.7074 155.033 67.7537 155.502 67.7942 155.911C67.8099 156.071 67.8248 156.221 67.839 156.356C67.8957 156.895 67.9536 157.328 68.0366 157.702C68.098 157.978 68.1178 158.248 68.1256 158.355L68.1258 158.358C68.1367 158.506 68.1448 158.671 68.1515 158.807L68.1517 158.812C68.1601 158.982 68.1677 159.138 68.1768 159.282C68.3095 159.465 68.422 159.667 68.5101 159.887C69.0882 161.329 68.3879 162.966 66.9458 163.545C65.9729 163.935 64.8446 163.809 63.9714 163.128C63.3203 162.62 63.0439 161.979 62.9402 161.714C62.7108 161.127 62.6377 160.498 62.6041 160.164C62.5663 159.788 62.5475 159.401 62.5345 159.135C62.5336 159.117 62.5328 159.1 62.532 159.083C62.5237 158.915 62.5175 158.824 62.5153 158.788C62.3788 158.137 62.3015 157.496 62.2436 156.945C62.2209 156.729 62.2017 156.535 62.1838 156.353C62.1481 155.99 62.1172 155.677 62.0734 155.347C61.4814 150.893 61.0813 146.07 61.4146 141.381C61.5248 139.831 62.8704 138.664 64.4202 138.774Z" fill="#343A40"/>
<path fill-rule="evenodd" clip-rule="evenodd" d="M75.1413 128.746C76.6947 128.772 77.9328 130.052 77.9066 131.606C77.8807 133.143 78.1897 134.587 78.5653 136.343C78.7036 136.989 78.8509 137.678 78.9938 138.429C79.573 141.471 80.0818 144.54 80.45 147.659C80.5697 148.673 80.7368 149.683 80.9164 150.769C80.9548 151.002 80.9938 151.238 81.0331 151.478C81.2496 152.803 81.4678 154.229 81.5702 155.682C81.5937 156.017 81.6127 156.325 81.6306 156.616C81.6841 157.486 81.7276 158.192 81.853 158.926C81.8874 159.127 81.9424 159.53 81.9884 159.867C81.9999 159.951 82.0109 160.032 82.0208 160.103C82.1855 160.503 82.2604 160.946 82.2225 161.406C82.2159 161.485 82.201 161.647 82.162 161.834C82.1436 161.922 82.1021 162.105 82.0161 162.322L82.0137 162.328C81.962 162.458 81.722 163.064 81.0853 163.543C80.696 163.836 80.1276 164.101 79.4238 164.109C78.7371 164.118 78.1972 163.878 77.8501 163.652C77.2641 163.27 76.9878 162.774 76.9241 162.66L76.9218 162.656C76.752 162.352 76.6737 162.075 76.6553 162.01L76.6537 162.004C76.569 161.707 76.5139 161.335 76.4878 161.158L76.4862 161.147C76.4432 160.856 76.4112 160.616 76.3843 160.413C76.3553 160.194 76.3321 160.02 76.3072 159.874C76.1252 158.81 76.0576 157.693 76.0015 156.764C75.9868 156.521 75.9728 156.291 75.9578 156.078C75.8749 154.901 75.6941 153.693 75.4804 152.385C75.4453 152.17 75.409 151.951 75.3722 151.729C75.1918 150.639 74.999 149.475 74.8625 148.318C74.5144 145.37 74.0297 142.438 73.4668 139.481C73.3804 139.027 73.2727 138.528 73.1576 137.994C72.7472 136.092 72.2433 133.755 72.2811 131.511C72.3073 129.958 73.5878 128.72 75.1413 128.746ZM76.6163 160.931C76.6157 160.937 76.6154 160.941 76.6153 160.943L76.6153 160.943C76.6156 160.939 76.616 160.935 76.6163 160.931Z" fill="#343A40"/>
<path fill-rule="evenodd" clip-rule="evenodd" d="M89.9317 130.181C91.4841 130.242 92.6937 131.549 92.6333 133.102C92.5413 135.467 92.8996 137.925 93.4129 140.587C93.5479 141.286 93.6966 142.013 93.8488 142.756C94.2524 144.728 94.6803 146.818 94.939 148.839C95.0073 149.373 95.0796 149.918 95.153 150.471C95.4531 152.733 95.7721 155.137 95.9185 157.53C96.3436 157.571 96.7658 157.71 97.1513 157.954C98.4636 158.785 98.8533 160.523 98.0216 161.836C98.0334 161.817 98.0125 161.859 97.8091 162.215C97.6594 162.476 97.4548 162.828 97.2365 163.171C97.0422 163.477 96.7463 163.922 96.414 164.287C96.292 164.421 95.9171 164.83 95.3409 165.107C95.0314 165.256 94.4047 165.492 93.6066 165.367C92.6934 165.223 92.0316 164.685 91.6489 164.117C91.2777 163.565 91.1733 163.026 91.137 162.724C91.1272 162.642 91.1209 162.564 91.117 162.491C90.6679 161.323 90.3934 159.954 90.3492 158.801C90.2554 156.352 89.9292 153.888 89.5872 151.303C89.5109 150.727 89.4337 150.144 89.3582 149.554C89.1279 147.754 88.7657 145.986 88.3785 144.095C88.2169 143.305 88.051 142.495 87.8884 141.652C87.3568 138.895 86.8932 135.917 87.0113 132.883C87.0717 131.33 88.3792 130.121 89.9317 130.181Z" fill="#343A40"/>
<path fill-rule="evenodd" clip-rule="evenodd" d="M101.859 133.624C103.401 133.433 104.806 134.528 104.997 136.07C105.741 142.064 107.08 147.704 108.669 153.662C108.933 154.651 109.29 155.631 109.702 156.723C109.748 156.845 109.794 156.968 109.842 157.093C110.206 158.053 110.607 159.113 110.942 160.204C111.034 160.501 111.118 160.782 111.2 161.055C111.212 161.093 111.224 161.132 111.235 161.171C111.709 161.402 112.124 161.77 112.414 162.257C113.21 163.591 112.774 165.318 111.44 166.114C111.248 166.228 111.133 166.31 111.027 166.385L111.018 166.392C111.017 166.392 111.016 166.393 111.014 166.395C110.984 166.416 110.81 166.542 110.629 166.644C110.531 166.699 110.262 166.848 109.89 166.941C109.489 167.042 108.741 167.133 107.935 166.736C107.148 166.349 106.773 165.727 106.618 165.402C106.468 165.088 106.409 164.815 106.39 164.724C106.366 164.612 106.352 164.515 106.348 164.481L106.347 164.479L106.335 164.391L106.335 164.389C106.33 164.357 106.326 164.331 106.307 164.27C106.13 163.729 105.951 163.137 105.786 162.587C105.709 162.331 105.634 162.085 105.564 161.857C105.285 160.949 104.951 160.066 104.58 159.087C104.534 158.963 104.486 158.837 104.438 158.71C104.024 157.613 103.576 156.4 103.233 155.112C101.622 149.075 100.205 143.141 99.4138 136.762C99.2226 135.22 100.318 133.815 101.859 133.624Z" fill="#343A40"/>
<path fill-rule="evenodd" clip-rule="evenodd" d="M101.975 140.731C100.237 140.564 98.6599 140.413 97.0412 140.438C90.273 140.542 83.3706 139.853 76.709 139.188C74.1918 138.936 71.7091 138.688 69.2809 138.488C67.7325 138.36 66.5808 137.001 66.7086 135.453C66.8364 133.905 68.1952 132.753 69.7436 132.881C72.3854 133.099 74.9958 133.359 77.5844 133.618C84.1282 134.271 90.5328 134.911 96.9545 134.812C98.9142 134.782 100.948 134.978 102.777 135.154C103.369 135.211 103.94 135.266 104.479 135.31C106.028 135.438 107.179 136.797 107.052 138.345C106.924 139.894 105.565 141.045 104.017 140.918C103.306 140.859 102.629 140.794 101.975 140.731Z" fill="#343A40"/>
<path fill-rule="evenodd" clip-rule="evenodd" d="M107.383 152.88C106.623 152.867 105.744 152.852 104.895 152.782C97.4182 152.165 89.9304 151.656 82.4184 151.145L82.4099 151.145C74.9075 150.635 67.3809 150.123 59.8576 149.502C58.3092 149.374 57.1575 148.016 57.2853 146.467C57.4131 144.919 58.7719 143.767 60.3203 143.895C67.7991 144.512 75.288 145.021 82.8 145.532L82.8116 145.533C90.313 146.043 97.8375 146.554 105.358 147.175C106.007 147.228 106.621 147.239 107.331 147.251C107.6 147.255 107.883 147.26 108.187 147.268C109.222 147.293 110.414 147.352 111.66 147.605C112.557 147.788 113.513 147.881 114.529 147.922C114.511 147.921 114.5 147.921 114.5 147.92C114.5 147.92 114.562 147.919 114.747 147.915C114.925 147.912 115.174 147.908 115.392 147.909C115.497 147.91 115.634 147.912 115.77 147.92C115.835 147.924 115.943 147.932 116.067 147.949L116.069 147.949C116.097 147.953 116.523 148.002 116.975 148.228C116.977 148.229 116.98 148.23 116.983 148.232C117.128 148.303 118.155 148.81 118.463 150.099C118.849 151.716 117.764 152.719 117.53 152.915C117.203 153.189 116.891 153.322 116.8 153.36C116.664 153.417 116.549 153.454 116.481 153.474C116.249 153.543 116.012 153.583 115.883 153.604C115.473 153.672 115.068 153.647 114.691 153.544C114.565 153.546 114.408 153.548 114.305 153.544C113.097 153.496 111.822 153.38 110.538 153.119C109.791 152.967 109 152.916 108.048 152.892C107.841 152.887 107.618 152.884 107.383 152.88ZM115.033 148.042C115.033 148.042 115.03 148.042 115.024 148.044C115.03 148.042 115.033 148.042 115.033 148.042Z" fill="#343A40"/>
<path fill-rule="evenodd" clip-rule="evenodd" d="M55.6514 156.185C57.1797 156.464 58.1922 157.93 57.9129 159.458C57.4897 161.773 57.3088 164.096 57.1146 166.59C57.0715 167.142 57.0278 167.703 56.9807 168.274C56.8529 169.823 55.4941 170.975 53.9457 170.847C52.3973 170.719 51.2457 169.36 51.3735 167.812C51.4156 167.301 51.4559 166.78 51.4968 166.253C51.6909 163.747 51.8978 161.075 52.3783 158.446C52.6576 156.918 54.1231 155.906 55.6514 156.185Z" fill="#343A40"/>
<path fill-rule="evenodd" clip-rule="evenodd" d="M122.739 167.93C122.515 167.938 122.089 167.955 121.766 167.929L116.694 167.51C114.784 167.352 112.853 167.297 110.832 167.241L110.8 167.24C108.814 167.184 106.739 167.125 104.657 166.954C101.666 166.707 98.6472 166.631 95.5496 166.572C95.1987 166.565 94.8464 166.559 94.4931 166.553C91.7538 166.503 88.9479 166.451 86.1462 166.286C81.9333 166.038 77.722 166.222 73.3399 166.413C73.1759 166.42 73.0116 166.427 72.8472 166.434C68.3388 166.63 63.653 166.816 58.9105 166.454C57.3613 166.335 56.2015 164.984 56.3198 163.434C56.4382 161.885 57.79 160.725 59.3392 160.844C63.699 161.177 68.0647 161.01 72.603 160.813C72.7984 160.805 72.9941 160.796 73.1902 160.788C77.4972 160.6 81.9687 160.405 86.4769 160.67C89.1567 160.828 91.8426 160.877 94.5951 160.927C94.9477 160.934 95.3013 160.94 95.6561 160.947C98.756 161.005 101.933 161.083 105.12 161.346C107.036 161.504 108.969 161.56 110.99 161.616L111.031 161.618C113.014 161.673 115.083 161.732 117.156 161.903L122.205 162.319C122.198 162.319 122.194 162.318 122.194 162.318C122.194 162.316 122.29 162.316 122.552 162.306C122.61 162.304 122.675 162.301 122.744 162.298C122.972 162.289 123.248 162.278 123.481 162.273C123.636 162.27 123.822 162.268 124.002 162.275C124.004 162.275 124.008 162.275 124.012 162.275C124.098 162.278 124.557 162.291 125.025 162.452C125.173 162.504 125.502 162.628 125.849 162.896C126.205 163.171 126.817 163.793 126.934 164.819C127.049 165.832 126.603 166.563 126.34 166.896C126.077 167.229 125.8 167.426 125.671 167.512C125.26 167.786 124.812 167.922 124.684 167.961C124.678 167.963 124.672 167.965 124.667 167.966C124.061 168.152 123.44 168.124 122.887 167.924C122.849 167.925 122.811 167.927 122.772 167.928L122.739 167.93ZM123.071 162.569C123.072 162.569 123.056 162.575 123.016 162.587C123.05 162.575 123.069 162.569 123.071 162.569ZM123.787 167.897C123.845 167.899 123.83 167.902 123.766 167.897C123.776 167.897 123.782 167.897 123.787 167.897Z" fill="#343A40"/>
<path fill-rule="evenodd" clip-rule="evenodd" d="M102.161 71.5323C102.289 69.9839 103.648 68.8322 105.196 68.96L117.688 69.9908C119.236 70.1186 120.388 71.4774 120.26 73.0258C120.132 74.5741 118.774 75.7258 117.225 75.598L104.733 74.5672C103.185 74.4395 102.033 73.0807 102.161 71.5323Z" fill="#343A40"/>
<path fill-rule="evenodd" clip-rule="evenodd" d="M45.4104 54.636C44.6205 54.5708 43.8252 54.607 42.7928 54.666C41.2417 54.7547 39.9124 53.5691 39.8237 52.018C39.735 50.4669 40.9205 49.1376 42.4717 49.0489C43.4754 48.9915 44.6396 48.927 45.8731 49.0288C47.4215 49.1565 48.5732 50.5154 48.4454 52.0637C48.3176 53.6121 46.9588 54.7638 45.4104 54.636Z" fill="#343A40"/>
<path fill-rule="evenodd" clip-rule="evenodd" d="M139.7 121.584C139.472 122.375 139.925 123.203 140.716 123.437C141.186 123.576 141.638 123.598 141.92 123.612C141.933 123.613 141.946 123.614 141.958 123.614C142.372 123.635 142.912 123.653 143.477 123.558C143.876 123.492 144.29 123.392 144.697 123.248C145.22 123.063 146.259 122.685 146.872 121.706C146.872 121.705 146.873 121.704 146.874 121.702C146.899 121.665 147.102 121.363 147.204 121.027C147.267 120.819 147.323 120.514 147.262 120.16C147.196 119.783 147.015 119.454 146.76 119.197C146.565 119 145.999 118.444 145.187 118.339C144.835 118.294 144.506 118.308 144.209 118.35C144.157 118.201 144.085 118.03 143.985 117.863C143.746 117.461 143.274 116.969 142.497 116.874C142.35 116.855 142.01 116.815 141.646 116.859C141.329 116.898 140.564 117.053 140.126 117.813C139.799 118.379 139.723 118.954 139.696 119.353C139.684 119.529 139.68 119.706 139.677 119.842C139.677 119.859 139.676 119.876 139.676 119.892C139.672 120.05 139.669 120.155 139.66 120.246C139.633 120.525 139.654 120.77 139.667 120.908C139.67 120.94 139.673 120.967 139.675 120.99C139.684 121.09 139.686 121.112 139.686 121.14C139.685 121.214 139.69 121.39 139.697 121.537C139.698 121.552 139.699 121.568 139.7 121.584ZM141.375 119.334C141.375 119.334 141.376 119.335 141.376 119.337C141.376 119.335 141.375 119.334 141.375 119.334Z" fill="#F35D78"/>
<path fill-rule="evenodd" clip-rule="evenodd" d="M143.772 119.3C143.782 119.287 143.791 119.274 143.8 119.261C143.819 119.236 143.881 119.152 143.969 119.064L143.971 119.062C144.003 119.03 144.134 118.899 144.339 118.793C144.444 118.738 144.677 118.631 144.997 118.623C145.376 118.613 145.797 118.75 146.117 119.083C146.391 119.368 146.477 119.679 146.507 119.829C146.54 119.992 146.538 120.125 146.535 120.195C146.528 120.337 146.503 120.445 146.493 120.485C146.471 120.577 146.444 120.649 146.436 120.673C146.399 120.77 146.347 120.88 146.361 120.849C146.309 120.963 146.256 121.062 146.214 121.138C146.12 121.308 145.997 121.453 145.856 121.57C145.846 121.586 145.836 121.603 145.824 121.624C145.813 121.644 145.778 121.704 145.726 121.773C145.702 121.806 145.647 121.878 145.564 121.958C145.563 121.959 145.562 121.96 145.561 121.962C145.514 122.007 145.268 122.248 144.859 122.343C144.798 122.357 144.73 122.369 144.659 122.375C144.639 122.388 144.619 122.4 144.601 122.412C144.382 122.546 144.08 122.652 143.739 122.64C143.725 122.644 143.713 122.648 143.703 122.651C143.652 122.667 143.608 122.678 143.583 122.684C143.53 122.697 143.476 122.708 143.431 122.716C143.408 122.72 143.376 122.725 143.338 122.729C143.32 122.732 143.292 122.735 143.258 122.738C143.235 122.739 143.16 122.745 143.065 122.74C143.01 122.738 142.958 122.733 142.909 122.728C142.826 122.726 142.732 122.718 142.631 122.702C142.62 122.701 142.606 122.7 142.585 122.697C142.537 122.692 142.462 122.684 142.381 122.672C142.356 122.673 142.33 122.676 142.301 122.68C142.274 122.686 142.238 122.694 142.197 122.701C142.196 122.701 142.195 122.701 142.194 122.701C142.156 122.708 141.991 122.737 141.793 122.723L141.791 122.722C141.716 122.717 141.396 122.694 141.066 122.479C140.871 122.351 140.643 122.136 140.503 121.805C140.362 121.473 140.365 121.153 140.414 120.914C140.447 120.752 140.499 120.625 140.536 120.546C140.575 120.464 140.612 120.4 140.635 120.363C140.647 120.343 140.66 120.323 140.669 120.31L140.725 120.212C140.659 120.014 140.626 119.845 140.597 119.691C140.563 119.615 140.534 119.536 140.512 119.453C140.297 118.653 140.772 117.83 141.572 117.616C142.036 117.491 142.446 117.61 142.714 117.764C142.952 117.9 143.096 118.069 143.162 118.153C143.294 118.323 143.362 118.485 143.383 118.537C143.438 118.671 143.471 118.798 143.486 118.856C143.518 118.986 143.542 119.117 143.547 119.143C143.547 119.144 143.547 119.146 143.547 119.146C143.563 119.23 143.569 119.253 143.571 119.263L143.573 119.269C143.574 119.271 143.576 119.277 143.581 119.289C143.631 119.295 143.682 119.303 143.734 119.314C143.742 119.311 143.75 119.308 143.759 119.305C143.763 119.304 143.767 119.302 143.772 119.3ZM142.411 121.784C142.411 121.784 142.413 121.788 142.417 121.795C142.412 121.787 142.411 121.784 142.411 121.784ZM142.878 121.164C142.878 121.164 142.88 121.173 142.885 121.188C142.88 121.17 142.878 121.163 142.878 121.164ZM140.576 119.585C140.573 119.575 140.573 119.574 140.576 119.585V119.585ZM142.349 120.513C142.29 120.529 142.231 120.541 142.172 120.55C142.23 120.541 142.289 120.529 142.349 120.513ZM146.212 121.046C146.214 121.044 146.215 121.041 146.217 121.039C146.217 121.039 146.217 121.039 146.217 121.039C146.217 121.04 146.215 121.042 146.212 121.046ZM145.963 121.279C145.956 121.301 145.958 121.297 145.964 121.277L145.963 121.279Z" fill="#F35D78"/>
<path fill-rule="evenodd" clip-rule="evenodd" d="M138.355 110.005C138.083 110.151 137.817 110.368 137.522 110.674C137.278 110.928 137.096 111.146 136.886 111.398C136.731 111.584 136.561 111.788 136.339 112.038C136.309 112.071 136.23 112.16 136.116 112.249C136.061 112.293 135.943 112.381 135.773 112.454C135.618 112.521 135.25 112.649 134.791 112.527C134.266 112.389 133.964 112.021 133.825 111.737C133.734 111.553 133.698 111.385 133.683 111.276C133.394 110.971 133.101 110.668 132.805 110.361C132.761 110.315 132.721 110.274 132.684 110.238C132.732 110.391 132.804 110.568 132.907 110.778C133.003 110.975 133.11 111.17 133.236 111.399C133.251 111.427 133.267 111.455 133.282 111.484C133.42 111.736 133.581 112.031 133.722 112.341C133.759 112.422 133.817 112.517 133.944 112.696C133.959 112.717 133.976 112.741 133.994 112.766C134.105 112.922 134.272 113.155 134.413 113.404C134.412 113.402 134.412 113.402 134.414 113.405C134.416 113.409 134.423 113.42 134.435 113.441C134.451 113.468 134.473 113.503 134.498 113.545C134.514 113.57 134.531 113.598 134.549 113.626C134.585 113.607 134.623 113.588 134.661 113.568C135.308 113.236 135.83 112.943 136.263 112.586C136.679 112.244 137.061 111.876 137.389 111.493C137.921 110.869 138.231 110.407 138.355 110.005ZM132.328 115.712C132.335 115.77 132.345 115.829 132.359 115.887C132.553 116.692 133.363 117.188 134.168 116.995C134.895 116.82 135.518 116.5 135.988 116.259C136.002 116.252 136.016 116.245 136.03 116.238C136.699 115.895 137.47 115.479 138.171 114.902C138.698 114.468 139.211 113.979 139.671 113.44C140.342 112.653 141.358 111.398 141.416 109.757C141.416 109.747 141.417 109.733 141.418 109.716C141.426 109.558 141.448 109.113 141.352 108.7C141.292 108.439 141.169 108.101 140.907 107.788C140.631 107.458 140.266 107.234 139.858 107.122C139.379 106.992 138.341 106.75 137.379 107.151C136.518 107.511 135.871 108.064 135.363 108.591C135.347 108.608 135.331 108.625 135.315 108.642C135.197 108.519 135.08 108.398 134.964 108.277C134.774 108.081 134.406 107.7 133.93 107.434C133.403 107.14 132.618 106.921 131.756 107.287C131.514 107.39 131.059 107.589 130.652 107.895C130.282 108.172 129.611 108.796 129.611 109.804C129.611 110.723 129.921 111.503 130.213 112.099C130.342 112.362 130.484 112.62 130.606 112.842C130.621 112.87 130.636 112.898 130.651 112.925C130.79 113.178 130.901 113.386 130.992 113.585C131.154 113.94 131.353 114.229 131.494 114.428C131.521 114.466 131.546 114.502 131.569 114.534C131.682 114.692 131.746 114.782 131.804 114.885C131.854 114.974 132.01 115.228 132.151 115.446C132.204 115.53 132.267 115.625 132.328 115.712ZM134.099 110.043C134.097 110.044 134.096 110.046 134.094 110.048L134.095 110.047C134.096 110.046 134.097 110.044 134.099 110.043ZM132.433 110.31C132.433 110.31 132.434 110.31 132.435 110.308C132.434 110.31 132.433 110.31 132.433 110.31Z" fill="#F35D78"/>
<path fill-rule="evenodd" clip-rule="evenodd" d="M139.68 110.239C139.79 110.025 139.85 109.781 139.845 109.524C139.843 109.378 139.837 109.206 139.82 109.022C139.823 109.054 139.81 108.895 139.788 108.767C139.783 108.736 139.769 108.654 139.741 108.559C139.729 108.518 139.696 108.409 139.63 108.283C139.597 108.219 139.532 108.103 139.422 107.977C139.32 107.862 139.09 107.636 138.711 107.526C138.266 107.397 137.832 107.49 137.509 107.688C137.236 107.854 137.087 108.065 137.024 108.165C136.899 108.361 136.85 108.542 136.837 108.588L136.837 108.589C136.802 108.716 136.79 108.828 136.785 108.87C136.767 109.033 136.751 109.219 136.737 109.397C136.615 109.488 136.528 109.581 136.475 109.644C136.358 109.785 136.291 109.918 136.258 109.99C136.161 110.001 136.061 110.018 135.958 110.046C135.628 110.135 135.376 110.302 135.196 110.464C135.157 110.462 135.118 110.461 135.078 110.462C134.992 110.379 134.913 110.316 134.856 110.271C134.761 110.196 134.671 110.132 134.607 110.088C134.58 110.069 134.559 110.055 134.542 110.043C134.511 110.022 134.494 110.01 134.475 109.996C134.328 109.889 134.259 109.819 134.069 109.597C134.068 109.595 134.066 109.593 134.064 109.591C134.031 109.551 133.898 109.395 133.757 109.25C133.69 109.181 133.573 109.063 133.438 108.958C133.382 108.916 133.234 108.803 133.027 108.719C132.946 108.687 132.079 108.334 131.364 109.049C130.778 109.634 130.778 110.584 131.364 111.17C131.456 111.262 131.556 111.339 131.663 111.402C131.712 111.456 131.757 111.509 131.782 111.538L131.786 111.543C132.035 111.835 132.282 112.11 132.708 112.421C132.73 112.437 132.752 112.452 132.772 112.467C132.771 112.501 132.771 112.541 132.771 112.582V113.315C132.77 113.316 132.77 113.319 132.77 113.321C132.769 113.338 132.767 113.384 132.765 113.43C132.764 113.484 132.763 113.569 132.772 113.669C132.78 113.767 132.8 113.913 132.855 114.078C132.933 114.312 133.091 114.591 133.38 114.809C133.668 115.026 133.975 115.099 134.209 115.112C134.606 115.134 134.898 114.992 134.969 114.957C135.159 114.865 135.299 114.749 135.336 114.717L135.339 114.715C135.395 114.668 135.443 114.624 135.47 114.599C135.6 114.494 135.721 114.409 135.852 114.334C135.871 114.327 135.889 114.32 135.904 114.314C136.036 114.263 136.163 114.207 136.251 114.169C136.324 114.137 136.352 114.124 136.356 114.122C136.505 114.067 136.633 114.005 136.744 113.943C136.822 113.909 136.904 113.87 136.988 113.828C137.117 113.761 137.217 113.684 137.228 113.675C137.229 113.675 137.229 113.675 137.229 113.675C137.263 113.649 137.294 113.624 137.318 113.604C137.365 113.565 137.419 113.518 137.469 113.47C137.493 113.447 137.531 113.411 137.571 113.367C137.59 113.346 137.623 113.31 137.659 113.263L137.66 113.262C137.672 113.246 137.703 113.207 137.74 113.148C138.164 113 138.446 112.695 138.6 112.412C138.666 112.29 138.733 112.158 138.796 112.014C138.959 111.939 139.092 111.842 139.194 111.746C139.501 111.46 139.594 111.128 139.612 111.064C139.612 111.063 139.613 111.061 139.613 111.06C139.645 110.948 139.656 110.858 139.661 110.817C139.671 110.729 139.672 110.658 139.672 110.632C139.672 110.468 139.673 110.346 139.68 110.239ZM138.874 109.645C138.877 109.649 138.876 109.648 138.872 109.643C138.872 109.644 138.873 109.645 138.874 109.645ZM137.889 110.408C137.893 110.411 137.895 110.412 137.897 110.413C137.897 110.413 137.897 110.413 137.897 110.413M137.897 110.413C137.897 110.413 137.897 110.413 137.897 110.413C137.896 110.413 137.896 110.413 137.895 110.412L137.889 110.408M135.504 114.566L135.502 114.568C135.515 114.556 135.518 114.552 135.504 114.566Z" fill="#F35D78"/>
</g>
</svg>
