<svg width="300" height="240" viewBox="0 0 300 240" fill="none" xmlns="http://www.w3.org/2000/svg">
<path d="M122.558 170.333C114.222 169.217 106.785 167.973 101.11 161.458C97.2666 157.045 92.3561 152.532 90.3521 146.935C85.3425 132.942 89.8374 117.409 98.3532 105.618C109.025 90.8413 124.49 85.423 141.922 82.5891C157.471 80.0615 169.604 82.1536 182.13 91.6324C187.809 95.93 189.666 102.482 192.148 108.912C195.392 117.316 196.989 125.405 196.989 134.429C196.989 143.868 189.855 153.438 183.34 159.777C178.72 164.272 170.213 168.966 163.741 169.728C160.155 170.15 156.869 170.333 153.218 170.333C151.292 170.333 145.453 171.443 144.343 170.333" stroke="white" stroke-width="3" stroke-linecap="round"/>
<path d="M130.425 101.348C127.909 103.864 124.345 108.033 127.433 111.635C131.671 116.579 137.804 110.429 139.166 105.954C140.325 102.146 138.922 100.915 135.468 100.272C131.525 99.5387 131.011 101.367 128.61 103.769" stroke="white" stroke-width="3" stroke-linecap="round"/>
<path d="M164.919 100.742C161.816 103.845 159.069 106.189 161.59 110.727C162.676 112.68 166.017 113.453 168.079 112.71C171.193 111.589 170.97 107.261 170.97 104.676C170.97 102.027 167.473 101.522 165.524 100.742" stroke="white" stroke-width="3" stroke-linecap="round"/>
<path d="M100.17 73.5117C102.492 76.7405 106.402 80.4233 108.037 84.1015C108.517 85.1819 108.934 86.2827 109.818 87.0935C110.971 88.1501 111.492 89.7627 112.878 90.4553" stroke="white" stroke-width="3" stroke-linecap="round"/>
<path d="M142.527 68.0654V80.7731" stroke="white" stroke-width="3" stroke-linecap="round"/>
<path d="M181.861 90.4551C184.727 86.2725 187.914 82.3845 190.938 78.3525" stroke="white" stroke-width="3" stroke-linecap="round"/>
<path d="M193.359 108.609C201.365 104.575 209.34 101.241 217.565 97.7168" stroke="white" stroke-width="3" stroke-linecap="round"/>
<path d="M108.035 119.502C110.638 131.649 119.962 139.427 132.039 141.152C141.824 142.55 153.021 141.994 161.925 137.32C166.132 135.111 175.273 130.19 177.02 124.948" stroke="white" stroke-width="3" stroke-linecap="round"/>
<path d="M179.346 187.546C198.695 180.987 218.347 168.799 228.003 150.13C231.746 142.893 234.924 135.692 238.09 128.209C240.771 121.872 241.738 115.01 243.694 108.429C247.579 95.3625 244.617 80.5125 244.617 67.0908" stroke="white" stroke-width="3" stroke-linecap="round"/>
<path d="M244.617 67.0903C232.39 65.7081 217.578 63.1673 209.641 52.8493C207.968 50.6745 205.439 45.2406 210.069 45.1354C215.313 45.0162 223.456 45.8462 227.904 48.9593C228.624 49.4636 226.187 43.1271 225.959 42.4652C224.675 38.7371 222.353 33.3498 223.915 29.4439C226.288 23.5107 232.486 28.6441 234.266 32.5426C235.222 34.6375 234.913 41.3719 235.848 39.2675C238.846 32.5223 236.902 24.5541 245.178 20.6751C252.699 17.1493 253.518 27.1309 253.518 31.9822C253.518 34.4265 253.252 36.9319 252.793 39.3335C252.701 39.8101 251.671 42.8767 252.331 42.0366C255.383 38.1522 259.619 35.9288 264.166 34.2238C264.969 33.9225 273.547 30.4435 274.286 32.4767C275.731 36.4509 274.185 43.488 272.374 47.1792C271.224 49.5232 269.426 51.4624 267.759 53.4426C265.926 55.6185 273.332 52.2979 276.132 51.7944C280.161 51.0696 288.533 49.1424 289.087 55.5194C289.547 60.8089 285.655 66.9288 281.571 70.0901C273.365 76.4435 262.946 78.7242 252.924 75.9909" stroke="white" stroke-width="3" stroke-linecap="round"/>
<path d="M68.3855 164.404C64.1433 157.989 59.662 151.755 55.3642 145.383C51.3818 139.478 49.5061 133.265 47.3537 126.56C44.0904 116.393 41.7558 106.339 42.7385 95.6381C43.7595 84.5211 47.0635 73.499 50.5843 62.9365" stroke="white" stroke-width="3" stroke-linecap="round"/>
<path d="M38.7166 59.9704C34.1052 58.4612 27.8357 57.9823 24.6074 54.0367C23.8212 53.0757 16.4925 43.5286 18.8714 42.1691C21.3212 40.7693 26.0598 44.2016 27.9039 45.8613C30.4774 48.1774 29.2225 40.2377 29.2225 38.6089C29.2225 37.6839 28.2427 26.4737 31.2994 28.8512C33.7625 30.7669 36.1701 34.635 37.0683 37.554C37.2065 38.0033 37.8041 40.2892 38.1232 38.7737C38.9181 34.998 40.1334 31.0663 41.9801 27.6644C43.3041 25.2255 45.7196 23.0862 48.6062 22.7196C52.0063 22.2878 51.7708 25.1309 51.7708 27.5325C51.7708 31.2021 51.4767 34.7587 50.7159 38.3452C49.8574 42.3927 56.3932 31.4898 60.4407 30.6313C64.4573 29.7793 68.028 30.9901 66.0118 35.3783C65.6046 36.2646 60.7183 43.4566 60.7704 43.5867C61.1872 44.6288 70.9762 37.9469 72.8357 41.8725C73.8315 43.9747 74.1464 45.8325 72.4071 47.6414C71.2066 48.8899 62.2006 57.346 60.6715 55.8168" stroke="white" stroke-width="3" stroke-linecap="round"/>
<path d="M199.848 198.347C200.005 204.954 202.568 210.337 205.433 216.066C207.061 219.321 207.91 222.473 209.815 225.648" stroke="white" stroke-width="3" stroke-linecap="round"/>
<path d="M204.615 213.081C208.26 210.174 211.458 206.941 214.823 203.739C215.885 202.73 217.32 202.252 218.483 201.38" stroke="white" stroke-width="3" stroke-linecap="round"/>
<path d="M213.281 191.413C215.26 196.638 217.541 201.691 220.865 206.123C222.022 207.666 223.22 209.074 224.549 210.481C224.976 210.934 227.163 213.088 226.282 212.648" stroke="white" stroke-width="3" stroke-linecap="round"/>
<path d="M222.816 182.745C222.829 182.762 234.697 201.723 237.117 200.513" stroke="white" stroke-width="3" stroke-linecap="round"/>
<path d="M237.117 184.912C237.117 182.549 236.263 176.748 238.706 175.282C240.999 173.906 242.987 173.645 245.568 173.645C251.625 173.645 251.83 167.893 250.985 163.244" stroke="white" stroke-width="3" stroke-linecap="round"/>
<path d="M248.385 145.91C250.311 148.289 253.045 149.786 254.861 152.17C255.603 153.143 256.47 153.44 256.185 154.577" stroke="white" stroke-width="3" stroke-linecap="round"/>
<path d="M262.252 159.777C262.353 163.817 264.432 160.217 262.685 159.344" stroke="white" stroke-width="3" stroke-linecap="round"/>
</svg>
