<svg width="32" height="32" viewBox="0 0 32 32" fill="none" xmlns="http://www.w3.org/2000/svg">
<circle cx="16" cy="16" r="16" fill="#CED4DA"/>
<path d="M20 8H12C9.79086 8 8 9.79086 8 12V20C8 22.2091 9.79086 24 12 24H20C22.2091 24 24 22.2091 24 20V12C24 9.79086 22.2091 8 20 8Z" stroke="white" stroke-width="2" stroke-linecap="round" stroke-linejoin="round"/>
<path d="M19.2013 15.4962C19.3001 16.162 19.1863 16.842 18.8763 17.4395C18.5663 18.0369 18.0758 18.5214 17.4746 18.824C16.8734 19.1266 16.1921 19.2319 15.5276 19.125C14.863 19.0181 14.2491 18.7043 13.7732 18.2284C13.2973 17.7524 12.9835 17.1385 12.8766 16.474C12.7697 15.8095 12.875 15.1282 13.1776 14.5269C13.4802 13.9257 13.9647 13.4352 14.5621 13.1252C15.1596 12.8152 15.8395 12.7015 16.5053 12.8002C17.1845 12.9009 17.8132 13.2174 18.2987 13.7029C18.7842 14.1884 19.1006 14.8171 19.2013 15.4962Z" stroke="white" stroke-width="2" stroke-linecap="round" stroke-linejoin="round"/>
<path d="M20.3984 11.5996H20.4064" stroke="white" stroke-width="2" stroke-linecap="round" stroke-linejoin="round"/>
</svg>
