<svg width="120" height="120" viewBox="0 0 120 120" fill="none" xmlns="http://www.w3.org/2000/svg">
<path d="M74.1 29.4326C66.8 29.4326 66.8 31.866 59.5 31.866C52.2 31.866 52.2 29.4326 44.9 29.4326C35.1667 29.4326 23 34.2993 23 51.3326C23 78.0993 37.6 99.9993 47.3333 99.9993C54.6333 99.9993 54.6333 97.5659 59.5 97.5659C64.3667 97.5659 64.3667 99.9993 71.6667 99.9993C81.4 99.9993 96 78.0993 96 51.3326C96 34.2969 83.8333 29.4326 74.1 29.4326Z" fill="#DD2E44"/>
<path d="M61.9336 29.4326C61.9336 29.4326 69.2336 19.6992 81.4003 19.6992C91.1336 19.6992 96.0003 24.5659 96.0003 24.5659C96.0003 24.5659 86.2669 31.8659 78.9669 31.8659C71.6669 31.8659 61.9336 29.4326 61.9336 29.4326Z" fill="#77B255"/>
<path d="M59.4997 36.7334C58.1565 36.7334 57.0664 35.6432 57.0664 34.3C57.0664 25.9269 59.9864 18.2035 65.0794 13.113C66.0308 12.1616 67.5687 12.1616 68.5201 13.113C69.4715 14.0644 69.4715 15.6047 68.5201 16.5537C64.3323 20.7391 61.9331 27.2069 61.9331 34.3C61.9331 35.6432 60.8429 36.7334 59.4997 36.7334Z" fill="#662113"/>
</svg>
