<svg width="120" height="120" viewBox="0 0 120 120" fill="none" xmlns="http://www.w3.org/2000/svg">
<path d="M60.5 100C83.9721 100 103 80.9721 103 57.5C103 34.0279 83.9721 15 60.5 15C37.0279 15 18 34.0279 18 57.5C18 80.9721 37.0279 100 60.5 100Z" fill="#FFCC4D"/>
<path d="M55.7778 55.0403C54.7885 55.0403 53.8677 54.4146 53.5372 53.4253C53.0578 52.011 51.1335 47.957 48.6945 47.957C46.187 47.957 44.2367 52.2708 43.8519 53.4253C43.4387 54.6602 42.1094 55.3331 40.8651 54.9176C39.6278 54.5067 38.9597 53.168 39.3728 51.9308C39.668 51.0406 42.4517 43.2324 48.6969 43.2324C54.942 43.2324 57.7234 51.0406 58.0209 51.9308C58.4341 53.168 57.7659 54.5067 56.5287 54.9176C56.2784 55.0026 56.0258 55.0403 55.7778 55.0403ZM79.389 55.0403C78.3997 55.0403 77.4788 54.4146 77.1506 53.4253C76.6713 52.011 74.7446 47.957 72.3056 47.957C69.7981 47.957 67.8455 52.2708 67.4606 53.4253C67.0474 54.6602 65.7228 55.3331 64.4738 54.9176C63.239 54.5067 62.5684 53.168 62.9816 51.9308C63.2767 51.0406 66.0605 43.2324 72.3033 43.2324C78.546 43.2324 81.3298 51.0406 81.6249 51.9308C82.0381 53.168 81.3699 54.5067 80.1327 54.9176C79.8872 55.0026 79.6369 55.0403 79.389 55.0403ZM82.541 63.8544C82.1208 63.4742 81.4927 63.4506 81.0417 63.7859C80.9497 63.8544 71.7815 70.6331 60.5001 70.6331C49.247 70.6331 40.0481 63.8544 39.9584 63.7859C39.5074 63.4506 38.8794 63.4789 38.4591 63.8544C38.0412 64.2321 37.9467 64.8555 38.2372 65.3371C38.5417 65.8448 45.8328 77.7164 60.5001 77.7164C75.1673 77.7164 82.4608 65.8448 82.763 65.3371C83.0534 64.8531 82.9613 64.2345 82.541 63.8544Z" fill="#664500"/>
<path d="M68.1242 24.32C68.1242 24.8867 68.195 25.4344 68.3178 25.9633C69.3213 32.2037 76.2606 38.7865 81.2331 40.5951C85.1643 39.1667 90.3139 34.749 92.7978 29.8781C87.8655 24.1169 81.4196 19.6922 74.0766 17.2178C70.6955 17.8246 68.1242 20.7642 68.1242 24.32ZM50.4489 83.6571C50.5835 83.0857 50.6614 82.4907 50.6614 81.8768C50.6614 77.5489 47.1528 74.0403 42.8249 74.0403C40.197 74.0403 37.8807 75.3365 36.457 77.3199C35.0356 75.3389 32.717 74.0403 30.0891 74.0403C27.1589 74.0403 24.6325 75.6671 23.2891 78.0494C27.5957 85.8293 34.2682 92.1146 42.3385 95.9325C46.2036 92.7426 49.7311 88.1243 50.4489 83.6571ZM98.9886 75.5443C98.3228 73.3013 96.2686 71.6556 93.8084 71.6556C91.988 71.6556 90.3824 72.5528 89.3978 73.9269C88.4132 72.5528 86.8077 71.6556 84.9873 71.6556C81.9886 71.6556 79.5591 74.0851 79.5591 77.0838C79.5591 77.5088 79.6134 77.9196 79.7055 78.3162C80.4303 82.8142 85.2493 87.5151 88.935 89.0853C93.1284 85.3075 96.5638 80.7104 98.9886 75.5443Z" fill="#FFAC33"/>
<path d="M97.3918 22.7184C97.3918 18.7234 94.1524 15.4863 90.1598 15.4863C87.7349 15.4863 85.5957 16.6834 84.283 18.5133C82.9702 16.6834 80.831 15.4863 78.4061 15.4863C74.4111 15.4863 71.1741 18.7234 71.1741 22.7184C71.1741 23.2851 71.2449 23.8329 71.3677 24.3617C72.3735 30.6022 79.3104 37.1849 84.283 38.9935C89.2554 37.1849 96.1924 30.6022 97.1959 24.3641C97.321 23.8329 97.3918 23.2851 97.3918 22.7184ZM46.8239 82.0744C46.8239 77.7465 43.3153 74.2379 38.9874 74.2379C36.3595 74.2379 34.0432 75.5341 32.6195 77.5174C31.1981 75.5341 28.8795 74.2379 26.2516 74.2379C21.9236 74.2379 18.415 77.7465 18.415 82.0744C18.415 82.6883 18.493 83.2809 18.6252 83.8547C19.7136 90.6145 27.2291 97.7474 32.6171 99.7072C38.0052 97.7498 45.5206 90.6169 46.6091 83.857C46.746 83.2809 46.8239 82.6859 46.8239 82.0744ZM102.877 76.6887C102.877 73.6901 100.447 71.2605 97.4485 71.2605C95.6281 71.2605 94.0225 72.1577 93.0379 73.5319C92.0534 72.1577 90.4478 71.2605 88.6274 71.2605C85.6288 71.2605 83.1992 73.6901 83.1992 76.6887C83.1992 77.1137 83.2535 77.5245 83.3456 77.9212C84.0988 82.6033 89.305 87.5451 93.0379 88.9004C96.7685 87.5451 101.977 82.6033 102.728 77.9212C102.822 77.5245 102.877 77.1137 102.877 76.6887Z" fill="#DD2E44"/>
</svg>
