<svg width="13" height="15" viewBox="0 0 13 15" fill="none" xmlns="http://www.w3.org/2000/svg">
<path d="M3 9.70343V5.82671C3 4.98863 3.52252 4.23944 4.30898 3.94987L11.6545 1.24539C12.3073 1.00503 13 1.48814 13 2.18381V12.8972C13 13.5696 12.3496 14.0504 11.7067 13.8532L4.41336 11.6155C3.5734 11.3577 3 10.582 3 9.70343Z" fill="white"/>
<path d="M2 10.3574V5.60742C2 5.05514 1.55228 4.60742 1 4.60742C0.447715 4.60742 0 5.05514 0 5.60742V10.3574C0 10.9097 0.447715 11.3574 1 11.3574C1.55228 11.3574 2 10.9097 2 10.3574Z" fill="white"/>
</svg>
