<svg width="16" height="16" viewBox="0 0 16 16" fill="none" xmlns="http://www.w3.org/2000/svg">
<path d="M4 9.95343V6.07671C4 5.23863 4.52252 4.48944 5.30898 4.19987L12.6545 1.49539C13.3073 1.25503 14 1.73814 14 2.43381V13.1472C14 13.8196 13.3496 14.3004 12.7067 14.1032L5.41336 11.8655C4.5734 11.6077 4 10.832 4 9.95343Z" fill="white"/>
<path d="M3 10.6074V5.85742C3 5.30514 2.55228 4.85742 2 4.85742C1.44772 4.85742 1 5.30514 1 5.85742V10.6074C1 11.1597 1.44772 11.6074 2 11.6074C2.55228 11.6074 3 11.1597 3 10.6074Z" fill="white"/>
</svg>
