<svg width="120" height="120" viewBox="0 0 120 120" fill="none" xmlns="http://www.w3.org/2000/svg">
<path d="M97.7774 40.3321C103.2 34.9093 110.555 76.907 90.1107 93.9985C83.0651 99.889 74.7775 101.586 69.6664 101.586C63.6072 101.586 44.0369 101.665 36.4443 101.665C18.0955 101.665 16 89.0791 16 73.5542C16 58.0293 18.0955 45.4432 36.4443 45.4432C51.7776 45.4432 61.9998 50.5543 69.6664 55.6552C82.3853 64.1191 84.9792 65.5221 90.1107 60.7765C98.3217 53.1865 92.6663 45.4432 97.7774 40.3321Z" fill="#3B88C3"/>
<path d="M102.896 68.4434C101.708 77.9679 97.6801 87.6687 90.1106 93.9988C83.065 99.8893 74.7774 101.586 69.6663 101.586C63.6071 101.586 44.0368 101.665 36.4442 101.665C26.1326 101.665 20.9526 97.6915 18.397 91.4535C16.4011 86.5928 26.2221 93.9988 54.333 93.9988C90.1106 93.9988 97.7773 81.2211 102.896 68.4434Z" fill="#55ACEE"/>
<path d="M97.7768 45.443C108.313 45.443 107.999 32.6653 107.999 27.5543C107.999 22.4432 102.888 30.1098 95.2213 32.6653C87.5547 35.2209 77.3325 27.5543 79.888 32.6653C82.4436 37.7764 87.5547 45.443 97.7768 45.443Z" fill="#3B88C3"/>
<path d="M41.5557 27.5533C41.5557 33.1985 39.2659 42.8866 36.4446 42.8866C33.6233 42.8866 31.3335 33.1985 31.3335 27.5533C31.3335 21.9081 33.6233 22.4422 36.4446 22.4422C39.2659 22.4422 41.5557 21.9081 41.5557 27.5533Z" fill="#55ACEE"/>
<path d="M36.4446 22.4431C36.4446 14.7765 21.1113 17.332 21.1113 22.4431C21.1113 27.5542 28.778 24.9987 31.3335 30.1098C33.889 35.2208 36.4446 22.4431 36.4446 22.4431ZM36.4446 22.4431C36.4446 14.7765 51.7778 17.332 51.7778 22.4431C51.7778 27.5542 44.1112 24.9987 41.5557 30.1098C39.0001 35.2208 36.4446 22.4431 36.4446 22.4431Z" fill="#55ACEE"/>
<path d="M32.6111 78.6656C34.7282 78.6656 36.4445 76.9494 36.4445 74.8323C36.4445 72.7153 34.7282 70.999 32.6111 70.999C30.4941 70.999 28.7778 72.7153 28.7778 74.8323C28.7778 76.9494 30.4941 78.6656 32.6111 78.6656Z" fill="#292F33"/>
</svg>
