<svg width="120" height="120" viewBox="0 0 120 120" fill="none" xmlns="http://www.w3.org/2000/svg">
<path d="M34.8333 48.6667C42.4733 48.6667 48.6667 42.4733 48.6667 34.8333C48.6667 27.1934 42.4733 21 34.8333 21C27.1934 21 21 27.1934 21 34.8333C21 42.4733 27.1934 48.6667 34.8333 48.6667Z" fill="#FFCC4D"/>
<path d="M60.1947 104C67.8346 104 74.028 97.8063 74.028 90.1663C74.028 82.5264 67.8346 76.333 60.1947 76.333C52.5547 76.333 46.3613 82.5264 46.3613 90.1663C46.3613 97.8063 52.5547 104 60.1947 104Z" fill="#FFCC4D"/>
<path d="M60.1944 99.3888C65.2877 99.3888 69.4166 95.2599 69.4166 90.1666C69.4166 85.0733 65.2877 80.9443 60.1944 80.9443C55.1011 80.9443 50.9722 85.0733 50.9722 90.1666C50.9722 95.2599 55.1011 99.3888 60.1944 99.3888Z" fill="#DD2E44"/>
<path d="M85.5555 48.6667C93.1954 48.6667 99.3888 42.4733 99.3888 34.8333C99.3888 27.1934 93.1954 21 85.5555 21C77.9156 21 71.7222 27.1934 71.7222 34.8333C71.7222 42.4733 77.9156 48.6667 85.5555 48.6667Z" fill="#FFCC4D"/>
<path d="M34.8336 44.0558C39.9268 44.0558 44.0558 39.9268 44.0558 34.8336C44.0558 29.7403 39.9268 25.6113 34.8336 25.6113C29.7403 25.6113 25.6113 29.7403 25.6113 34.8336C25.6113 39.9268 29.7403 44.0558 34.8336 44.0558Z" fill="#E6AAAA"/>
<path d="M85.5557 44.0558C90.649 44.0558 94.7779 39.9268 94.7779 34.8336C94.7779 29.7403 90.649 25.6113 85.5557 25.6113C80.4624 25.6113 76.3335 29.7403 76.3335 34.8336C76.3335 39.9268 80.4624 44.0558 85.5557 44.0558Z" fill="#E6AAAA"/>
<path d="M97.0834 71.7222C97.0834 87.8611 85.7332 87.8611 85.7332 87.8611H34.6559C34.6559 87.8611 23.3057 87.8611 23.3057 71.7222C23.3057 71.7222 26.1438 21 60.1946 21C94.2476 21 97.0834 71.7222 97.0834 71.7222Z" fill="#FFCC4D"/>
<path d="M44.0557 60.1941C44.0557 60.1941 44.0557 55.583 48.6668 55.583C53.2779 55.583 53.2779 60.1941 53.2779 60.1941V64.8052C53.2779 64.8052 53.2779 69.4163 48.6668 69.4163C44.0557 69.4163 44.0557 64.8052 44.0557 64.8052V60.1941ZM67.1112 60.1941C67.1112 60.1941 67.1112 55.583 71.7223 55.583C76.3334 55.583 76.3334 60.1941 76.3334 60.1941V64.8052C76.3334 64.8052 76.3334 69.4163 71.7223 69.4163C67.1112 69.4163 67.1112 64.8052 67.1112 64.8052V60.1941Z" fill="#272B2B"/>
<path d="M73.285 74.0273C67.747 74.0273 62.9077 76.2245 60.194 79.51C57.4804 76.2245 52.6387 74.0273 47.1008 74.0273C23.3052 74.0273 23.4043 74.998 23.3052 81.3636C23.1046 94.2978 38.591 97.272 47.1008 97.0829C52.6364 96.9607 57.4804 94.8027 60.194 91.5565C62.9077 94.8027 67.747 96.963 73.285 97.0829C81.7948 97.272 97.2835 94.2978 97.0806 81.3636C96.9815 74.998 97.0806 74.0273 73.285 74.0273Z" fill="white"/>
<path d="M96.299 79.1968C96.7694 79.8401 97.0668 80.5525 97.0806 81.3618C97.1498 85.7538 95.363 88.977 92.6655 91.3379L80.9417 92.4722L96.299 79.1968ZM53.2774 78.6389C50.9718 80.9444 57.8885 87.8611 60.194 87.8611C62.4996 87.8611 69.4163 80.9444 67.1107 78.6389C64.8052 76.3333 55.5829 76.3333 53.2774 78.6389ZM41.7496 27.9167C47.8985 32.5278 60.194 37.1389 60.194 37.1389C60.194 37.1389 72.4896 32.5278 78.6385 27.9167L60.194 30.2222L41.7496 27.9167ZM60.194 25.6111C60.194 25.6111 64.0028 24.1817 68.4387 22.1205C65.9118 21.4104 63.1797 21 60.194 21C57.2084 21 54.474 21.4104 51.9494 22.1205C56.3853 24.1817 60.194 25.6111 60.194 25.6111ZM44.0552 41.75C50.9718 46.3611 60.194 50.9722 60.194 50.9722C60.194 50.9722 69.4163 46.3611 76.3329 41.75L60.194 44.0556L44.0552 41.75ZM91.6534 47.0182L80.944 55.5833L94.7912 57.3125C94.0212 54.0824 92.9998 50.5618 91.6534 47.0182ZM96.0593 63.5237L83.2496 76.3333H96.7025C96.9377 74.9615 97.0829 73.4491 97.0829 71.7222C97.0829 71.7222 96.8962 68.4253 96.0593 63.5237ZM24.3288 63.5237C23.4942 68.4253 23.3052 71.7222 23.3052 71.7222C23.3052 73.4468 23.4504 74.9615 23.6856 76.3333H37.1385L24.3288 63.5237ZM24.0867 79.1968C23.6164 79.8401 23.319 80.5525 23.3052 81.3641C23.236 85.7561 25.0228 88.9793 27.7226 91.3402L39.4441 92.4722L24.0867 79.1968ZM39.4441 55.5833L28.7371 47.0182C27.3906 50.5618 26.3669 54.0824 25.5992 57.3148L39.4441 55.5833Z" fill="#272B2B"/>
</svg>
