<svg width="296" height="530" viewBox="0 0 296 530" fill="none" xmlns="http://www.w3.org/2000/svg">
<path d="M197.6 32.797C197.919 41.2341 202.36 49.0484 202.36 57.5011C202.36 61.3674 202.779 65.0652 203.255 68.9072C203.526 71.0992 203.697 73.3278 203.824 75.5284C203.851 75.9867 204.108 76.4118 204.191 76.8637C204.286 77.3881 205.143 77.265 205.554 77.3274C210.016 78.0055 214.49 78.634 218.959 79.2748C226.389 80.3399 234.009 81.0269 241.499 81.6858C245.311 82.0212 249.42 82.539 253.257 82.539C255.451 82.539 257.879 82.8495 260.051 83.1325C262.376 83.4352 264.792 83.0994 267.131 83.2808C269.24 83.4445 269.151 83.2299 268.819 81.352C268.478 79.4234 268.464 77.4531 268.087 75.5284C267.246 71.2368 268.397 66.7196 267.822 62.3974C267.315 58.5823 268.247 54.4019 267.354 50.6574C266.846 48.5253 267.415 45.8367 266.622 43.8137C265.805 41.7273 265.598 39.2994 265.056 37.1369C264.851 36.3217 264.837 35.4459 264.588 34.6517C264.356 33.9119 256.529 34.0896 255.352 34.1509C251.062 34.3744 246.687 34.3295 242.394 34.7259C237.932 35.1378 233.271 34.8 228.785 34.8C225.549 34.8 221.487 35.4546 218.39 34.7259C214.714 33.8611 210.734 33.7985 206.957 33.7985C204.521 33.7985 200.547 31.7901 198.332 32.4632" stroke="white" stroke-width="3.6" stroke-linecap="round"/>
<path d="M204.059 77.4863C209.611 79.6411 215.159 82.5116 220.489 85.0368C223.581 86.5014 226.735 88.4202 230.004 89.3542C237.647 91.5379 245.796 92.0358 253.761 92.5667C256.933 92.7783 260.177 92.9555 263.357 92.9555C265.695 92.9555 268.291 92.6268 270.601 93.0374C274.799 93.7838 279.273 92.9726 283.43 93.8763C285.503 94.3269 287.763 94.0605 289.876 94.0605C290.546 94.0605 291.248 94.1306 290.203 93.5285C288.202 92.3752 286.05 91.5688 283.901 90.7456C278.269 88.5886 274.03 86.3778 269 83.0246" stroke="white" stroke-width="3.6" stroke-linecap="round"/>
<path d="M236.93 119.4C244.392 123.447 251.084 127.889 257.762 133.113C263.133 137.314 268.47 141.238 271.871 147.254C275.798 154.203 274.96 163.274 274.903 171.02C274.853 177.838 274.637 185.393 272.167 191.853C268.233 202.142 261.141 209.669 252.917 216.674C242.256 225.755 230.693 231.252 217.976 236.551C213.974 238.219 209.788 239.434 205.681 240.803C198.398 243.231 191.53 246.636 184.519 249.736C174.227 254.287 163.824 259.27 153.929 264.635C137.952 273.297 111.31 272.889 100.4 288.212" stroke="white" stroke-width="3.6" stroke-linecap="round"/>
<path d="M222.991 46.588C222.579 49.0117 222.871 51.5581 222.871 54.0187C222.871 55.3527 222.846 56.6646 222.758 57.9907C222.63 59.9023 222.871 61.7888 222.871 63.6887C222.871 64.3452 223.301 64.1875 223.938 64.2285C225.82 64.35 227.692 64.6473 229.576 64.795C231.146 64.9182 232.773 64.9416 234.347 64.9416C235.959 64.9416 237.569 65.0616 239.186 65.0616C240.056 65.0616 240.943 64.9921 241.798 65.1549C242.055 65.2038 242.378 65.2557 242.251 64.8883C241.803 63.5886 240.943 62.4996 240.152 61.4029C239.21 60.0974 238.176 58.885 237.2 57.6108C235.934 55.9594 234.688 54.4434 233.248 52.9458C232.339 52.001 231.382 51.002 230.315 50.2467C229.45 49.634 228.66 48.7784 227.909 48.0275C227.471 47.5889 226.908 47.3308 226.403 46.9745C225.774 46.5302 224.929 46.2809 224.191 46.0815C223.901 46.0032 223.773 45.8867 223.471 45.8616C222.975 45.8203 223.179 46.0931 222.991 46.468" stroke="white" stroke-width="3.6" stroke-linecap="round"/>
<path d="M233.786 53.0679C236.038 51.237 238.198 49.283 240.744 47.883C241.325 47.5632 241.911 47.4523 242.516 47.1899C242.61 47.1496 242.903 49.6256 242.903 49.9823C242.903 50.9128 243.122 51.8691 243.143 52.8013C243.175 54.2302 243.639 55.665 243.856 57.0732C243.966 57.7895 244.035 59.0612 243.836 59.7589C243.593 60.6088 243.69 61.6692 243.323 62.478C243.13 62.903 243.149 64.1612 242.783 64.344" stroke="white" stroke-width="3.6" stroke-linecap="round"/>
<path d="M259.988 22.5461C260.275 20.4346 260.223 18.3261 260.223 16.2002" stroke="white" stroke-width="3.6" stroke-linecap="round"/>
<path d="M266.1 23.7202C267.712 22.1074 269.038 20.7231 271.035 19.7246" stroke="white" stroke-width="3.6" stroke-linecap="round"/>
<path d="M270.095 28.6572H279.261" stroke="white" stroke-width="3.6" stroke-linecap="round"/>
<path d="M37.0639 416.927C32.4459 444.635 38.6641 470.789 55.5153 492.455C59.6235 497.737 63.1158 503.446 67.8533 508.183C69.4278 509.758 80.9174 517.128 79.0798 518.965" stroke="white" stroke-width="4" stroke-linecap="round"/>
<path d="M56.0596 519.252C60.7393 519.252 65.3931 519.467 70.0712 519.467C71.7494 519.467 73.391 519.252 75.0839 519.252C76.1164 519.252 77.1514 519.467 78.2348 519.467C79.6996 519.467 79.476 518.637 79.476 517.426C79.476 516.491 79.476 515.557 79.476 514.622C79.476 508.671 79.6908 502.678 79.6908 496.695" stroke="white" stroke-width="4" stroke-linecap="round"/>
<path d="M23.2642 373.951C18.3767 369.093 8.75 362.1 8.75 355.013C8.75 351.646 10.044 348.18 11.564 345.096C13.8605 340.437 17.124 335.936 18.747 331.071C20.352 326.26 21.0687 321.169 21.2648 316.18C21.4276 312.038 23.8153 318.088 24.5971 319.393C25.5923 321.053 27.7545 323.55 27.9295 325.448C28.0032 326.247 28.6031 327.871 29.2624 328.476C31.2417 330.292 36.9449 324.603 37.9265 323.224C39.7812 320.617 39.4367 315.485 39.2224 312.534C38.7085 305.46 39.2594 298.274 39.2594 291.125C39.2594 290.399 38.7188 287.244 39.5556 286.707C40.8992 285.845 47.6068 290.158 48.8121 290.754C51.6948 292.181 54.8025 293.469 57.5873 295.018C64.2341 298.715 66.8951 308.141 68.8432 314.017C70.8854 320.178 71.2601 326.906 73.3974 332.924C74.2397 335.296 74.4921 334.522 76.2114 332.677C77.9882 330.771 78.768 328.907 79.5437 326.622C80.2412 324.568 80.0537 322.053 81.0988 320.134C81.5391 319.326 86.1184 326.127 86.5787 326.807C91.6135 334.249 91.2439 343.28 91.2439 351.739C91.2439 356.879 91.3313 361.916 90.6145 367C90.2813 369.363 89.7409 372.064 86.9489 373.395C79.6774 376.862 72.5531 377.844 63.9188 377.844" stroke="white" stroke-width="4.5" stroke-linecap="round"/>
<path d="M31.5118 375.436C30.828 372.825 30.0939 370.214 29.5963 367.575C29.1817 365.377 29.7238 363.348 30.3753 361.239C31.2822 358.302 32.3154 355.281 32.8924 352.28C33.0652 351.381 33.0831 350.457 33.1497 349.548C33.1981 348.887 34.1058 350.615 34.3399 350.89C36.2248 353.106 38.9074 354.967 40.5568 357.292C41.7441 358.966 44.1756 356.479 45.1908 355.593C47.5225 353.557 48.0599 350.506 48.8517 347.827C49.9798 344.01 51.1582 340.194 51.9004 336.301C52.1884 334.79 52.6855 336.044 53.3293 336.924C54.9301 339.113 57.001 341.13 58.3947 343.411C60.7562 347.276 60.0128 352.203 59.7097 356.342C59.6304 357.425 64.5425 355.822 65.6296 356.438C67.7433 357.636 68.5948 359.745 68.5767 361.744C68.5435 365.427 65.7468 368.154 62.7756 370.584C61.6579 371.498 60.6145 372.57 59.6076 373.573C59.1544 374.024 57.8794 374.866 58.0547 375.425" stroke="white" stroke-width="4.5" stroke-linecap="round"/>
</svg>
