<svg width="60" height="90" viewBox="0 0 60 90" fill="none" xmlns="http://www.w3.org/2000/svg">
<path d="M17.298 5.19531C13.8344 25.9764 18.4981 45.5923 31.1365 61.8417C34.2176 65.8031 36.8369 70.0846 40.39 73.6378C41.5709 74.8186 50.1881 80.3459 48.8098 81.7241" stroke="white" stroke-width="3" stroke-linecap="round"/>
<path d="M31.5449 81.9393C35.0547 81.9393 38.5451 82.1004 42.0537 82.1004C43.3123 82.1004 44.5435 81.9393 45.8132 81.9393C46.5875 81.9393 47.3638 82.1004 48.1763 82.1004C49.275 82.1004 49.1072 81.4778 49.1072 80.5698C49.1072 79.8686 49.1072 79.1674 49.1072 78.4662C49.1072 74.003 49.2684 69.5082 49.2684 65.0215" stroke="white" stroke-width="3" stroke-linecap="round"/>
</svg>
