<svg width="487" height="729" viewBox="0 0 487 729" fill="none" xmlns="http://www.w3.org/2000/svg">
<path d="M278.611 708.761C274.701 704.874 267 699.28 267 693.611C267 690.917 268.035 688.144 269.251 685.677C271.088 681.95 273.699 678.349 274.998 674.457C276.282 670.608 276.855 666.535 277.012 662.544C277.142 659.23 279.052 664.071 279.678 665.114C280.474 666.443 282.204 668.44 282.344 669.958C282.403 670.598 282.883 671.896 283.41 672.38C284.993 673.834 289.556 669.282 290.341 668.179C291.825 666.094 291.549 661.988 291.378 659.628C290.967 653.968 291.408 648.219 291.408 642.5C291.408 641.919 290.975 639.396 291.645 638.966C292.719 638.276 298.085 641.726 299.05 642.204C301.356 643.345 303.842 644.375 306.07 645.614C311.387 648.572 313.516 656.113 315.075 660.814C316.708 665.742 317.008 671.125 318.718 675.939C319.392 677.837 319.594 677.217 320.969 675.742C322.391 674.217 323.014 672.725 323.635 670.898C324.193 669.254 324.043 667.242 324.879 665.707C325.231 665.061 328.895 670.502 329.263 671.046C333.291 676.999 332.995 684.224 332.995 690.991C332.995 695.103 333.065 699.133 332.492 703.2C332.225 705.09 331.793 707.251 329.559 708.316C323.742 711.09 318.043 711.875 311.135 711.875" stroke="white" stroke-width="3" stroke-linecap="round"/>
<path d="M285.209 709.949C284.662 707.86 284.075 705.771 283.677 703.66C283.345 701.901 283.779 700.279 284.3 698.591C285.026 696.242 285.852 693.825 286.314 691.424C286.452 690.705 286.467 689.966 286.52 689.238C286.558 688.71 287.285 690.092 287.472 690.312C288.98 692.084 291.126 693.574 292.445 695.434C293.395 696.772 295.34 694.783 296.153 694.074C298.018 692.445 298.448 690.005 299.081 687.861C299.984 684.808 300.927 681.755 301.52 678.641C301.751 677.432 302.148 678.435 302.663 679.139C303.944 680.891 305.601 682.504 306.716 684.329C308.605 687.42 308.01 691.362 307.768 694.674C307.704 695.54 311.634 694.257 312.504 694.75C314.195 695.709 314.876 697.396 314.861 698.995C314.835 701.941 312.597 704.123 310.221 706.067C309.326 706.798 308.492 707.656 307.686 708.458C307.324 708.819 306.304 709.493 306.444 709.94" stroke="white" stroke-width="3" stroke-linecap="round"/>
<path d="M323 54.6614C323.532 68.7232 330.934 81.7471 330.934 95.8348C330.934 102.279 331.632 108.442 332.425 114.845C332.878 118.498 333.163 122.213 333.375 125.88C333.419 126.644 333.847 127.353 333.985 128.106C334.145 128.98 335.573 128.775 336.257 128.879C343.694 130.009 351.151 131.056 358.6 132.124C370.982 133.9 383.683 135.045 396.166 136.143C402.519 136.702 409.367 137.565 415.762 137.565C419.42 137.565 423.465 138.082 427.086 138.554C430.961 139.058 434.987 138.499 438.885 138.801C442.4 139.074 442.253 138.716 441.699 135.586C441.13 132.372 441.107 129.088 440.479 125.88C439.078 118.728 440.996 111.199 440.038 103.995C439.192 97.6368 440.746 90.6695 439.258 84.4286C438.411 80.8751 439.358 76.3942 438.037 73.0225C436.675 69.5452 436.33 65.4986 435.427 61.8945C435.086 60.5358 435.062 59.0762 434.647 57.7525C434.261 56.5196 421.216 56.8157 419.254 56.9179C412.105 57.2904 404.812 57.2156 397.657 57.8761C390.221 58.5627 382.452 57.9997 374.975 57.9997C369.582 57.9997 362.812 59.0906 357.65 57.8761C351.525 56.4349 344.891 56.3306 338.596 56.3306C334.536 56.3306 327.912 52.9831 324.221 54.105" stroke="white" stroke-width="3" stroke-linecap="round"/>
<path d="M333.764 129.145C343.018 132.736 352.264 137.52 361.149 141.729C366.302 144.17 371.558 147.368 377.006 148.924C389.745 152.564 403.326 153.394 416.6 154.279C421.888 154.631 427.295 154.927 432.595 154.927C436.492 154.927 440.818 154.379 444.667 155.063C451.665 156.307 459.121 154.955 466.05 156.461C469.504 157.212 473.272 156.768 476.792 156.768C477.909 156.768 479.079 156.885 477.338 155.881C474.003 153.959 470.417 152.615 466.834 151.243C457.447 147.648 450.383 143.964 442 138.375" stroke="white" stroke-width="3" stroke-linecap="round"/>
<path d="M388.549 199C400.986 205.744 412.139 213.148 423.27 221.854C432.221 228.856 441.116 235.396 446.784 245.423C453.33 257.004 451.932 272.122 451.838 285.033C451.755 296.395 451.395 308.988 447.278 319.754C440.721 336.903 428.901 349.447 415.194 361.123C397.427 376.258 378.154 385.419 356.959 394.251C350.289 397.03 343.314 399.056 336.467 401.338C324.329 405.384 312.882 411.059 301.197 416.226C284.045 423.81 266.706 432.117 250.214 441.058C223.586 455.495 179.183 454.815 161 480.354" stroke="white" stroke-width="3" stroke-linecap="round"/>
<path d="M365.318 77.6482C364.63 81.6878 365.118 85.9318 365.118 90.0329C365.118 92.2561 365.077 94.4426 364.929 96.6528C364.717 99.8388 365.118 102.983 365.118 106.15C365.118 107.244 365.834 106.981 366.895 107.049C370.032 107.252 373.153 107.747 376.292 107.993C378.909 108.199 381.621 108.238 384.245 108.238C386.931 108.238 389.614 108.438 392.309 108.438C393.759 108.438 395.238 108.322 396.663 108.593C397.091 108.675 397.629 108.761 397.418 108.149C396.671 105.983 395.238 104.168 393.919 102.34C392.35 100.164 390.627 98.1433 388.999 96.0197C386.889 93.2673 384.812 90.7406 382.412 88.2446C380.898 86.67 379.302 85.0049 377.525 83.7461C376.083 82.7249 374.767 81.299 373.515 80.0474C372.784 79.3165 371.846 78.8863 371.005 78.2925C369.956 77.552 368.547 77.1365 367.317 76.8041C366.834 76.6736 366.62 76.4794 366.118 76.4376C365.292 76.3687 365.63 76.8234 365.318 77.4483" stroke="white" stroke-width="3" stroke-linecap="round"/>
<path d="M383.311 88.4449C387.063 85.3934 390.664 82.1366 394.907 79.8034C395.876 79.2703 396.852 79.0856 397.861 78.6483C398.016 78.581 398.505 82.7076 398.505 83.3022C398.505 84.853 398.871 86.4469 398.905 88.0006C398.958 90.382 399.733 92.7734 400.094 95.1204C400.277 96.3142 400.393 98.4336 400.06 99.5966C399.656 101.013 399.818 102.78 399.205 104.128C398.883 104.837 398.915 106.934 398.305 107.238" stroke="white" stroke-width="3" stroke-linecap="round"/>
<path d="M426.98 37.5765C427.458 34.0573 427.372 30.5432 427.372 27" stroke="white" stroke-width="3" stroke-linecap="round"/>
<path d="M437.166 39.5353C439.854 36.8473 442.064 34.5401 445.392 32.876" stroke="white" stroke-width="3" stroke-linecap="round"/>
<path d="M443.824 47.7607H459.101" stroke="white" stroke-width="3" stroke-linecap="round"/>
<path d="M17.298 644.195C13.8344 664.976 18.4981 684.592 31.1365 700.842C34.2176 704.803 36.8369 709.085 40.39 712.638C41.5709 713.819 50.1881 719.346 48.8098 720.724" stroke="white" stroke-width="3" stroke-linecap="round"/>
<path d="M31.5449 720.939C35.0547 720.939 38.5451 721.1 42.0537 721.1C43.3123 721.1 44.5435 720.939 45.8132 720.939C46.5875 720.939 47.3638 721.1 48.1763 721.1C49.275 721.1 49.1072 720.478 49.1072 719.57C49.1072 718.869 49.1072 718.167 49.1072 717.466C49.1072 713.003 49.2684 708.508 49.2684 704.021" stroke="white" stroke-width="3" stroke-linecap="round"/>
</svg>
