<svg width="160" height="160" viewBox="0 0 160 160" fill="none" xmlns="http://www.w3.org/2000/svg">
<mask id="mask0_3785_27503" style="mask-type:alpha" maskUnits="userSpaceOnUse" x="0" y="0" width="160" height="160">
<path d="M0 0H160V160H0V0Z" fill="#C4C4C4"/>
</mask>
<g mask="url(#mask0_3785_27503)">
<path fill-rule="evenodd" clip-rule="evenodd" d="M45.0307 37.6969C46.4145 38.4033 46.9637 40.0977 46.2573 41.4815C38.3371 56.9979 31.5204 75.4356 37.0895 91.7805C40.1554 100.779 50.2946 105.462 60.4337 106.907C67.5511 107.922 74.1855 105.713 80.2858 101.699C86.4123 97.6672 91.843 91.9112 96.4045 86.1575C102.272 78.7564 108.293 70.5842 109.007 61.9315C109.135 60.3831 110.494 59.2315 112.042 59.3592C113.591 59.487 114.742 60.8458 114.614 62.3942C113.738 73.0101 106.502 82.4779 100.813 89.6528C96.082 95.6207 90.2189 101.898 83.3787 106.399C76.5123 110.917 68.507 113.741 59.6397 112.477C48.9624 110.955 35.904 105.746 31.7638 93.5951C25.3705 74.8309 33.3186 54.4542 41.2461 38.9236C41.9525 37.5398 43.6469 36.9906 45.0307 37.6969Z" fill="#343A40"/>
<path fill-rule="evenodd" clip-rule="evenodd" d="M65.2576 13.1388C66.1883 14.3829 65.9342 16.1459 64.6901 17.0765C60.6201 20.1212 57.8966 23.1233 56.0618 27.5528C55.7404 28.3286 55.5625 29.2939 55.4575 30.5084C55.4056 31.1082 55.3746 31.7229 55.3425 32.3841L55.3379 32.4795C55.308 33.0957 55.2759 33.7594 55.2224 34.4076C54.7986 39.5434 58.5279 43.3333 64.0877 46.7113C65.4155 47.5181 65.8378 49.2484 65.0311 50.5762C64.2243 51.904 62.494 52.3264 61.1662 51.5196C55.475 48.0618 48.8979 42.6371 49.6152 33.9449C49.6606 33.3944 49.6886 32.8172 49.7199 32.1719L49.7228 32.1114C49.7544 31.46 49.7898 30.7444 49.8521 30.0239C49.9753 28.598 50.2162 26.9629 50.8638 25.3996C53.1944 19.7733 56.7035 16.0248 61.3199 12.5713C62.564 11.6407 64.3269 11.8947 65.2576 13.1388Z" fill="#343A40"/>
<path fill-rule="evenodd" clip-rule="evenodd" d="M88.3399 20.3718C89.5053 21.3992 89.6172 23.1769 88.5897 24.3423C84.932 28.4912 81.6857 32.4742 80.8132 37.1483C80.5708 38.447 80.758 39.8836 81.2467 41.6007C81.4895 42.4535 81.7883 43.3169 82.1147 44.2413C82.1474 44.3339 82.1805 44.4273 82.2138 44.5215C82.5036 45.3407 82.814 46.2179 83.0776 47.0828C83.9803 50.0448 85.4726 51.431 88.5767 53.4482C88.9291 53.6772 90.4562 54.5815 91.8661 55.2327C92.2051 55.3892 92.4927 55.5099 92.7257 55.599C93.1115 55.4487 93.5365 55.3815 93.9768 55.4179C95.5252 55.5456 96.6769 56.9044 96.5491 58.4528C96.5013 59.0319 96.2922 59.6949 95.797 60.2733C95.3139 60.8376 94.7271 61.1245 94.2534 61.2639C93.4153 61.5104 92.6292 61.3877 92.2275 61.3082C91.317 61.128 90.3134 60.7129 89.5071 60.3405C87.8217 59.5621 86.0588 58.5219 85.5109 58.1659C81.9645 55.8612 79.1658 53.5472 77.6956 48.7229C77.4707 47.9846 77.2032 47.2283 76.9066 46.3894C76.8745 46.2988 76.8422 46.2073 76.8095 46.1147C76.4835 45.1916 76.1311 44.1801 75.8353 43.1408C75.247 41.0737 74.8081 38.6573 75.2824 36.1159C76.4798 29.7013 80.8373 24.628 84.3694 20.6216C85.3968 19.4562 87.1745 19.3443 88.3399 20.3718ZM93.3624 55.7954C93.363 55.7961 93.3496 55.7948 93.3207 55.7891C93.3474 55.7918 93.3619 55.7946 93.3624 55.7954Z" fill="#343A40"/>
<path fill-rule="evenodd" clip-rule="evenodd" d="M110.144 29.8437C111.634 30.2838 112.485 31.8485 112.045 33.3385C110.686 37.9405 109.763 44.7891 110.738 50.7186C111.71 56.6358 114.372 60.868 119.569 62.0533C121.084 62.3987 122.032 63.9068 121.686 65.4215C121.341 66.9363 119.833 67.8842 118.318 67.5387C109.915 65.6223 106.334 58.6194 105.186 51.6309C104.039 44.6545 105.119 36.9268 106.649 31.7447C107.089 30.2547 108.654 29.4036 110.144 29.8437Z" fill="#343A40"/>
<path fill-rule="evenodd" clip-rule="evenodd" d="M53.5983 46.5758C54.716 46.7614 55.7295 46.9297 56.7269 47.0329C58.0638 47.1714 59.0847 48.2247 59.2322 49.5069C60.7149 50.3669 62.2584 51.1351 63.8725 51.9385C64.9564 52.478 66.0722 53.0333 67.2226 53.6428C68.2655 54.1953 69.0401 55.0045 69.513 55.9997C69.959 56.9383 70.0611 57.8822 70.0632 58.6328C70.0653 59.378 69.9661 60.1032 69.8842 60.6542C69.8629 60.7974 69.8429 60.9281 69.8245 61.0492C69.7623 61.4573 69.7168 61.7551 69.6927 62.0481C69.4288 65.2461 68.4472 68.8563 66.3877 71.6751C64.2387 74.6162 60.8945 76.6753 56.3865 76.3033C50.992 75.8582 45.5846 73.8467 41.0347 71.619C40.9808 71.5925 40.9251 71.5653 40.8677 71.5373C39.6817 70.9578 37.8057 70.0411 36.2489 68.807C34.6679 67.5537 32.7157 65.4129 32.968 62.3545C33.1453 60.2069 34.083 57.7101 35.1096 55.5895C36.1588 53.422 37.4782 51.2867 38.6915 49.8311C41.423 46.5542 44.9535 45.8408 48.165 45.9271C49.7293 45.9691 51.2968 46.1997 52.7151 46.4302C53.0173 46.4794 53.3112 46.5282 53.5983 46.5758ZM54.4457 52.4099C53.8157 52.316 53.1921 52.2122 52.5955 52.113C52.3284 52.0685 52.0668 52.025 51.8124 51.9837C50.4172 51.7569 49.1709 51.5824 48.014 51.5513C45.7831 51.4914 44.2413 51.9602 43.0133 53.4335C42.1707 54.4443 41.0839 56.1607 40.1737 58.0409C39.2409 59.9679 38.6663 61.7147 38.5753 62.8172C38.56 63.0021 38.6246 63.5106 39.7439 64.3979C40.8122 65.2448 42.2133 65.9315 43.5089 66.5659C47.7589 68.6468 52.445 70.3326 56.8492 70.6961C59.1146 70.883 60.6697 69.9641 61.8448 68.3558C63.1094 66.6251 63.8767 64.1144 64.0854 61.5854C64.1273 61.0775 64.2118 60.5278 64.2781 60.0962C64.2929 59.9998 64.3068 59.9092 64.3191 59.8264C64.3978 59.2977 64.4378 58.9355 64.437 58.6487C64.4368 58.6039 64.4356 58.5655 64.4339 58.5328C63.5936 58.0908 62.6628 57.6261 61.6946 57.1427C59.684 56.1389 57.512 55.0545 55.6541 53.9256C55.0611 53.5653 54.6486 53.0206 54.4457 52.4099Z" fill="#343A40"/>
<path fill-rule="evenodd" clip-rule="evenodd" d="M91.1428 59.6018C91.0363 61.1518 89.6934 62.3221 88.1434 62.2156C87.372 62.1626 86.6093 62.1014 85.8562 62.0409C82.8467 61.7995 79.9905 61.5703 77.3479 61.9267C74.256 62.3437 71.9859 63.5038 70.5887 66.237C69.6022 68.1667 69.5337 69.6764 69.9086 70.8954C70.3003 72.1695 71.3023 73.5303 73.1922 74.8627C75.6477 76.5937 80.474 79.1179 84.6929 79.9263C86.8201 80.334 88.3818 80.2239 89.3629 79.7767C90.1166 79.4332 90.8825 78.7421 91.1659 76.8074C91.396 75.2371 91.6075 73.0411 91.4867 70.9495C91.3588 68.7349 90.8863 67.2141 90.2525 66.4664C89.248 65.2812 89.3945 63.506 90.5797 62.5015C91.765 61.4969 93.5401 61.6434 94.5446 62.8286C96.4121 65.0321 96.9593 68.1274 97.1036 70.625C97.255 73.2456 96.9914 75.8579 96.7328 77.623C96.2175 81.1405 94.4541 83.6394 91.6963 84.8963C89.1661 86.0495 86.2342 85.9504 83.634 85.4521C78.3979 84.4487 72.834 81.494 69.9504 79.4611C67.3926 77.6579 65.3975 75.3678 64.5307 72.549C63.6471 69.6751 64.0587 66.6499 65.579 63.676C68.0787 58.7864 72.3355 56.9255 76.5959 56.3509C79.9039 55.9047 83.5402 56.2023 86.5843 56.4514C87.2657 56.5072 87.9173 56.5605 88.529 56.6025C90.079 56.709 91.2492 58.0518 91.1428 59.6018Z" fill="#343A40"/>
<path fill-rule="evenodd" clip-rule="evenodd" d="M79.3944 66.2544C78.4083 65.7756 77.1895 65.9004 76.3124 66.6673C75.1428 67.6899 75.0236 69.4671 76.0463 70.6368C76.1272 70.7294 76.2155 70.8315 76.3067 70.9371C76.5299 71.1955 76.7711 71.4746 76.9683 71.6866C77.1188 71.8484 77.3127 72.0477 77.5324 72.2345C77.7247 72.3981 78.1025 72.6978 78.6267 72.8957C79.2233 73.1209 80.1754 73.2629 81.1483 72.7468C82.0026 72.2937 82.3952 71.5751 82.5593 71.2082C82.8697 70.5143 82.9531 69.7146 82.9969 69.1839C83.1247 67.6355 81.973 66.2767 80.4246 66.1489C80.0668 66.1194 79.7191 66.1582 79.3944 66.2544ZM77.3397 69.1433C77.338 69.1521 77.337 69.1561 77.3369 69.156C77.3368 69.1559 77.3377 69.1515 77.3397 69.1433Z" fill="#343A40"/>
<path fill-rule="evenodd" clip-rule="evenodd" d="M57.133 59.283C57.4777 59.3418 57.6149 59.3634 57.6936 59.3699C59.242 59.4976 60.3937 60.8564 60.2659 62.4048C60.1381 63.9532 58.7793 65.1049 57.2309 64.9771C56.9193 64.9514 56.5823 64.8966 56.3329 64.8542C55.4676 65.9657 53.8874 66.2764 52.6543 65.5273L52.6492 65.5241C52.3695 65.3543 50.9535 64.4943 50.9485 62.7101C50.9461 61.8596 51.2885 61.2222 51.5453 60.8569C51.798 60.4976 52.0845 60.2338 52.2804 60.0677C53.0099 59.4495 53.8228 59.2228 54.4211 59.1368C55.019 59.0508 55.5824 59.0793 56.0037 59.1208C56.4268 59.1626 56.8356 59.2323 57.122 59.2811L57.133 59.283Z" fill="#343A40"/>
<path fill-rule="evenodd" clip-rule="evenodd" d="M52.5626 13.5182C53.1407 14.9603 52.4404 16.598 50.9984 17.1762C48.2855 18.2639 46.2614 19.2298 44.8363 20.4941C43.546 21.6389 42.6722 23.097 42.4756 25.4799C42.2266 28.4969 43.0218 31.3185 44.2942 34.4919C44.8724 35.934 44.172 37.5718 42.73 38.1499C41.2879 38.7281 39.6502 38.0278 39.072 36.5857C37.6963 33.1546 36.5109 29.3496 36.8684 25.0172C37.1851 21.1789 38.738 18.3831 41.1024 16.2854C43.3322 14.3071 46.1911 13.0419 48.9046 11.954C50.3466 11.3758 51.9844 12.0762 52.5626 13.5182Z" fill="#343A40"/>
<path fill-rule="evenodd" clip-rule="evenodd" d="M112.254 74.7272C111.909 74.9078 111.501 75.1218 111.242 75.2334C109.816 75.8493 108.16 75.1923 107.544 73.766C106.929 72.3396 107.586 70.684 109.012 70.0681C109.012 70.0682 109.012 70.068 109.013 70.0674C109.024 70.0624 109.094 70.029 109.273 69.9363C109.354 69.8943 109.443 69.8477 109.545 69.7943L109.567 69.7826C109.676 69.7253 109.798 69.6619 109.926 69.5953C110.434 69.332 111.097 68.9976 111.788 68.702C112.449 68.4196 113.289 68.1047 114.132 67.9631C114.769 67.856 116.477 67.6542 117.772 68.9476C118.353 69.5271 118.801 70.1786 119.092 70.6013C119.12 70.6418 119.147 70.6802 119.171 70.7162C119.509 71.2028 119.687 71.4306 119.87 71.5954C121.813 73.3462 122.357 75.4982 122.618 77.3202C122.893 79.2382 123.124 81.8124 122.796 84.3258C122.473 86.8055 121.542 89.6744 119.075 91.5871C117.287 92.9738 115.12 93.488 113.324 93.7527C112.401 93.8888 111.476 93.9712 110.648 94.0418C110.576 94.048 110.505 94.054 110.435 94.06C109.666 94.1253 108.997 94.1823 108.376 94.2646C105.239 94.6802 102.214 93.8526 99.8472 93.2048C99.4064 93.0841 98.9884 92.9697 98.5966 92.8708C97.0903 92.4902 96.1777 90.9605 96.5583 89.4542C96.9389 87.9479 98.4686 87.0353 99.9749 87.4159C100.563 87.5645 101.113 87.7112 101.633 87.8499C103.981 88.4764 105.722 88.9408 107.637 88.6871C108.397 88.5863 109.2 88.5182 109.94 88.4554C110.017 88.4489 110.094 88.4424 110.169 88.4359C111.002 88.3649 111.771 88.2947 112.504 88.1866C114.019 87.9631 115.007 87.6225 115.627 87.141C116.412 86.533 116.982 85.4 117.217 83.5978C117.448 81.8292 117.295 79.8415 117.048 78.1185C116.854 76.7639 116.585 76.209 116.104 75.7751C115.381 75.1236 114.876 74.395 114.547 73.9207C114.495 73.8459 114.447 73.7768 114.403 73.7126C114.282 73.7582 114.147 73.8122 114 73.8753C113.504 74.0871 112.99 74.3444 112.515 74.5906C112.435 74.6319 112.347 74.6783 112.254 74.7272ZM115.099 73.5068C115.099 73.5069 115.096 73.5073 115.089 73.5078C115.096 73.5069 115.099 73.5067 115.099 73.5068Z" fill="#343A40"/>
<path fill-rule="evenodd" clip-rule="evenodd" d="M60.4615 76.0612C59.9691 75.4137 59.2013 74.9838 58.3249 74.9515C55.3814 74.8428 52.241 75.5354 49.8676 78.2615C49.5146 78.6669 48.9264 79.402 48.7353 80.3639C48.6219 80.9343 48.6258 81.7115 49.041 82.485C49.4488 83.2446 50.0709 83.6603 50.5461 83.8731C51.3661 84.2404 52.198 84.2111 52.581 84.1877C53.0744 84.1575 53.5795 84.072 54.0261 83.9787C55.5737 83.6554 58.0973 82.8042 57.9492 82.8446C58.4613 82.7049 59.1304 82.4485 59.6761 82.2395C59.7697 82.2036 59.8597 82.1691 59.9446 82.1369C59.9362 82.2076 59.9289 82.2795 59.9229 82.3524C59.8586 83.1322 60.1224 84.275 61.2048 84.9835C61.9991 85.5034 62.7843 85.4619 63.0037 85.4467C63.5292 85.4102 63.961 85.2359 64.094 85.1822L64.0993 85.18C64.4839 85.0249 64.8927 84.8031 65.1976 84.6291C65.363 84.5348 65.5429 84.4283 65.724 84.3177C65.9183 84.6832 66.305 85.3262 66.9703 85.8129C67.2543 86.0207 67.6365 86.2343 68.1078 86.3575C68.1111 86.3678 68.1145 86.3781 68.1179 86.3883C68.2072 86.6572 68.3431 87.0137 68.5528 87.3741C68.7527 87.7177 69.1231 88.2457 69.7609 88.6418C70.4876 89.0932 71.3521 89.2411 72.1965 89.055C72.8276 88.9159 73.3247 88.6189 73.6829 88.3439C73.9424 88.4022 74.2139 88.4428 74.4992 88.4663C76.0476 88.5941 77.4064 87.4424 77.5342 85.8941C77.661 84.3576 76.528 83.0078 74.9976 82.8623C74.8842 82.7959 74.6372 82.6601 74.343 82.5603C73.8918 82.4071 73.3839 82.3463 72.8494 82.4268C72.8122 82.3414 72.7706 82.2537 72.7243 82.1657L72.7186 82.1547C72.6119 81.9518 72.2997 81.3578 71.7176 80.9039C71.3802 80.6409 70.892 80.3752 70.2707 80.292C70.1743 79.9137 70.0747 79.5403 69.9781 79.261C69.9106 79.0659 69.7267 78.5402 69.3194 78.0558C69.0844 77.7762 68.7112 77.4318 68.1656 77.204C67.5956 76.9659 67.0245 76.9334 66.5335 77.0131C66.0859 77.0859 65.7153 77.2517 65.4479 77.4051C65.0991 76.9217 64.6406 76.5377 64.1108 76.2737C63.3534 75.8962 62.5975 75.834 62.0633 75.8428C61.5076 75.8521 60.9742 75.9434 60.5224 76.0471C60.5021 76.0517 60.4818 76.0564 60.4615 76.0612ZM70.7076 81.7027C70.7073 81.7035 70.7006 81.6932 70.688 81.6693C70.7015 81.6899 70.7078 81.7019 70.7076 81.7027ZM73.471 84.6531C73.471 84.6531 73.4704 84.6516 73.4692 84.6485C73.4704 84.6515 73.4711 84.6531 73.471 84.6531ZM62.1569 81.4684C62.1655 81.4682 62.1636 81.4687 62.1525 81.4685C62.1542 81.4684 62.1557 81.4684 62.1569 81.4684ZM60.5434 79.709C60.5441 79.6995 60.5448 79.6945 60.545 79.6944C60.5452 79.6943 60.5448 79.699 60.5434 79.709ZM52.2198 78.5728C52.1834 78.5746 52.1671 78.5737 52.168 78.5728C52.1689 78.572 52.1871 78.5711 52.2198 78.5728ZM54.01 82.0838C54.009 82.084 54.0169 82.0714 54.037 82.0452C54.0212 82.0705 54.0111 82.0836 54.01 82.0838Z" fill="#343A40"/>
<path fill-rule="evenodd" clip-rule="evenodd" d="M40.9865 87.8808C40.9583 86.8894 40.4056 85.9431 39.4614 85.4571C38.0801 84.746 36.3838 85.2894 35.6727 86.6708C35.6732 86.6698 35.6735 86.6693 35.6734 86.6693C35.6734 86.6693 35.6565 86.7002 35.6105 86.7718C35.5612 86.8485 35.4966 86.9437 35.4112 87.066C35.3655 87.1314 35.3068 87.2144 35.2411 87.3071C35.102 87.5034 34.932 87.7435 34.79 87.9525C34.5656 88.2829 34.2974 88.698 34.0721 89.142C33.8662 89.548 33.5769 90.2033 33.5129 90.9787C33.4013 92.3317 34.218 93.2419 34.8683 93.6378C35.3756 93.9467 35.8503 94.0159 35.9985 94.036C36.3633 94.0856 36.6799 94.0588 36.7919 94.049C37.0891 94.023 37.3996 93.9665 37.6082 93.9256C37.6945 93.9086 37.7798 93.8911 37.8609 93.8738C37.8367 93.9371 37.8122 94.0017 37.7873 94.0675C37.579 94.6195 37.3607 95.238 37.199 95.8491C37.0465 96.4257 36.8899 97.1899 36.932 97.9801C36.9748 98.7839 37.2613 100.052 38.4535 100.917C39.5679 101.725 40.8303 101.7 41.6696 101.567C42.4818 101.439 43.2228 101.305 43.9279 101.178C44.3992 101.093 44.8544 101.011 45.3042 100.936C45.293 101.011 45.2785 101.098 45.2602 101.21C45.2457 101.298 45.2288 101.4 45.209 101.524C45.1572 101.847 45.0582 102.467 45.0969 103.095C45.1336 103.69 45.3439 105.05 46.6576 105.903C47.8619 106.685 49.1571 106.473 49.8403 106.299C50.5125 106.127 51.2086 105.795 51.7017 105.551C51.9668 105.42 52.2413 105.279 52.4986 105.147L52.5288 105.131C52.6497 105.069 52.7677 105.008 52.8838 104.949C52.9062 105.033 52.9413 105.154 52.9913 105.286C53.166 105.747 53.5026 106.581 54.1783 107.209C54.5906 107.592 55.1933 107.96 55.9773 108.058C56.7336 108.153 57.3566 107.957 57.7595 107.771C58.3864 107.481 58.8929 107.003 59.0929 106.814C59.1044 106.803 59.1149 106.793 59.1244 106.785C59.2004 106.713 59.2698 106.647 59.3356 106.585C59.5293 106.401 59.6918 106.247 59.8999 106.071C59.9008 106.07 59.9017 106.069 59.9025 106.069C60.0822 106.269 60.347 106.554 60.663 106.818C61.0399 107.132 61.6047 107.516 62.3624 107.712C63.1652 107.92 63.9816 107.865 64.7479 107.594C66.4222 107.001 67.9686 106.115 69.2957 105.325C69.4381 105.444 69.5966 105.559 69.773 105.666C70.687 106.222 71.5982 106.169 72.0907 106.085C72.5362 106.01 72.9146 105.862 73.1551 105.757C73.2713 105.8 73.4127 105.849 73.5709 105.892C73.7547 105.942 73.9955 105.995 74.2752 106.018C75.8236 106.146 77.1824 104.994 77.3102 103.446C77.4294 102.001 76.4342 100.721 75.0421 100.453C75.0303 100.447 75.017 100.442 75.0011 100.435C74.9587 100.416 74.8977 100.389 74.796 100.345C74.6412 100.278 74.3234 100.142 73.9568 100.049C73.639 99.9689 73.0239 99.8503 72.3013 100.017C71.9321 99.6452 71.3812 99.252 70.6018 99.0924C69.4084 98.8482 68.4199 99.3121 67.8845 99.6209C67.4112 99.8939 66.9761 100.153 66.5659 100.397C65.5422 101.006 64.6739 101.523 63.7564 101.934C63.6514 101.818 63.5225 101.678 63.3769 101.535C62.974 101.139 62.4574 100.659 61.8645 100.319C61.1508 99.9101 60.1862 99.6258 59.0874 99.9076C58.5159 100.054 58.046 100.328 57.7093 100.565C57.6849 100.501 57.6581 100.434 57.6286 100.368C57.5685 100.232 57.4486 99.98 57.2449 99.7121C57.0866 99.5038 56.5808 98.8835 55.6437 98.6467C54.4941 98.3562 53.4017 98.6526 52.8027 98.8473C52.2469 99.0279 51.6902 99.2712 51.1937 99.5076C51.2075 99.3563 51.2177 99.2 51.2218 99.0427C51.2344 98.5658 51.22 97.5332 50.6011 96.5771C50.2492 96.0335 49.7297 95.5603 49.0492 95.2724C48.3981 94.997 47.7584 94.9576 47.2331 95.005C45.9091 95.1243 44.5244 95.3558 43.2329 95.5848C43.276 95.4754 43.3211 95.3614 43.3675 95.2441C43.6646 94.4931 44.0149 93.6077 44.2141 92.9329C44.3439 92.4934 44.5631 91.6812 44.4725 90.8339C44.4224 90.365 44.2513 89.6269 43.6631 88.9662C43.0255 88.2501 42.2048 87.9652 41.515 87.9083C41.34 87.8939 41.1634 87.885 40.9865 87.8808ZM40.7433 96.0158C40.7436 96.0154 40.7519 96.0143 40.7672 96.0136C40.7507 96.0158 40.743 96.0161 40.7433 96.0158ZM48.4278 100.852C48.4278 100.852 48.4303 100.851 48.4351 100.851C48.4302 100.852 48.4278 100.852 48.4278 100.852ZM55.1038 102.836C55.0983 102.84 55.0997 102.839 55.1077 102.833C55.1062 102.834 55.1049 102.835 55.1038 102.836ZM58.3349 103.56C58.3348 103.56 58.3328 103.552 58.3288 103.533C58.3329 103.55 58.3349 103.559 58.3349 103.56ZM73.1755 101.307C73.1747 101.305 73.1739 101.304 73.173 101.303C73.1766 101.308 73.1774 101.31 73.1755 101.307ZM75.118 100.484C75.1163 100.483 75.1147 100.483 75.1131 100.482C75.1344 100.489 75.1372 100.491 75.118 100.484ZM70.7012 104.491C70.7012 104.492 70.6996 104.492 70.6965 104.494C70.6996 104.492 70.7012 104.491 70.7012 104.491ZM54.7537 104.142C54.7534 104.143 54.7444 104.144 54.7274 104.146C54.7455 104.143 54.754 104.142 54.7537 104.142ZM52.4263 102.497C52.4241 102.49 52.4231 102.486 52.4232 102.486C52.4232 102.486 52.4243 102.49 52.4263 102.497ZM45.5976 98.874C45.5977 98.874 45.5977 98.8754 45.5977 98.8785C45.5976 98.8755 45.5976 98.874 45.5976 98.874ZM39.0545 91.7643C39.0542 91.7644 39.0562 91.7586 39.0614 91.7467C39.0574 91.7582 39.0547 91.7642 39.0545 91.7643Z" fill="#343A40"/>
<path fill-rule="evenodd" clip-rule="evenodd" d="M132.699 31.376C134.022 30.5616 135.755 30.9741 136.569 32.2973C140.062 37.9733 142.332 43.3834 141.736 50.6038C141.261 56.3632 140.615 62.475 139.099 68.3036C138.569 70.3407 137.829 71.9232 136.644 73.301C135.526 74.6002 134.128 75.5692 132.667 76.5404C132.081 76.9302 131.348 77.2505 130.864 77.4622L130.763 77.5063C130.508 77.6179 130.285 77.7151 130.088 77.8048C130.07 78.5805 129.733 79.3453 129.095 79.8865C127.91 80.891 126.134 80.7445 125.13 79.5593C124.723 79.0796 124.325 78.4288 124.18 77.608C124.026 76.7407 124.2 75.9346 124.542 75.275C125.127 74.1478 126.174 73.5112 126.712 73.2081C127.293 72.8811 127.951 72.5942 128.435 72.3832C128.481 72.3632 128.526 72.3438 128.568 72.3252C129.173 72.0605 129.44 71.9295 129.552 71.8551C131.047 70.8614 131.828 70.2717 132.378 69.6321C132.861 69.0711 133.277 68.3348 133.653 66.887C135.04 61.5586 135.657 55.8576 136.129 50.1411C136.586 44.6017 134.958 40.414 131.777 35.2462C130.963 33.923 131.375 32.1903 132.699 31.376Z" fill="#343A40"/>
<path fill-rule="evenodd" clip-rule="evenodd" d="M88.0962 101.923C89.6446 102.051 90.7962 103.41 90.6684 104.958C90.5585 106.29 90.62 107.683 90.6948 109.309L90.6969 109.355C90.7682 110.905 90.8494 112.668 90.7024 114.449C90.6668 114.881 90.6399 115.377 90.6108 115.914C90.5132 117.716 90.3898 119.994 89.8229 121.968C89.645 122.587 89.5667 123.122 89.4655 123.813C89.4018 124.248 89.3291 124.745 89.2168 125.364C88.969 126.729 88.5334 128.465 87.3216 130.019C85.3702 132.521 82.1636 133.286 79.5069 133.178C76.8247 133.069 73.8145 132.051 71.892 129.867C71.136 129.009 70.4366 128.065 70.0118 126.886C69.5783 125.682 69.5192 124.484 69.6216 123.243C69.8109 120.949 69.0464 118.555 68.1379 115.711C67.9953 115.265 67.8491 114.807 67.7025 114.337C67.24 112.854 68.0674 111.276 69.5507 110.814C71.0339 110.351 72.6112 111.179 73.0737 112.662C73.19 113.035 73.3188 113.431 73.4542 113.847C74.3454 116.587 75.5187 120.194 75.2289 123.705C75.1658 124.47 75.2375 124.791 75.3052 124.979C75.3818 125.192 75.5541 125.513 76.1147 126.149C76.7351 126.854 78.0936 127.49 79.7351 127.557C81.402 127.624 82.4739 127.086 82.885 126.559C83.2467 126.095 83.4825 125.453 83.681 124.359C83.7238 124.123 83.7696 123.819 83.8216 123.475C83.9585 122.568 84.1377 121.38 84.4153 120.414C84.7911 119.106 84.8645 117.777 84.9538 116.16C84.9907 115.491 85.0303 114.773 85.0952 113.987C85.209 112.607 85.1489 111.185 85.0745 109.567C85.0728 109.531 85.0711 109.495 85.0694 109.458C84.9991 107.931 84.9197 106.21 85.0612 104.495C85.189 102.947 86.5478 101.795 88.0962 101.923Z" fill="#343A40"/>
<path fill-rule="evenodd" clip-rule="evenodd" d="M84.4174 125.485C85.5226 124.393 87.3037 124.404 88.3957 125.509C90.4964 127.635 92.7813 129.744 95.1599 131.932C95.2451 132.01 95.3304 132.089 95.4158 132.167C97.6989 134.267 100.06 136.439 102.33 138.697C107.032 143.376 111.514 148.59 114.401 154.775C115.016 156.09 115.561 157.338 116.089 158.544C117.065 160.777 117.98 162.869 119.154 164.99C119.907 166.349 119.415 168.061 118.056 168.813C116.696 169.566 114.984 169.074 114.232 167.715C112.938 165.378 111.832 162.855 110.786 160.468C110.283 159.32 109.793 158.204 109.303 157.155C106.83 151.857 102.893 147.195 98.3617 142.686C96.1719 140.507 93.8831 138.402 91.5781 136.282C91.5024 136.212 91.4267 136.142 91.351 136.073C88.9857 133.897 86.6033 131.7 84.3935 129.464C83.3015 128.358 83.3122 126.577 84.4174 125.485Z" fill="#343A40"/>
<path fill-rule="evenodd" clip-rule="evenodd" d="M70.3036 125.084C71.2455 126.319 71.0072 128.085 69.7716 129.026C59.4032 136.929 49.5723 147.435 48.5429 159.909C48.4152 161.458 47.0564 162.609 45.508 162.482C43.9596 162.354 42.8079 160.995 42.9357 159.447C44.1768 144.407 55.8047 132.598 66.361 124.552C67.5966 123.61 69.3618 123.848 70.3036 125.084Z" fill="#343A40"/>
<path fill-rule="evenodd" clip-rule="evenodd" d="M123.337 53.0223C124.886 53.15 126.037 54.5088 125.91 56.0572C125.681 58.8238 125.332 61.5009 124.964 64.1258C124.764 65.5512 124.025 66.7784 123.613 67.4636C123.584 67.512 123.556 67.5576 123.531 67.6005C123.287 68.0086 123.137 68.2689 123.031 68.5005C122.951 68.6739 122.936 68.7514 122.934 68.7604C122.803 70.3055 121.446 71.4537 119.899 71.3261C118.351 71.1984 117.199 69.8396 117.327 68.2912C117.45 66.7971 118.219 65.5176 118.631 64.8322C118.654 64.7923 118.677 64.7544 118.699 64.7186C119.241 63.809 119.366 63.5277 119.392 63.344C119.756 60.747 120.088 58.1973 120.302 55.5945C120.43 54.0461 121.789 52.8945 123.337 53.0223Z" fill="#343A40"/>
<path fill-rule="evenodd" clip-rule="evenodd" d="M54.9182 139.274C56.468 139.384 57.635 140.73 57.5248 142.279C57.2305 146.419 57.5781 150.813 58.1487 155.106C58.2054 155.533 58.2518 156.002 58.2922 156.411C58.308 156.571 58.3228 156.721 58.3371 156.856C58.3937 157.395 58.4516 157.828 58.5347 158.202C58.596 158.478 58.6159 158.748 58.6236 158.855L58.6238 158.858C58.6347 159.006 58.6428 159.171 58.6495 159.307L58.6498 159.312C58.6581 159.482 58.6657 159.638 58.6749 159.782C58.8075 159.965 58.9201 160.167 59.0081 160.387C59.5863 161.829 58.886 163.466 57.4439 164.045C56.4709 164.435 55.3426 164.309 54.4694 163.628C53.8183 163.12 53.5419 162.479 53.4382 162.214C53.2088 161.627 53.1358 160.998 53.1022 160.664C53.0644 160.288 53.0455 159.901 53.0325 159.635C53.0317 159.617 53.0308 159.6 53.03 159.583C53.0217 159.415 53.0155 159.324 53.0134 159.288C52.8768 158.637 52.7996 157.996 52.7416 157.445C52.7189 157.229 52.6998 157.035 52.6818 156.853C52.6461 156.49 52.6153 156.177 52.5715 155.847C51.9794 151.393 51.5793 146.57 51.9127 141.881C52.0229 140.331 53.3685 139.164 54.9182 139.274Z" fill="#343A40"/>
<path fill-rule="evenodd" clip-rule="evenodd" d="M65.6393 129.246C67.1927 129.272 68.4308 130.552 68.4046 132.106C68.3787 133.643 68.6877 135.087 69.0633 136.843C69.2016 137.489 69.3489 138.178 69.4919 138.929C70.0711 141.971 70.5799 145.04 70.9481 148.159C71.0677 149.173 71.2348 150.183 71.4144 151.269C71.4529 151.502 71.4919 151.738 71.5311 151.978C71.7476 153.303 71.9659 154.729 72.0682 156.182C72.0918 156.517 72.1108 156.825 72.1286 157.116C72.1822 157.986 72.2256 158.692 72.351 159.426C72.3855 159.627 72.4404 160.03 72.4865 160.367C72.498 160.451 72.5089 160.532 72.5188 160.603C72.6835 161.003 72.7585 161.446 72.7205 161.906C72.714 161.985 72.6991 162.147 72.6601 162.334C72.6416 162.422 72.6002 162.605 72.5141 162.822L72.5118 162.828C72.46 162.958 72.2201 163.564 71.5833 164.043C71.194 164.336 70.6256 164.601 69.9218 164.609C69.2351 164.618 68.6952 164.378 68.3482 164.152C67.7621 163.77 67.4859 163.274 67.4221 163.16L67.4198 163.156C67.2501 162.852 67.1717 162.575 67.1534 162.51L67.1517 162.504C67.067 162.207 67.012 161.835 66.9859 161.658L66.9842 161.647C66.9412 161.356 66.9093 161.116 66.8823 160.913C66.8533 160.694 66.8302 160.52 66.8052 160.374C66.6232 159.31 66.5557 158.193 66.4995 157.264C66.4848 157.021 66.4709 156.791 66.4559 156.578C66.373 155.401 66.1921 154.193 65.9785 152.885C65.9433 152.67 65.907 152.451 65.8703 152.229C65.6899 151.139 65.497 149.975 65.3605 148.818C65.0125 145.87 64.5278 142.938 63.9648 139.981C63.8785 139.527 63.7707 139.028 63.6557 138.494C63.2453 136.592 62.7413 134.255 62.7791 132.011C62.8053 130.458 64.0859 129.22 65.6393 129.246ZM67.1144 161.431C67.1138 161.437 67.1135 161.441 67.1134 161.443L67.1133 161.443C67.1136 161.439 67.114 161.435 67.1144 161.431Z" fill="#343A40"/>
<path fill-rule="evenodd" clip-rule="evenodd" d="M80.4297 130.681C81.9822 130.742 83.1918 132.049 83.1314 133.602C83.0394 135.967 83.3976 138.425 83.911 141.087C84.0459 141.786 84.1947 142.513 84.3468 143.256C84.7505 145.228 85.1783 147.318 85.437 149.339C85.5054 149.873 85.5777 150.418 85.6511 150.971C85.9511 153.233 86.2701 155.637 86.4165 158.03C86.8417 158.071 87.2639 158.21 87.6493 158.454C88.9617 159.285 89.3513 161.023 88.5197 162.336C88.5314 162.317 88.5105 162.359 88.3071 162.715C88.1575 162.976 87.9529 163.328 87.7345 163.671C87.5402 163.977 87.2444 164.422 86.9121 164.787C86.79 164.921 86.4151 165.33 85.839 165.607C85.5294 165.756 84.9027 165.992 84.1047 165.867C83.1914 165.723 82.5296 165.185 82.1469 164.617C81.7758 164.065 81.6714 163.526 81.635 163.224C81.6252 163.142 81.619 163.064 81.6151 162.991C81.166 161.823 80.8914 160.454 80.8472 159.301C80.7534 156.852 80.4273 154.388 80.0852 151.803C80.0089 151.227 79.9318 150.644 79.8563 150.054C79.6259 148.254 79.2638 146.486 78.8766 144.595C78.715 143.805 78.549 142.995 78.3865 142.152C77.8548 139.395 77.3913 136.417 77.5093 133.383C77.5697 131.83 78.8772 130.621 80.4297 130.681Z" fill="#343A40"/>
<path fill-rule="evenodd" clip-rule="evenodd" d="M92.3574 134.124C93.8993 133.933 95.3042 135.028 95.4954 136.57C96.2387 142.564 97.5778 148.204 99.1671 154.162C99.4309 155.151 99.7877 156.131 100.2 157.223C100.246 157.345 100.292 157.468 100.34 157.593C100.704 158.553 101.105 159.613 101.44 160.704C101.532 161.001 101.616 161.282 101.698 161.555C101.71 161.593 101.722 161.632 101.733 161.671C102.207 161.902 102.622 162.27 102.912 162.757C103.708 164.091 103.272 165.818 101.938 166.614C101.746 166.728 101.631 166.81 101.525 166.885L101.516 166.892C101.515 166.892 101.514 166.893 101.512 166.895C101.482 166.916 101.308 167.042 101.127 167.144C101.029 167.199 100.76 167.348 100.388 167.441C99.987 167.542 99.2391 167.633 98.4326 167.236C97.6459 166.849 97.2713 166.227 97.1161 165.902C96.9659 165.588 96.9071 165.315 96.888 165.224C96.8645 165.112 96.8505 165.015 96.8456 164.981L96.8454 164.979L96.8331 164.891L96.8327 164.889C96.8281 164.857 96.8244 164.831 96.8046 164.77C96.6276 164.229 96.4491 163.637 96.2836 163.087C96.2066 162.831 96.1324 162.585 96.0625 162.357C95.7834 161.449 95.4492 160.566 95.0785 159.587C95.0316 159.463 94.984 159.337 94.9359 159.21C94.522 158.113 94.0744 156.9 93.7309 155.612C92.1205 149.575 90.703 143.641 89.9119 137.262C89.7207 135.72 90.8156 134.315 92.3574 134.124Z" fill="#343A40"/>
<path fill-rule="evenodd" clip-rule="evenodd" d="M92.4735 141.231C90.735 141.064 89.158 140.913 87.5392 140.938C80.771 141.042 73.8687 140.353 67.2071 139.688C64.6899 139.436 62.2071 139.188 59.7789 138.988C58.2305 138.86 57.0789 137.501 57.2066 135.953C57.3344 134.405 58.6932 133.253 60.2416 133.381C62.8835 133.599 65.4939 133.859 68.0825 134.118C74.6263 134.771 81.0309 135.411 87.4526 135.312C89.4122 135.282 91.4461 135.478 93.2748 135.654C93.867 135.711 94.4377 135.766 94.9774 135.81C96.5258 135.938 97.6775 137.297 97.5497 138.845C97.4219 140.394 96.0631 141.545 94.5147 141.418C93.8042 141.359 93.1274 141.294 92.4735 141.231Z" fill="#343A40"/>
<path fill-rule="evenodd" clip-rule="evenodd" d="M97.8813 153.38C97.1209 153.367 96.2423 153.352 95.393 153.282C87.9162 152.665 80.4284 152.156 72.9164 151.645L72.908 151.645C65.4055 151.135 57.8789 150.623 50.3556 150.002C48.8072 149.874 47.6556 148.516 47.7834 146.967C47.9111 145.419 49.2699 144.267 50.8183 144.395C58.2972 145.012 65.786 145.521 73.298 146.032L73.3096 146.033C80.811 146.543 88.3355 147.054 95.8557 147.675C96.505 147.728 97.1192 147.739 97.8293 147.751C98.0984 147.755 98.3812 147.76 98.685 147.768C99.7201 147.793 100.912 147.852 102.159 148.105C103.055 148.288 104.011 148.381 105.027 148.422C105.009 148.421 104.998 148.421 104.998 148.42C104.998 148.42 105.06 148.419 105.245 148.415C105.423 148.412 105.672 148.408 105.89 148.409C105.995 148.41 106.132 148.412 106.268 148.42C106.333 148.424 106.441 148.432 106.565 148.449L106.567 148.449C106.595 148.453 107.021 148.502 107.473 148.728C107.475 148.729 107.478 148.73 107.481 148.732C107.626 148.803 108.654 149.31 108.961 150.599C109.347 152.216 108.262 153.219 108.028 153.415C107.701 153.689 107.389 153.822 107.298 153.86C107.162 153.917 107.047 153.954 106.979 153.974C106.747 154.043 106.51 154.083 106.381 154.104C105.971 154.172 105.566 154.147 105.189 154.044C105.063 154.046 104.906 154.048 104.803 154.044C103.595 153.996 102.32 153.88 101.036 153.619C100.289 153.467 99.4976 153.416 98.5462 153.392C98.3387 153.387 98.1156 153.384 97.8813 153.38ZM105.531 148.542C105.531 148.542 105.528 148.542 105.522 148.544C105.528 148.542 105.531 148.542 105.531 148.542Z" fill="#343A40"/>
<path fill-rule="evenodd" clip-rule="evenodd" d="M46.1494 156.685C47.6778 156.964 48.6903 158.43 48.411 159.958C47.9878 162.273 47.8069 164.596 47.6126 167.09C47.5696 167.642 47.5259 168.203 47.4788 168.774C47.351 170.323 45.9922 171.475 44.4438 171.347C42.8954 171.219 41.7437 169.86 41.8715 168.312C41.9137 167.801 41.954 167.28 41.9949 166.753C42.1889 164.247 42.3959 161.575 42.8763 158.946C43.1557 157.418 44.6211 156.406 46.1494 156.685Z" fill="#343A40"/>
<path fill-rule="evenodd" clip-rule="evenodd" d="M113.237 168.43C113.013 168.438 112.587 168.455 112.264 168.429L107.192 168.01C105.282 167.852 103.352 167.797 101.33 167.741L101.299 167.74C99.3123 167.684 97.2372 167.625 95.1555 167.454C92.1638 167.207 89.1452 167.131 86.0477 167.072C85.6967 167.065 85.3445 167.059 84.9911 167.053C82.2518 167.003 79.446 166.951 76.6443 166.786C72.4314 166.538 68.2201 166.722 63.8379 166.913C63.6739 166.92 63.5097 166.927 63.3452 166.934C58.8368 167.13 54.1511 167.316 49.4085 166.954C47.8594 166.835 46.6995 165.484 46.8179 163.934C46.9363 162.385 48.2881 161.225 49.8372 161.344C54.197 161.677 58.5627 161.51 63.1011 161.313C63.2964 161.305 63.4922 161.296 63.6882 161.288C67.9952 161.1 72.4668 160.905 76.975 161.17C79.6547 161.328 82.3406 161.377 85.0932 161.427C85.4457 161.434 85.7993 161.44 86.1542 161.447C89.254 161.505 92.4311 161.583 95.6182 161.846C97.5338 162.004 99.4675 162.06 101.489 162.116L101.529 162.118C103.512 162.173 105.581 162.232 107.654 162.403L112.703 162.819C112.696 162.819 112.692 162.818 112.692 162.818C112.692 162.816 112.788 162.816 113.05 162.806C113.108 162.804 113.173 162.801 113.242 162.798C113.471 162.789 113.746 162.778 113.979 162.773C114.134 162.77 114.32 162.768 114.5 162.775C114.502 162.775 114.506 162.775 114.51 162.775C114.596 162.778 115.055 162.791 115.523 162.952C115.671 163.004 116 163.128 116.347 163.396C116.703 163.671 117.315 164.293 117.432 165.319C117.547 166.332 117.101 167.063 116.838 167.396C116.576 167.729 116.299 167.926 116.169 168.012C115.758 168.286 115.31 168.422 115.182 168.461C115.176 168.463 115.17 168.465 115.165 168.466C114.559 168.652 113.938 168.624 113.385 168.424C113.347 168.425 113.309 168.427 113.27 168.428L113.237 168.43ZM113.569 163.069C113.57 163.069 113.554 163.075 113.515 163.087C113.548 163.075 113.567 163.069 113.569 163.069ZM114.285 168.397C114.343 168.399 114.328 168.402 114.264 168.397C114.274 168.397 114.28 168.397 114.285 168.397Z" fill="#343A40"/>
<path fill-rule="evenodd" clip-rule="evenodd" d="M92.6593 72.0323C92.787 70.4839 94.1458 69.3322 95.6942 69.46L108.186 70.4908C109.734 70.6186 110.886 71.9774 110.758 73.5258C110.63 75.0741 109.272 76.2258 107.723 76.098L95.2315 75.0672C93.6831 74.9395 92.5315 73.5807 92.6593 72.0323Z" fill="#343A40"/>
<path fill-rule="evenodd" clip-rule="evenodd" d="M35.9085 55.136C35.1185 55.0708 34.3233 55.107 33.2908 55.166C31.7397 55.2547 30.4104 54.0691 30.3217 52.518C30.233 50.9669 31.4186 49.6376 32.9697 49.5489C33.9734 49.4915 35.1376 49.427 36.3712 49.5288C37.9196 49.6565 39.0712 51.0154 38.9434 52.5637C38.8157 54.1121 37.4569 55.2638 35.9085 55.136Z" fill="#343A40"/>
<path fill-rule="evenodd" clip-rule="evenodd" d="M88.1945 89.4278C88.376 89.6993 88.5531 89.9897 88.7119 90.2499C88.7973 90.39 88.8774 90.5214 88.95 90.6363C89.6283 91.7102 89.9342 93.0297 90.103 94.0595C90.1154 94.1355 90.1285 94.2135 90.1419 94.2933C90.2421 94.8902 90.36 95.5926 90.36 96.3303C90.36 96.3465 90.36 96.3638 90.3601 96.3821C90.3605 96.6069 90.3611 96.9814 90.3086 97.3508C90.2565 97.717 90.1221 98.3355 89.6486 98.809C89.6321 98.8255 89.6053 98.8538 89.5709 98.8901C89.4414 99.0268 89.204 99.2775 88.9984 99.4457C88.8047 99.6041 88.6064 99.6895 88.4607 99.7382C88.3168 99.7863 88.1851 99.811 88.1041 99.8248C88.0645 99.8315 88.0259 99.8374 87.9988 99.8416L87.9939 99.8423C87.9645 99.8468 87.947 99.8495 87.9325 99.852C87.4836 100.003 87.035 100.003 86.7395 99.9925C86.6037 99.9877 86.4659 99.9785 86.3534 99.971C86.333 99.9697 86.3135 99.9684 86.295 99.9671C86.1615 99.9584 86.0678 99.9535 85.991 99.9535C85.1611 99.9535 84.3541 99.6143 83.7288 99.2239C83.0925 98.8266 82.4889 98.2794 82.0945 97.6763C81.7591 97.1633 81.6608 96.6353 81.6318 96.2102C81.6142 95.9529 81.6223 95.6201 81.6278 95.3922C81.6299 95.3098 81.6315 95.2411 81.6315 95.1947C81.6315 94.0394 82.0629 92.8334 82.3729 91.9669C82.418 91.8407 82.4606 91.7217 82.4989 91.6111C82.9867 90.2019 84.2509 89.0395 85.4783 88.4791C85.7199 88.3688 85.9784 88.3422 86.2212 88.387C86.2341 88.3794 86.2473 88.3719 86.2605 88.3646C86.5334 88.2149 86.7953 88.1934 86.9486 88.1934C87.6329 88.1934 88.1883 88.745 88.1945 89.4278ZM87.9139 99.8555C87.9139 99.8555 87.9147 99.8553 87.9165 99.8549L87.9139 99.8555ZM86.192 90.9166C85.5735 91.2914 85.0407 91.8862 84.8537 92.4262C84.8047 92.5679 84.7563 92.7056 84.7091 92.8398C84.3871 93.7559 84.1235 94.5058 84.1235 95.1947C84.1235 95.3197 84.1199 95.4563 84.117 95.5705C84.1158 95.6137 84.1148 95.6537 84.1141 95.6886C84.111 95.8347 84.1114 95.945 84.1179 96.0405C84.1305 96.2244 84.1621 96.2849 84.1802 96.3126C84.3369 96.5523 84.6507 96.8617 85.0487 97.1102C85.4577 97.3656 85.802 97.4616 85.991 97.4616C86.1578 97.4616 86.3241 97.4718 86.4578 97.4805C86.4823 97.4821 86.5058 97.4837 86.5286 97.4852C86.6414 97.4927 86.7342 97.4989 86.8277 97.5022C87.0488 97.51 87.1267 97.4928 87.1352 97.491C87.1359 97.4908 87.1361 97.4908 87.1358 97.4909C87.2866 97.437 87.4251 97.4108 87.5052 97.397C87.5238 97.3937 87.5421 97.3907 87.5592 97.388C87.5795 97.3668 87.601 97.3438 87.6256 97.3175C87.6736 97.2662 87.7334 97.2022 87.8197 97.1143C87.8262 97.0891 87.8341 97.0518 87.8415 97C87.8681 96.813 87.8681 96.6017 87.8681 96.3408V96.3303C87.8681 95.8136 87.7869 95.3251 87.6843 94.7072C87.6711 94.6279 87.6576 94.5465 87.6439 94.4627C87.4879 93.5112 87.2444 92.6024 86.8431 91.967C86.724 91.7783 86.6228 91.612 86.5284 91.4567C86.4131 91.267 86.3078 91.0938 86.192 90.9166Z" fill="#5DBDF3"/>
<path fill-rule="evenodd" clip-rule="evenodd" d="M87.8118 89.9647C87.7802 89.86 87.7342 89.7578 87.6732 89.6607C87.3068 89.0782 86.5376 88.9031 85.9551 89.2695C85.812 89.3595 85.6943 89.4174 85.5323 89.4971C85.4277 89.5486 85.3046 89.6092 85.1443 89.6934C85.1021 89.7155 85.0549 89.7387 84.9884 89.7711C84.9854 89.7726 84.9823 89.7741 84.9792 89.7756C84.9194 89.8048 84.8435 89.8418 84.7669 89.8816C84.6088 89.9637 84.3892 90.0868 84.1782 90.2653C84.1686 90.2734 84.1558 90.2837 84.124 90.3091L84.122 90.3108C84.0953 90.3321 84.0541 90.3651 84.0115 90.4011C83.9313 90.4692 83.785 90.5984 83.6556 90.7796C83.6183 90.8318 83.546 90.9402 83.4914 91.0932C83.4397 91.2382 83.358 91.5543 83.488 91.9273C83.4975 91.9545 83.5077 91.9808 83.5185 92.0064C83.4966 92.0213 83.4684 92.0407 83.4462 92.0563C83.3589 92.1182 83.167 92.2582 83.003 92.4837C82.9014 92.6234 82.6792 92.9947 82.7879 93.4964C82.8888 93.9619 83.2018 94.2089 83.3795 94.3149C83.3631 94.3751 83.3505 94.4386 83.3428 94.5055C83.3342 94.5434 83.3171 94.6199 83.3046 94.6949C83.3043 94.6964 83.304 94.698 83.3037 94.6998C83.2976 94.736 83.282 94.8289 83.2792 94.9506C82.9879 95.1949 82.5977 95.6827 82.7088 96.3767C82.8221 97.0839 83.3718 97.4317 83.6852 97.5697C84.1077 97.7558 84.5269 97.8373 84.8324 97.8919C84.8957 97.9032 84.9538 97.9134 85.0077 97.9228C85.1886 97.9545 85.3217 97.9778 85.443 98.0077C85.4435 98.0082 85.444 98.0086 85.4445 98.0091C85.4825 98.0449 85.5566 98.1146 85.6244 98.1721C85.7165 98.2504 85.8532 98.3568 86.0305 98.4483C86.6477 98.7669 87.2255 98.7429 87.7486 98.5813C87.8323 98.5555 88.0037 98.5018 88.1822 98.4112C88.3539 98.3242 88.636 98.1524 88.8487 97.8334C88.9658 97.6577 89.105 97.3846 89.1437 97.0465C89.1829 96.7045 89.2071 96.3543 89.2071 95.993C89.2071 95.9578 89.2056 95.9229 89.2028 95.8885C89.3349 95.6261 89.384 95.34 89.3642 95.0616C89.3418 94.748 89.2264 94.4823 89.0992 94.2868C89.0307 94.1816 88.9421 94.071 88.8311 93.9683C88.8606 93.9243 88.8902 93.8757 88.9181 93.8229C88.9922 93.6828 89.1473 93.3405 89.0631 92.9025C88.9989 92.5684 88.8297 92.3407 88.6601 92.19C88.7645 92.0891 88.8834 91.9448 88.9699 91.7501C89.2965 91.0153 88.8216 90.4666 88.6952 90.3447C88.548 90.2028 88.4008 90.1327 88.363 90.1147L88.3621 90.1143C88.2616 90.0664 88.1739 90.0415 88.1501 90.0347L88.1488 90.0344C88.0819 90.0153 88.0175 90.0022 87.9822 89.9952C87.9291 89.9847 87.8696 89.9742 87.8118 89.9647Z" fill="#5DBDF3"/>
<path fill-rule="evenodd" clip-rule="evenodd" d="M94.591 106.695C94.7725 106.967 94.9496 107.257 95.1083 107.517C95.1938 107.658 95.2739 107.789 95.3465 107.904C96.0248 108.978 96.3307 110.297 96.4995 111.327C96.5119 111.403 96.525 111.481 96.5384 111.561C96.6386 112.158 96.7565 112.86 96.7565 113.598C96.7565 113.614 96.7565 113.631 96.7566 113.65C96.757 113.874 96.7576 114.249 96.7051 114.618C96.653 114.985 96.5186 115.603 96.0451 116.077C96.0286 116.093 96.0018 116.121 95.9674 116.158C95.8379 116.294 95.6005 116.545 95.3948 116.713C95.2012 116.872 95.0029 116.957 94.8572 117.006C94.7133 117.054 94.5816 117.079 94.5006 117.092C94.461 117.099 94.4224 117.105 94.3953 117.109L94.3904 117.11C94.3609 117.114 94.3435 117.117 94.329 117.12C93.8801 117.27 93.4315 117.271 93.136 117.26C93.0002 117.255 92.8624 117.246 92.7499 117.239C92.7295 117.237 92.71 117.236 92.6915 117.235C92.558 117.226 92.4643 117.221 92.3874 117.221C91.5576 117.221 90.7506 116.882 90.1253 116.492C89.489 116.094 88.8854 115.547 88.491 114.944C88.1556 114.431 88.0573 113.903 88.0283 113.478C88.0107 113.22 88.0188 112.888 88.0243 112.66C88.0263 112.577 88.028 112.509 88.028 112.462C88.028 111.307 88.4594 110.101 88.7694 109.235C88.8145 109.108 88.8571 108.989 88.8954 108.879C89.3832 107.469 90.6474 106.307 91.8748 105.747C92.1164 105.636 92.3749 105.61 92.6177 105.655C92.6306 105.647 92.6437 105.639 92.657 105.632C92.9299 105.482 93.1918 105.461 93.3451 105.461C94.0293 105.461 94.5848 106.013 94.591 106.695ZM94.3104 117.123C94.3103 117.123 94.3112 117.123 94.313 117.122L94.3104 117.123ZM92.5884 108.184C91.97 108.559 91.4371 109.154 91.2502 109.694C91.2012 109.835 91.1528 109.973 91.1056 110.107C90.7835 111.024 90.5199 111.773 90.5199 112.462C90.5199 112.587 90.5164 112.724 90.5134 112.838C90.5123 112.881 90.5113 112.921 90.5106 112.956C90.5075 113.102 90.5079 113.213 90.5144 113.308C90.527 113.492 90.5586 113.552 90.5767 113.58C90.7334 113.82 91.0472 114.129 91.4452 114.378C91.8542 114.633 92.1985 114.729 92.3874 114.729C92.5542 114.729 92.7206 114.739 92.8543 114.748C92.8788 114.75 92.9023 114.751 92.9251 114.753C93.0379 114.76 93.1307 114.766 93.2242 114.77C93.4453 114.778 93.5232 114.76 93.5317 114.759C93.5324 114.758 93.5326 114.758 93.5323 114.758C93.683 114.705 93.8216 114.678 93.9017 114.665C93.9203 114.661 93.9386 114.658 93.9557 114.656C93.976 114.634 93.9975 114.611 94.0221 114.585C94.0701 114.534 94.1298 114.47 94.2162 114.382C94.2227 114.357 94.2306 114.319 94.238 114.268C94.2646 114.081 94.2646 113.869 94.2646 113.608V113.598C94.2646 113.081 94.1834 112.593 94.0808 111.975C94.0676 111.895 94.0541 111.814 94.0404 111.73C93.8844 110.779 93.6409 109.87 93.2396 109.235C93.1205 109.046 93.0193 108.88 92.9249 108.724C92.8096 108.535 92.7043 108.361 92.5884 108.184Z" fill="#5DBDF3"/>
<path fill-rule="evenodd" clip-rule="evenodd" d="M94.2083 107.234C94.1767 107.13 94.1307 107.027 94.0697 106.93C93.7033 106.348 92.934 106.173 92.3516 106.539C92.2084 106.629 92.0908 106.687 91.9287 106.767C91.8241 106.818 91.7011 106.879 91.5407 106.963C91.4986 106.985 91.4514 107.008 91.3849 107.041C91.3818 107.042 91.3788 107.044 91.3756 107.045C91.3159 107.074 91.24 107.111 91.1634 107.151C91.0053 107.233 90.7857 107.356 90.5747 107.535C90.5651 107.543 90.5523 107.553 90.5205 107.579L90.5184 107.58C90.4918 107.602 90.4506 107.635 90.408 107.671C90.3277 107.739 90.1815 107.868 90.0521 108.049C90.0148 108.101 89.9425 108.21 89.8879 108.363C89.8362 108.508 89.7545 108.824 89.8845 109.197C89.894 109.224 89.9042 109.25 89.915 109.276C89.8931 109.291 89.8648 109.31 89.8427 109.326C89.7554 109.388 89.5635 109.528 89.3994 109.753C89.2979 109.893 89.0756 110.264 89.1844 110.766C89.2853 111.231 89.5983 111.478 89.776 111.584C89.7596 111.645 89.747 111.708 89.7393 111.775C89.7307 111.813 89.7136 111.889 89.7011 111.964C89.7008 111.966 89.7005 111.968 89.7002 111.969C89.6941 112.006 89.6785 112.098 89.6757 112.22C89.3844 112.464 88.9942 112.952 89.1053 113.646C89.2186 114.353 89.7683 114.701 90.0816 114.839C90.5042 115.025 90.9234 115.107 91.2288 115.161C91.2922 115.173 91.3503 115.183 91.4042 115.192C91.585 115.224 91.7182 115.247 91.8395 115.277C91.84 115.278 91.8405 115.278 91.841 115.279C91.879 115.314 91.9531 115.384 92.0209 115.442C92.113 115.52 92.2497 115.626 92.427 115.718C93.0442 116.036 93.622 116.012 94.1451 115.851C94.2288 115.825 94.4002 115.771 94.5787 115.681C94.7504 115.594 95.0324 115.422 95.2451 115.103C95.3623 114.927 95.5015 114.654 95.5402 114.316C95.5794 113.974 95.6036 113.624 95.6036 113.263C95.6036 113.227 95.6021 113.192 95.5993 113.158C95.7314 112.896 95.7805 112.609 95.7606 112.331C95.7382 112.018 95.6229 111.752 95.4957 111.556C95.4272 111.451 95.3385 111.341 95.2276 111.238C95.2571 111.194 95.2867 111.145 95.3146 111.092C95.3887 110.952 95.5438 110.61 95.4596 110.172C95.3953 109.838 95.2261 109.61 95.0566 109.46C95.161 109.359 95.2798 109.214 95.3663 109.02C95.6929 108.285 95.2181 107.736 95.0917 107.614C94.9445 107.472 94.7973 107.402 94.7595 107.384L94.7586 107.384C94.6581 107.336 94.5703 107.311 94.5465 107.304L94.5453 107.304C94.4784 107.285 94.414 107.272 94.3787 107.265C94.3255 107.254 94.2661 107.244 94.2083 107.234Z" fill="#5DBDF3"/>
<path fill-rule="evenodd" clip-rule="evenodd" d="M45.8312 66.1701C46.0127 66.4416 46.1899 66.732 46.3486 66.9922C46.434 67.1323 46.5142 67.2637 46.5867 67.3786C47.265 68.4525 47.5709 69.772 47.7397 70.8019C47.7522 70.8778 47.7653 70.9558 47.7787 71.0357C47.8788 71.6325 47.9967 72.3349 47.9967 73.0727C47.9967 73.0889 47.9968 73.1061 47.9968 73.1244C47.9972 73.3492 47.9979 73.7237 47.9453 74.0931C47.8933 74.4593 47.7589 75.0778 47.2853 75.5513C47.2688 75.5678 47.242 75.5961 47.2076 75.6325C47.0782 75.7691 46.8407 76.0198 46.6351 76.188C46.4414 76.3464 46.2432 76.4319 46.0974 76.4805C45.9535 76.5286 45.8219 76.5533 45.7408 76.5671C45.7012 76.5738 45.6627 76.5797 45.6355 76.5839L45.6306 76.5846C45.6012 76.5891 45.5837 76.5918 45.5692 76.5943C45.1204 76.7451 44.6717 76.7453 44.3762 76.7349C44.2404 76.73 44.1026 76.7208 43.9901 76.7133C43.9698 76.712 43.9503 76.7107 43.9317 76.7095C43.7982 76.7007 43.7046 76.6958 43.6277 76.6958C42.7978 76.6958 41.9908 76.3567 41.3656 75.9662C40.7292 75.5689 40.1256 75.0217 39.7312 74.4186C39.3959 73.9057 39.2975 73.3776 39.2685 72.9525C39.251 72.6952 39.259 72.3624 39.2646 72.1345C39.2666 72.0521 39.2682 71.9834 39.2682 71.937C39.2682 70.7818 39.6997 69.5757 40.0096 68.7092C40.0547 68.583 40.0973 68.464 40.1356 68.3534C40.6234 66.9442 41.8876 65.7818 43.115 65.2214C43.3567 65.1111 43.6151 65.0845 43.8579 65.1294C43.8709 65.1217 43.884 65.1142 43.8973 65.1069C44.1701 64.9572 44.432 64.9357 44.5853 64.9357C45.2696 64.9357 45.825 65.4873 45.8312 66.1701ZM45.5506 76.5978C45.5506 76.5978 45.5514 76.5976 45.5532 76.5972L45.5506 76.5978ZM43.8287 67.6589C43.2102 68.0337 42.6774 68.6285 42.4904 69.1685C42.4414 69.3102 42.393 69.4479 42.3458 69.5821C42.0238 70.4982 41.7602 71.2481 41.7602 71.937C41.7602 72.062 41.7566 72.1986 41.7537 72.3128C41.7526 72.356 41.7515 72.396 41.7508 72.4309C41.7477 72.577 41.7481 72.6873 41.7547 72.7828C41.7672 72.9667 41.7988 73.0272 41.8169 73.0549C41.9736 73.2946 42.2874 73.604 42.6854 73.8525C43.0945 74.108 43.4387 74.2039 43.6277 74.2039C43.7945 74.2039 43.9608 74.2141 44.0945 74.2228C44.119 74.2244 44.1426 74.226 44.1653 74.2275C44.2781 74.235 44.3709 74.2412 44.4644 74.2445C44.6855 74.2523 44.7634 74.2351 44.7719 74.2333C44.7726 74.2331 44.7729 74.2331 44.7726 74.2332C44.9233 74.1793 45.0618 74.1531 45.142 74.1393C45.1605 74.1361 45.1788 74.1331 45.1959 74.1303C45.2163 74.1091 45.2377 74.0861 45.2624 74.0598C45.3103 74.0085 45.3701 73.9445 45.4565 73.8566C45.4629 73.8314 45.4708 73.7941 45.4782 73.7423C45.5048 73.5553 45.5048 73.344 45.5048 73.0831V73.0727C45.5048 72.5559 45.4237 72.0674 45.321 71.4495C45.3079 71.3702 45.2943 71.2888 45.2806 71.205C45.1246 70.2535 44.8811 69.3447 44.4798 68.7093C44.3607 68.5206 44.2596 68.3543 44.1652 68.199C44.0498 68.0093 43.9445 67.8361 43.8287 67.6589Z" fill="#5DBDF3"/>
<path fill-rule="evenodd" clip-rule="evenodd" d="M45.4485 66.7069C45.4169 66.6022 45.3709 66.5 45.3099 66.4029C44.9435 65.8204 44.1743 65.6453 43.5918 66.0117C43.4487 66.1017 43.331 66.1596 43.169 66.2393C43.0644 66.2908 42.9413 66.3514 42.781 66.4355C42.7389 66.4577 42.6916 66.4808 42.6251 66.5133C42.6221 66.5148 42.619 66.5163 42.6159 66.5178C42.5561 66.5469 42.4802 66.5839 42.4036 66.6237C42.2455 66.7059 42.0259 66.829 41.8149 67.0075C41.8054 67.0156 41.7926 67.0259 41.7607 67.0513L41.7587 67.053C41.732 67.0743 41.6908 67.1072 41.6482 67.1433C41.568 67.2114 41.4217 67.3406 41.2923 67.5217C41.255 67.574 41.1827 67.6824 41.1282 67.8354C41.0764 67.9804 40.9948 68.2965 41.1248 68.6695C41.1342 68.6967 41.1444 68.723 41.1552 68.7485C41.1333 68.7635 41.1051 68.7828 41.083 68.7985C40.9956 68.8604 40.8037 69.0003 40.6397 69.2259C40.5381 69.3656 40.3159 69.7369 40.4246 70.2386C40.5255 70.7041 40.8385 70.951 41.0162 71.0571C40.9998 71.1173 40.9873 71.1808 40.9795 71.2477C40.9709 71.2856 40.9538 71.362 40.9413 71.437C40.941 71.4386 40.9408 71.4402 40.9405 71.442C40.9344 71.4782 40.9187 71.5711 40.916 71.6928C40.6246 71.937 40.2344 72.4249 40.3456 73.1189C40.4588 73.8261 41.0085 74.1739 41.3219 74.3119C41.7444 74.498 42.1637 74.5795 42.4691 74.6341C42.5324 74.6454 42.5905 74.6556 42.6444 74.665C42.8253 74.6967 42.9585 74.72 43.0798 74.7499C43.0802 74.7503 43.0807 74.7508 43.0812 74.7513C43.1193 74.787 43.1933 74.8567 43.2611 74.9143C43.3532 74.9925 43.4899 75.099 43.6672 75.1905C44.2844 75.5091 44.8622 75.4851 45.3854 75.3235C45.469 75.2977 45.6405 75.244 45.8189 75.1534C45.9906 75.0663 46.2727 74.8946 46.4854 74.5755C46.6025 74.3998 46.7417 74.1268 46.7805 73.7887C46.8196 73.4467 46.8438 73.0965 46.8438 72.7352C46.8438 72.7 46.8424 72.6651 46.8395 72.6306C46.9717 72.3683 47.0208 72.0821 47.0009 71.8038C46.9785 71.4902 46.8631 71.2244 46.7359 71.029C46.6674 70.9238 46.5788 70.8132 46.4678 70.7104C46.4973 70.6665 46.5269 70.6179 46.5548 70.5651C46.6289 70.425 46.7841 70.0827 46.6998 69.6447C46.6356 69.3106 46.4664 69.0828 46.2969 68.9322C46.4013 68.8313 46.5201 68.687 46.6066 68.4923C46.9332 67.7575 46.4583 67.2088 46.3319 67.0869C46.1847 66.945 46.0375 66.8749 45.9998 66.8569L45.9988 66.8565C45.8983 66.8086 45.8106 66.7836 45.7868 66.7769L45.7855 66.7765C45.7186 66.7575 45.6542 66.7444 45.619 66.7374C45.5658 66.7268 45.5063 66.7164 45.4485 66.7069Z" fill="#5DBDF3"/>
<path fill-rule="evenodd" clip-rule="evenodd" d="M49.9836 84.4434C50.1651 84.7149 50.3422 85.0053 50.5009 85.2655C50.5864 85.4056 50.6665 85.537 50.7391 85.6519C51.4173 86.7258 51.7232 88.0453 51.8921 89.0752C51.9045 89.1511 51.9176 89.2291 51.931 89.309C52.0312 89.9059 52.1491 90.6083 52.1491 91.346C52.1491 91.3622 52.1491 91.3794 52.1491 91.3977C52.1495 91.6225 52.1502 91.997 52.0977 92.3664C52.0456 92.7326 51.9112 93.3511 51.4377 93.8246C51.4212 93.8411 51.3944 93.8694 51.3599 93.9058C51.2305 94.0424 50.993 94.2931 50.7874 94.4613C50.5938 94.6198 50.3955 94.7052 50.2498 94.7538C50.1059 94.8019 49.9742 94.8266 49.8932 94.8404C49.8536 94.8472 49.815 94.853 49.7879 94.8572L49.783 94.8579C49.7535 94.8624 49.736 94.8652 49.7215 94.8676C49.2727 95.0185 48.824 95.0186 48.5285 95.0082C48.3927 95.0034 48.2549 94.9942 48.1424 94.9866C48.1221 94.9853 48.1026 94.984 48.0841 94.9828C47.9505 94.974 47.8569 94.9691 47.78 94.9691C46.9502 94.9691 46.1432 94.63 45.5179 94.2396C44.8816 93.8422 44.2779 93.2951 43.8836 92.6919C43.5482 92.179 43.4499 91.651 43.4209 91.2258C43.4033 90.9685 43.4114 90.6357 43.4169 90.4079C43.4189 90.3254 43.4206 90.2567 43.4206 90.2103C43.4206 89.0551 43.852 87.849 44.1619 86.9826C44.2071 86.8563 44.2497 86.7373 44.2879 86.6267C44.7757 85.2175 46.04 84.0551 47.2674 83.4947C47.509 83.3844 47.7675 83.3578 48.0102 83.4027C48.0232 83.395 48.0363 83.3875 48.0496 83.3802C48.3224 83.2305 48.5843 83.209 48.7376 83.209C49.4219 83.209 49.9774 83.7606 49.9836 84.4434ZM49.7029 94.8711C49.7029 94.8711 49.7038 94.8709 49.7056 94.8705L49.7029 94.8711ZM47.981 85.9322C47.3626 86.3071 46.8297 86.9018 46.6428 87.4418C46.5938 87.5835 46.5453 87.7212 46.4982 87.8554C46.1761 88.7716 45.9125 89.5215 45.9125 90.2103C45.9125 90.3354 45.909 90.4719 45.906 90.5862C45.9049 90.6293 45.9039 90.6693 45.9031 90.7042C45.9001 90.8503 45.9005 90.9606 45.907 91.0562C45.9196 91.2401 45.9512 91.3005 45.9692 91.3282C46.126 91.5679 46.4398 91.8773 46.8377 92.1258C47.2468 92.3813 47.591 92.4772 47.78 92.4772C47.9468 92.4772 48.1132 92.4874 48.2468 92.4962C48.2714 92.4978 48.2949 92.4993 48.3176 92.5008C48.4304 92.5083 48.5233 92.5145 48.6168 92.5178C48.8379 92.5256 48.9158 92.5085 48.9242 92.5066C48.925 92.5064 48.9252 92.5064 48.9249 92.5065C49.0756 92.4527 49.2141 92.4264 49.2943 92.4126C49.3129 92.4094 49.3312 92.4064 49.3482 92.4036C49.3686 92.3825 49.3901 92.3595 49.4147 92.3331C49.4626 92.2818 49.5224 92.2178 49.6088 92.1299C49.6153 92.1048 49.6232 92.0674 49.6306 92.0157C49.6572 91.8286 49.6571 91.6173 49.6571 91.3564V91.346C49.6571 90.8292 49.576 90.3407 49.4734 89.7228C49.4602 89.6435 49.4467 89.5621 49.4329 89.4783C49.277 88.5268 49.0335 87.618 48.6322 86.9826C48.513 86.794 48.4119 86.6276 48.3175 86.4723C48.2022 86.2827 48.0969 86.1095 47.981 85.9322Z" fill="#5DBDF3"/>
<path fill-rule="evenodd" clip-rule="evenodd" d="M49.6028 84.9803C49.5712 84.8756 49.5252 84.7734 49.4642 84.6763C49.0978 84.0939 48.3286 83.9187 47.7461 84.2851C47.603 84.3751 47.4853 84.433 47.3233 84.5128C47.2187 84.5642 47.0956 84.6248 46.9353 84.709C46.8932 84.7311 46.8459 84.7543 46.7794 84.7867C46.7764 84.7882 46.7733 84.7897 46.7702 84.7912C46.7104 84.8204 46.6345 84.8574 46.5579 84.8972C46.3998 84.9793 46.1802 85.1024 45.9692 85.2809C45.9597 85.289 45.9469 85.2993 45.915 85.3248L45.913 85.3264C45.8863 85.3477 45.8451 85.3807 45.8025 85.4168C45.7223 85.4848 45.576 85.614 45.4466 85.7952C45.4093 85.8474 45.337 85.9558 45.2825 86.1088C45.2307 86.2538 45.149 86.57 45.2791 86.9429C45.2885 86.9701 45.2987 86.9964 45.3095 87.022C45.2876 87.0369 45.2594 87.0563 45.2373 87.072C45.1499 87.1339 44.958 87.2738 44.794 87.4994C44.6924 87.639 44.4702 88.0103 44.5789 88.512C44.6798 88.9775 44.9928 89.2245 45.1705 89.3305C45.1541 89.3907 45.1416 89.4542 45.1338 89.5211C45.1252 89.559 45.1081 89.6355 45.0956 89.7105C45.0953 89.712 45.0951 89.7136 45.0948 89.7154C45.0887 89.7516 45.073 89.8445 45.0703 89.9662C44.7789 90.2105 44.3887 90.6983 44.4999 91.3924C44.6131 92.0995 45.1628 92.4473 45.4762 92.5853C45.8987 92.7715 46.318 92.8529 46.6234 92.9075C46.6867 92.9188 46.7448 92.929 46.7987 92.9384C46.9796 92.9701 47.1128 92.9934 47.234 93.0233C47.2345 93.0238 47.235 93.0242 47.2355 93.0247C47.2735 93.0605 47.3476 93.1302 47.4154 93.1877C47.5075 93.266 47.6442 93.3724 47.8215 93.4639C48.4387 93.7825 49.0165 93.7585 49.5396 93.597C49.6233 93.5711 49.7948 93.5174 49.9732 93.4269C50.1449 93.3398 50.427 93.168 50.6397 92.849C50.7568 92.6733 50.896 92.4003 50.9348 92.0621C50.9739 91.7201 50.9981 91.3699 50.9981 91.0086C50.9981 90.9734 50.9966 90.9385 50.9938 90.9041C51.126 90.6417 51.1751 90.3556 51.1552 90.0772C51.1328 89.7637 51.0174 89.4979 50.8902 89.3024C50.8217 89.1972 50.7331 89.0867 50.6221 88.9839C50.6516 88.9399 50.6812 88.8913 50.7091 88.8385C50.7832 88.6984 50.9384 88.3561 50.8541 87.9182C50.7899 87.584 50.6207 87.3563 50.4512 87.2057C50.5556 87.1047 50.6744 86.9604 50.7609 86.7657C51.0875 86.0309 50.6126 85.4822 50.4862 85.3603C50.339 85.2184 50.1918 85.1483 50.1541 85.1303L50.1531 85.1299C50.0526 85.082 49.9649 85.0571 49.9411 85.0503L49.9398 85.05C49.8729 85.0309 49.8085 85.0178 49.7732 85.0108C49.7201 85.0003 49.6606 84.9899 49.6028 84.9803Z" fill="#5DBDF3"/>
</g>
</svg>
