<svg width="100" height="100" viewBox="0 0 100 100" fill="none" xmlns="http://www.w3.org/2000/svg">
<path d="M24.6601 32.7129C24.6026 35.5847 24.0378 38.4084 24.0378 41.2869C24.0378 42.2218 24.5509 45.6411 23.813 46.2654C20.7409 48.8649 16.5224 50.0958 13.5276 52.8688C12.2257 54.0743 10.5127 54.9018 9.10234 55.9803C7.20771 57.4292 7.94822 57.1997 9.86294 58.3486C11.6258 59.4063 14.109 59.7512 16.0342 60.5439C17.4328 61.1199 18.9887 61.6841 20.3039 62.3417C22.387 63.3833 22.0054 65.267 22.482 67.2856C23.1538 70.1308 23.4154 72.997 23.4154 75.9288C23.4154 78.1497 23.6071 80.3474 23.7266 82.4976C23.8018 83.8521 23.3705 84.6564 24.9021 83.4311C26.855 81.8687 28.1997 79.842 30.088 78.297C32.5209 76.3065 34.7724 73.9467 37.3483 72.2295C38.7472 71.2969 39.4093 70.6108 41.0821 71.2961C43.0261 72.0924 45.02 73.0355 46.994 73.7161C48.3947 74.1991 50.0484 74.0736 51.4194 74.5632C54.2325 75.5679 57.2186 75.9136 60.0625 76.8277C61.5926 77.3195 60.5561 76.4429 59.8897 75.6522C58.6544 74.1866 57.659 72.5369 56.709 70.8812C55.8474 69.3795 55.0332 68.1055 54.5309 66.4732C54.2313 65.4996 53.5974 64.0423 53.5974 63.0505C53.5974 62.4886 53.2249 62.0676 53.3036 61.4774C53.5295 59.783 55.1141 57.6531 56.0867 56.2915C57.019 54.9863 57.635 53.625 58.6451 52.3156C60.1872 50.3165 62.024 48.5423 63.3988 46.4037C64.0608 45.3739 64.8184 44.3718 65.0929 43.1366C65.47 41.4395 57.4492 43.5599 56.0175 43.6033C53.2019 43.6886 50.4046 44.2256 47.5818 44.2256C46.0994 44.2256 43.7861 44.686 42.4996 43.8626C39.0849 41.6772 35.4994 39.7653 32.1105 37.5358C30.9316 36.7602 29.841 35.5044 28.5495 34.9083C27.7737 34.5502 26.7369 33.6464 25.9047 33.6464" stroke="white" stroke-width="3" stroke-linecap="round"/>
<path d="M36.8145 38.2402C41.7582 34.9045 46.6864 31.6115 51.858 28.635C55.5089 26.5338 59.1763 24.4393 62.9499 22.5642C65.2324 21.43 67.5782 20.4298 69.8359 19.2451C72.6239 17.7821 75.4406 16.4036 78.2478 15" stroke="white" stroke-width="3" stroke-linecap="round"/>
<path d="M47.2617 43.5218C52.553 40.9912 58.1952 39.2999 63.4725 36.7271C66.596 35.2044 69.6361 33.4909 72.8625 32.1886C75.8962 30.9642 78.9668 29.8304 82.0047 28.6152" stroke="white" stroke-width="3" stroke-linecap="round"/>
<path d="M55.125 59.015C61.845 56.0582 68.3607 52.6062 74.9483 49.3707C80.4351 46.6758 86.1603 44.2285 91.3938 41.0566" stroke="white" stroke-width="3" stroke-linecap="round"/>
<path d="M58.6465 70.7537C63.4503 68.06 68.8665 66.2941 74.14 64.7676" stroke="white" stroke-width="3" stroke-linecap="round"/>
</svg>
