<svg width="120" height="120" viewBox="0 0 120 120" fill="none" xmlns="http://www.w3.org/2000/svg">
<path d="M48.7088 60.2578L26.8005 32.2793L15.8169 60.2578H48.7088Z" fill="#F4900C"/>
<path d="M59.8171 26.1992L40.4497 62.7592H79.1816L59.8171 26.1992Z" fill="#F4900C"/>
<path d="M71.291 60.2578L93.1993 32.2793L104.183 60.2578H71.291Z" fill="#F4900C"/>
<path d="M91.4852 54.695L77.3735 20.2656L60.0216 54.6979L60.0009 54.7068L59.9803 54.695L42.6284 20.2627L28.5167 54.695C19.2682 41.8375 10.6602 33.6012 10.6602 33.6012C10.6602 33.6012 15.7359 71.1026 15.7359 107.252H104.266C104.266 71.1026 109.342 33.6012 109.342 33.6012C109.342 33.6012 100.734 41.8375 91.4852 54.695Z" fill="#FFCC4D"/>
<path d="M59.873 85.6738C65.8837 85.6738 70.7563 80.8012 70.7563 74.7905C70.7563 68.7798 65.8837 63.9072 59.873 63.9072C53.8624 63.9072 48.9897 68.7798 48.9897 74.7905C48.9897 80.8012 53.8624 85.6738 59.873 85.6738Z" fill="#5C913B"/>
<path d="M84.9752 81.9065C88.9063 81.9065 92.0931 78.7198 92.0931 74.7887C92.0931 70.8577 88.9063 67.6709 84.9752 67.6709C81.0442 67.6709 77.8574 70.8577 77.8574 74.7887C77.8574 78.7198 81.0442 81.9065 84.9752 81.9065Z" fill="#981CEB"/>
<path d="M103.829 80.652C107.066 80.652 109.69 78.0281 109.69 74.7914C109.69 71.5546 107.066 68.9307 103.829 68.9307C100.592 68.9307 97.9683 71.5546 97.9683 74.7914C97.9683 78.0281 100.592 80.652 103.829 80.652Z" fill="#DD2E44"/>
<path d="M34.7692 81.9065C38.7002 81.9065 41.887 78.7198 41.887 74.7887C41.887 70.8577 38.7002 67.6709 34.7692 67.6709C30.8381 67.6709 27.6514 70.8577 27.6514 74.7887C27.6514 78.7198 30.8381 81.9065 34.7692 81.9065Z" fill="#981CEB"/>
<path d="M15.9154 80.652C19.1521 80.652 21.7761 78.0281 21.7761 74.7914C21.7761 71.5546 19.1521 68.9307 15.9154 68.9307C12.6786 68.9307 10.0547 71.5546 10.0547 74.7914C10.0547 78.0281 12.6786 80.652 15.9154 80.652Z" fill="#DD2E44"/>
<path d="M104.265 110.204H15.7347C14.1057 110.204 12.7837 108.885 12.7837 107.253C12.7837 105.621 14.1057 104.302 15.7347 104.302H104.265C105.897 104.302 107.216 105.621 107.216 107.253C107.216 108.885 105.897 110.204 104.265 110.204ZM104.265 99.9167H15.7347C14.1057 99.9167 12.7837 98.5976 12.7837 96.9657C12.7837 95.3337 14.1057 94.0146 15.7347 94.0146H104.265C105.897 94.0146 107.216 95.3337 107.216 96.9657C107.216 98.5976 105.897 99.9167 104.265 99.9167Z" fill="#FFAC33"/>
<path d="M11.1521 37.7533C13.4452 37.7533 15.3041 35.8944 15.3041 33.6013C15.3041 31.3082 13.4452 29.4492 11.1521 29.4492C8.85894 29.4492 7 31.3082 7 33.6013C7 35.8944 8.85894 37.7533 11.1521 37.7533Z" fill="#FFCC4D"/>
<path d="M26.8013 35.7959C28.744 35.7959 30.3189 34.2211 30.3189 32.2783C30.3189 30.3356 28.744 28.7607 26.8013 28.7607C24.8586 28.7607 23.2837 30.3356 23.2837 32.2783C23.2837 34.2211 24.8586 35.7959 26.8013 35.7959Z" fill="#F4900C"/>
<path d="M42.6279 25.5292C45.5354 25.5292 47.8925 23.1721 47.8925 20.2646C47.8925 17.357 45.5354 15 42.6279 15C39.7203 15 37.3633 17.357 37.3633 20.2646C37.3633 23.1721 39.7203 25.5292 42.6279 25.5292Z" fill="#FFCC4D"/>
<path d="M108.848 37.7533C111.141 37.7533 113 35.8944 113 33.6013C113 31.3082 111.141 29.4492 108.848 29.4492C106.555 29.4492 104.696 31.3082 104.696 33.6013C104.696 35.8944 106.555 37.7533 108.848 37.7533Z" fill="#FFCC4D"/>
<path d="M93.1987 35.7959C95.1415 35.7959 96.7163 34.2211 96.7163 32.2783C96.7163 30.3356 95.1415 28.7607 93.1987 28.7607C91.256 28.7607 89.6812 30.3356 89.6812 32.2783C89.6812 34.2211 91.256 35.7959 93.1987 35.7959Z" fill="#F4900C"/>
<path d="M77.3725 25.5292C80.28 25.5292 82.6371 23.1721 82.6371 20.2646C82.6371 17.357 80.28 15 77.3725 15C74.4649 15 72.1079 17.357 72.1079 20.2646C72.1079 23.1721 74.4649 25.5292 77.3725 25.5292Z" fill="#FFCC4D"/>
<path d="M59.8163 31.4628C62.7239 31.4628 65.0809 29.1057 65.0809 26.1982C65.0809 23.2906 62.7239 20.9336 59.8163 20.9336C56.9088 20.9336 54.5518 23.2906 54.5518 26.1982C54.5518 29.1057 56.9088 31.4628 59.8163 31.4628Z" fill="#F4900C"/>
</svg>
