<svg width="120" height="120" viewBox="0 0 120 120" fill="none" xmlns="http://www.w3.org/2000/svg">
<path d="M66.6024 74.6223C59.188 73.7154 55.9301 69.5478 49.4144 61.2265C57.7413 54.7162 61.9061 51.4584 69.3232 52.3626C76.7486 53.2723 83.7082 57.8864 86.5112 65.7584C81.8998 72.7262 74.0251 75.521 66.6024 74.6223ZM50.2748 98.7726C43.2905 98.2602 40.0464 94.5174 33.5663 87.0235C41.0602 80.5462 44.8058 77.3048 51.7928 77.8062C58.7825 78.3131 65.5174 82.3107 68.5012 89.5525C64.5036 96.2875 57.2673 99.274 50.2748 98.7726ZM33.232 55.7355C36.8981 60.2045 36.4954 64.2761 35.6925 72.4166C27.5548 71.611 23.4831 71.211 19.8143 66.7421C16.1454 62.2649 14.7151 55.9602 17.3537 50.061C23.6585 48.6252 29.5632 51.2638 33.232 55.7355ZM91.0898 40.808C84.4179 43.6028 79.6914 41.6684 70.2302 37.8022C74.0963 28.341 76.0335 23.6091 82.6944 20.8061C89.3636 18.0085 97.4301 18.5428 103.551 23.8091C103.02 31.8756 97.7507 38.005 91.0898 40.808ZM56.1521 31.0728C58.5468 38.9339 55.8123 44.0659 50.346 54.3299C40.0848 48.8609 34.95 46.1264 32.5525 38.2626C30.1523 30.3933 31.6894 21.3294 38.3558 15C47.4197 16.5371 53.7519 23.2008 56.1521 31.0728Z" fill="#77B255"/>
<path d="M32.5528 38.2617C34.9147 46.0104 39.9563 48.7915 49.9189 54.1016V54.0879C49.7271 47.1804 42.4305 24.2877 38.2273 15.1416C31.6815 21.4655 30.169 30.45 32.5528 38.2617ZM17.2307 50.3971C14.7921 56.2004 16.2142 62.349 19.8146 66.7412C23.4862 71.2129 27.5578 71.6102 35.6928 72.4157C32.9611 67.1084 22.2367 54.9126 17.2307 50.3971Z" fill="#A6D388"/>
<path d="M69.3228 52.3617C62.3002 51.5068 58.1518 54.4167 50.6689 60.2501C55.4529 60.5378 74.7425 62.2914 86.4532 65.8315C86.4697 65.8041 86.4943 65.7849 86.5108 65.7575C83.7078 57.8855 76.7482 53.2714 69.3228 52.3617ZM68.4898 89.5297C65.5005 82.3044 58.7765 78.3122 51.7923 77.8053C44.9423 77.3148 41.1885 80.4384 33.9878 86.661C41.5694 85.8253 55.6475 84.2772 68.4898 89.5297Z" fill="#5C913B"/>
<path d="M70.7236 38.0013C79.8396 41.725 84.5414 43.5471 91.0873 40.8071C97.7153 38.0178 102.957 31.9322 103.532 23.9287C92.7861 26.0138 75.061 35.2997 70.7236 38.0013Z" fill="#A6D388"/>
<path d="M22.3079 109.035C20.7077 108.786 18.5733 106.758 18.8199 105.155C20.3159 95.3956 26.6508 71.8152 68.9563 37.3269C70.2112 36.2994 71.6305 35.5212 72.6937 36.746C73.765 37.9708 72.5512 39.349 71.3291 40.4149C34.9201 72.1166 28.8209 97.2259 27.4262 106.353C27.1769 107.956 23.9108 109.276 22.3079 109.035Z" fill="#A06253"/>
</svg>
