<svg width="32" height="32" viewBox="0 0 32 32" fill="none" xmlns="http://www.w3.org/2000/svg">
<circle cx="16" cy="16" r="16" fill="#CED4DA"/>
<path d="M10.995 13.99C12.0968 13.99 12.99 13.0968 12.99 11.995C12.99 10.8932 12.0968 10 10.995 10C9.89319 10 9 10.8932 9 11.995C9 13.0968 9.89319 13.99 10.995 13.99Z" fill="white"/>
<path d="M16.0028 13.99C17.1046 13.99 17.9978 13.0968 17.9978 11.995C17.9978 10.8932 17.1046 10 16.0028 10C14.901 10 14.0078 10.8932 14.0078 11.995C14.0078 13.0968 14.901 13.99 16.0028 13.99Z" fill="white"/>
<path d="M16.0028 18.9949C17.1046 18.9949 17.9978 18.1017 17.9978 16.9999C17.9978 15.8981 17.1046 15.0049 16.0028 15.0049C14.901 15.0049 14.0078 15.8981 14.0078 16.9999C14.0078 18.1017 14.901 18.9949 16.0028 18.9949Z" fill="white"/>
<path d="M16.0028 23.9998C17.1046 23.9998 17.9978 23.1066 17.9978 22.0048C17.9978 20.903 17.1046 20.0098 16.0028 20.0098C14.901 20.0098 14.0078 20.903 14.0078 22.0048C14.0078 23.1066 14.901 23.9998 16.0028 23.9998Z" fill="white"/>
<path d="M21.0067 13.99C22.1085 13.99 23.0017 13.0968 23.0017 11.995C23.0017 10.8932 22.1085 10 21.0067 10C19.9049 10 19.0117 10.8932 19.0117 11.995C19.0117 13.0968 19.9049 13.99 21.0067 13.99Z" fill="white"/>
</svg>
