<svg width="120" height="72" viewBox="0 0 120 72" fill="none" xmlns="http://www.w3.org/2000/svg">
<path fill-rule="evenodd" clip-rule="evenodd" d="M54.5181 6.25541C54.2436 6.02692 53.944 5.94246 53.7442 5.90638C53.5372 5.86901 53.3407 5.86695 53.1948 5.87122C53.0537 5.87535 52.9155 5.88735 52.8184 5.89578L52.8184 5.89578L52.8039 5.89704C52.685 5.90733 52.6419 5.91005 52.6222 5.91005C52.0594 5.91005 51.6707 6.22761 51.4601 6.4927C51.2557 6.74993 51.1441 7.03899 51.0828 7.27065C51.0191 7.51142 50.9883 7.77094 50.9978 8.02168C51.006 8.24082 51.0497 8.60146 51.2632 8.93377C51.541 9.36605 51.9181 9.7487 52.2333 10.0495C52.3864 10.1955 52.518 10.3166 52.6376 10.4266L52.6377 10.4267C52.8044 10.58 52.9476 10.7118 53.0931 10.8598C53.1231 10.8903 53.1493 10.9221 53.1971 10.9844L53.2091 11.0003C53.2506 11.0551 53.3442 11.1786 53.4526 11.287C53.5993 11.4337 53.7927 11.5782 54.0503 11.675C54.2933 11.7663 54.5343 11.7927 54.7526 11.7927C54.8113 11.7927 54.9073 11.7952 55.0222 11.7983C55.2667 11.8047 55.597 11.8133 55.8367 11.8048C56.2549 11.7899 56.8009 11.7294 57.3204 11.4651C57.6051 11.3203 57.9198 11.0377 58.1487 10.8134C58.4158 10.5517 58.7162 10.2189 58.9795 9.86252C59.2293 9.52443 59.5079 9.08258 59.647 8.61089C59.7843 8.14515 59.8649 7.28615 59.1337 6.69097C58.4351 6.12238 57.6136 6.26271 57.123 6.43353C56.5987 6.61607 56.1034 6.94238 55.7098 7.26009C55.6109 7.33996 55.5138 7.42305 55.4196 7.50817C55.24 7.10672 54.9667 6.6288 54.5181 6.25541ZM57.9696 8.62857C57.9693 8.62895 57.9644 8.62989 57.9555 8.63026C57.9654 8.62837 57.9698 8.62819 57.9696 8.62857ZM57.4389 7.9276C57.4389 7.92757 57.4386 7.92905 57.4378 7.9321C57.4384 7.92915 57.4388 7.92763 57.4389 7.9276ZM91.4128 12.2062C91.5418 12.1918 91.7594 12.1766 91.9932 12.2295C92.2973 12.2982 92.5309 12.452 92.6688 12.5553C92.819 12.6679 92.9495 12.793 93.0488 12.8941C93.139 12.9861 93.2255 13.0813 93.2903 13.1526L93.2904 13.1527L93.3107 13.175C93.3467 13.2146 93.3745 13.2449 93.3984 13.2702C93.4099 13.2823 93.4189 13.2916 93.4258 13.2986L93.4337 13.3065L93.436 13.3086L93.4365 13.3091C93.8651 13.7078 94.21 14.1517 94.5017 14.5996C94.7759 14.1666 95.0906 13.7499 95.4452 13.3891C95.687 13.1431 96.0341 12.9304 96.3282 12.7774C96.6478 12.611 97.0332 12.4491 97.4201 12.3466C97.7554 12.2578 98.3039 12.1537 98.8291 12.3324C99.1313 12.4352 99.4577 12.6445 99.6756 13.0161C99.8859 13.3747 99.9197 13.7562 99.8904 14.0686C99.773 15.3227 99.1613 16.7583 98.2905 17.883C97.4331 18.9903 96.126 20.0408 94.5167 20.0408C93.154 20.0408 91.9552 19.2671 91.1779 18.5045C91.034 18.3634 90.8605 18.214 90.6406 18.0248L90.4861 17.8916C90.2102 17.6532 89.8873 17.3682 89.5908 17.0528C89.0351 16.4614 88.3302 15.5112 88.4818 14.2772C88.5256 13.9211 88.6906 13.6558 88.8179 13.4937C88.9504 13.325 89.1024 13.1915 89.2352 13.0902C89.501 12.8876 89.8124 12.722 90.095 12.5965C90.3834 12.4683 90.6906 12.3603 90.9718 12.2891C91.1121 12.2536 91.263 12.2229 91.4128 12.2062ZM39.2612 18.6179H39.2613C39.7484 18.5851 40.2298 18.5528 40.7 18.5262C42.4159 18.429 44.0472 18.401 45.587 18.6375C47.0676 18.8649 48.552 18.8504 49.938 18.8316L50.0625 18.8299H50.0625C51.3648 18.8121 52.5805 18.7954 53.7716 18.9332C53.835 19.0448 53.9111 19.2279 53.9909 19.495C54.0792 19.79 54.1509 20.112 54.2229 20.4423L54.2376 20.5099C54.2982 20.7889 54.3717 21.1272 54.4583 21.3797C55.1051 23.2641 55.665 25.147 56.0593 27.0666C56.2481 27.986 56.4974 28.8878 56.7337 29.7428L56.7337 29.7429L56.7337 29.7429L56.7338 29.743L56.7338 29.7432L56.7338 29.7433C56.7807 29.9127 56.827 30.0803 56.8723 30.2458C57.1514 31.2671 57.3969 32.2338 57.5327 33.2166C58.1831 37.9215 59.2227 42.6912 60.3355 47.2619C60.4806 47.8578 60.6017 48.438 60.7283 49.0449C60.822 49.4941 60.9188 49.958 61.0307 50.4536C61.2637 51.4866 61.5437 52.5605 61.9487 53.5736L61.9426 53.5744C61.4321 53.6426 60.9173 53.6972 60.3988 53.741L60.311 53.7413L60.1953 53.7417L60.1903 53.7418L60.1861 53.7418L60.17 53.7421C60.1615 53.7427 60.1486 53.7497 60.1324 53.7626C58.2384 53.9091 56.2982 53.918 54.3507 53.918H24.0971C23.9372 53.918 23.6692 53.9386 23.3994 53.9592C23.244 53.9711 23.0879 53.983 22.9517 53.9911C22.4991 54.018 21.9779 54.03 21.4352 53.9812C20.415 53.8896 19.4265 53.5945 18.6825 52.8928C18.3732 51.9273 18.0007 50.9944 17.6404 50.1026L17.565 49.9163C17.1914 48.9923 16.8357 48.1127 16.5424 47.2173C16.1424 45.9963 15.8668 44.769 15.5773 43.4802L15.5773 43.4802C15.4507 42.9163 15.3215 42.3407 15.178 41.7487C14.9884 40.9663 14.7872 40.2067 14.5893 39.4594L14.5892 39.4593C14.2098 38.0268 13.8423 36.6391 13.5907 35.2213C13.3155 33.6706 12.9544 32.1372 12.6019 30.6405L12.5655 30.4858C12.1988 28.9284 11.8444 27.4087 11.5843 25.8799C11.3113 24.2753 10.9696 22.7051 10.5111 21.1306C10.3003 20.4069 10.3618 19.8323 10.5824 19.4821C10.6613 19.4943 10.7427 19.4982 10.8255 19.4931C13.5122 19.3287 16.2103 19.3074 18.9433 19.2858L19.4671 19.2817C22.3676 19.2582 25.3051 19.224 28.2376 19.0009C30.6094 18.8205 33.0705 18.7881 35.4881 18.7881C36.7255 18.7881 38.0126 18.7017 39.2611 18.6179H39.2612H39.2612H39.2612H39.2612H39.2612H39.2612ZM60.4849 56.0894C58.4213 56.2581 56.3416 56.2659 54.3507 56.2659H24.0971C24.0055 56.2659 23.898 56.2747 23.7363 56.288L23.736 56.2881C23.5807 56.3009 23.3754 56.3178 23.0861 56.335C22.5752 56.3653 21.9306 56.3827 21.2324 56.32C20.6506 56.2677 20.0089 56.1577 19.3632 55.9413L19.3676 55.9672C19.4004 56.1759 19.4002 56.4685 19.4001 56.6634L19.4 56.6752L19.3999 56.774L19.3995 56.8849C19.3988 57.0685 19.3981 57.2558 19.4011 57.4479C19.4044 57.6595 19.4119 57.8456 19.4252 57.9966L19.4531 58.0023L19.477 58.007C19.5993 58.0302 19.7323 58.0467 19.8979 58.0666L19.9229 58.0696C20.0651 58.0866 20.2565 58.1095 20.4289 58.1454C20.7771 58.2179 21.0917 58.2916 21.3854 58.3604C22.1645 58.543 22.7968 58.6912 23.5183 58.6912C26.1982 58.6912 28.9007 58.7908 31.5775 58.8895L31.578 58.8896C33.056 58.9441 34.5263 58.9983 35.9806 59.0353C42.3399 59.197 48.6977 59.0677 55.0776 58.897C56.1043 58.8695 57.1317 58.8409 58.1599 58.8124H58.1601H58.1602H58.1604H58.1605H58.1607H58.1609H58.161C63.513 58.6636 68.8833 58.5144 74.2561 58.5144C75.1446 58.5144 75.9958 58.419 76.9078 58.3168L76.9079 58.3168C77.4167 58.2598 77.9444 58.2006 78.5081 58.1547L78.5234 58.1535C78.5858 58.1484 78.6863 58.1403 78.8013 58.1283C78.7974 57.8414 78.769 57.5707 78.7143 57.3704C78.5954 56.9349 78.6066 56.5217 78.6132 56.2757L78.6136 56.2611C78.6215 55.9646 78.6207 55.8687 78.6032 55.7886L78.5881 55.7196L78.5752 55.6603L78.4555 55.6699L78.4223 55.6726L78.3287 55.6802L78.2539 55.6861L78.1649 55.693C75.3344 55.9083 69.7077 56.0064 65.5272 56.0516C63.8457 56.0697 62.3884 56.0793 61.4251 56.0844C61.3907 56.0875 61.3559 56.0891 61.3207 56.0891L60.6868 56.0893L60.4849 56.0894ZM17.7077 55.1046C17.3996 54.8836 17.1029 54.6248 16.8248 54.3218L16.6444 54.1253L16.566 53.8685C16.2754 52.9158 15.9031 51.9783 15.5059 50.9952L15.4242 50.7931C15.0571 49.8855 14.6726 48.9348 14.3531 47.9598C13.9159 46.6254 13.6 45.2197 13.2995 43.8823C13.1786 43.3444 13.0602 42.8175 12.9374 42.3108C12.7733 41.6337 12.5865 40.927 12.3954 40.2042C12.0007 38.711 11.5879 37.1493 11.3197 35.6385C11.0564 34.1544 10.7088 32.6783 10.352 31.1632L10.3213 31.0327C9.95652 29.4834 9.58487 27.8937 9.3104 26.2803C9.04956 24.747 8.72671 23.268 8.29848 21.7976C7.95327 20.6123 7.87613 18.8843 9.07156 17.6681C9.35447 17.3802 9.74774 17.2731 10.1128 17.3467C10.2779 17.2336 10.4739 17.1626 10.687 17.1496C13.4363 16.9813 16.1914 16.9596 18.9107 16.9382L19.4487 16.9339C22.354 16.9104 25.2197 16.8761 28.0655 16.6596C30.5265 16.4724 33.058 16.4403 35.4881 16.4403C36.6448 16.4403 37.8124 16.3619 39.03 16.28L39.0301 16.28C39.5344 16.2461 40.0474 16.2117 40.5717 16.182C42.3214 16.0828 44.1475 16.042 45.9314 16.316C47.1986 16.5106 48.5015 16.5031 49.9072 16.484L50.0881 16.4815C51.4124 16.4631 52.8312 16.4434 54.2453 16.6265C54.9606 16.7191 55.4115 17.1999 55.6649 17.5866C55.9195 17.9753 56.0842 18.4287 56.1987 18.8115C56.3165 19.2055 56.4057 19.6122 56.4758 19.9339C56.5312 20.1879 56.5699 20.3629 56.601 20.4822C59.7125 18.9388 62.9381 17.8801 66.4499 17.4831C69.5366 17.1342 72.7894 17.1482 75.8939 17.7578C79.0879 18.3849 82.6975 19.6795 85.4118 21.766C85.7994 22.0639 86.2484 22.3941 86.7183 22.7397L86.7189 22.7402L86.7193 22.7405L86.7195 22.7406C87.3944 23.237 88.1124 23.7652 88.7538 24.275C89.8958 25.1828 91.0389 26.2126 91.9168 27.4164C92.2772 27.9106 92.6554 28.377 93.0553 28.87C93.2205 29.0735 93.3893 29.2816 93.562 29.4981C94.135 30.2162 94.7243 30.9949 95.2181 31.8627C96.042 33.3104 97.0418 34.8043 98.0409 36.1726C99.04 37.5409 100.199 38.5925 101.629 39.5559C101.752 39.6392 101.889 39.728 102.034 39.8226L102.034 39.823C102.811 40.3282 103.842 40.9995 104.539 41.8855C105.341 42.9061 106.002 44.055 106.513 45.225C107.366 47.1778 107.408 49.4342 107.211 51.3393C107.056 52.8343 106.079 54.2043 105.159 55.0236C104.248 55.834 103.007 56.43 102.072 56.8794L102.071 56.8795L102.068 56.8809C101.966 56.9301 101.867 56.9775 101.773 57.0233C99.5927 58.082 97.0564 58.9615 94.4614 58.9615C93.4314 58.9615 92.4074 58.8942 91.4274 58.8297L91.4134 58.8288C90.4165 58.7632 89.4647 58.701 88.5218 58.701C87.8884 58.701 87.2689 58.6293 86.7225 58.5662L86.6969 58.5632C86.1222 58.4968 85.6244 58.4404 85.1359 58.4404C84.5039 58.4404 83.8555 58.3951 83.2625 58.3535C83.0329 58.3375 82.8117 58.322 82.6029 58.31C82.2479 58.7145 81.6518 58.8262 81.1704 58.5463L81.1437 58.5306L81.1033 58.5065C81.0937 58.7468 81.0735 58.9739 81.047 59.1756C80.9774 59.7073 80.6139 59.9829 80.4921 60.0663C80.3371 60.1724 80.1825 60.2322 80.0875 60.2649C79.887 60.3339 79.6681 60.3761 79.5013 60.4032C79.1732 60.4565 78.8311 60.4839 78.7118 60.4935L78.6921 60.4951C78.2742 60.5291 77.8179 60.5796 77.3414 60.6322L77.341 60.6323C76.3453 60.7424 75.2617 60.8622 74.2561 60.8622C68.9173 60.8622 63.5833 61.0104 58.2308 61.1591C57.2007 61.1877 56.1699 61.2164 55.1383 61.244C48.7544 61.4148 42.3459 61.5457 35.9229 61.3824C34.4121 61.3439 32.917 61.2887 31.4292 61.2337L31.4286 61.2337L31.4279 61.2336C28.7836 61.1359 26.1626 61.039 23.5183 61.039C22.5098 61.039 21.5194 60.8056 20.6729 60.606L20.6726 60.606L20.6717 60.6058L20.6715 60.6057L20.6701 60.6054L20.669 60.6051C20.4213 60.5467 20.1859 60.4913 19.9661 60.4455C19.8996 60.4317 19.8039 60.4194 19.6275 60.3982L19.6192 60.3972C19.4652 60.3788 19.2605 60.3542 19.0541 60.3151C18.6979 60.2475 18.0007 60.0849 17.5396 59.4984C17.362 59.2726 17.2805 59.0282 17.2398 58.883C17.1938 58.7184 17.1659 58.5506 17.1474 58.4021C17.1104 58.105 17.0982 57.7753 17.0937 57.4848C17.0903 57.2679 17.0912 57.0452 17.0919 56.8555C17.0921 56.7905 17.0923 56.7293 17.0924 56.6736C17.0925 56.4934 17.0898 56.398 17.0887 56.3586C17.0882 56.3381 17.088 56.3326 17.0889 56.3381C17.0076 55.821 17.2715 55.3287 17.7077 55.1046ZM66.7047 19.8166C63.3938 20.1909 60.3344 21.2102 57.328 22.7352C57.6764 23.8822 57.9879 25.0466 58.2437 26.2326C58.3029 26.1988 58.3653 26.1646 58.4297 26.1316C58.6015 26.0435 58.8477 25.932 59.1233 25.8774C59.3789 25.8267 59.8793 25.783 60.3405 26.1243C60.7007 26.3909 60.985 26.7671 61.1782 27.0524C61.3853 27.3582 61.5629 27.6747 61.6847 27.8949C61.8948 28.2749 62.044 28.7599 61.9377 29.3038C61.8351 29.8292 61.5308 30.2159 61.2347 30.4898C60.869 30.828 60.2785 31.2339 59.5603 31.0934C59.5299 31.0874 59.5003 31.0807 59.4713 31.0733C59.61 31.6624 59.7321 32.2682 59.818 32.8897C60.4522 37.478 61.4703 42.1582 62.5755 46.6974C62.7233 47.3046 62.8643 47.9768 63.0018 48.633L63.0018 48.633L63.0018 48.6331L63.0018 48.6332L63.0019 48.6333L63.0019 48.6336L63.0021 48.6343C63.0958 49.0816 63.1881 49.5215 63.2798 49.9283C63.5198 50.9916 63.7865 51.982 64.1571 52.8617C64.165 52.8805 64.1788 52.9119 64.1958 52.9509C64.2405 53.0531 64.308 53.2073 64.3535 53.3238C64.3947 53.429 64.4431 53.5625 64.4832 53.7141C64.8116 53.7111 65.1523 53.7076 65.5027 53.7039C69.7052 53.6585 75.2513 53.5602 77.9928 53.3517C78.0738 53.3455 78.1555 53.3389 78.2364 53.3323C78.471 53.3133 78.6981 53.2948 78.8767 53.2905C79.0972 53.2851 79.5146 53.2837 79.9099 53.5108C80.3684 53.7741 80.5584 54.1937 80.6505 54.4613C80.7259 54.6802 80.7853 54.9539 80.8382 55.1977L80.8559 55.2793C80.9219 55.5815 80.9293 55.8794 80.9262 56.1021C80.9407 56.0944 80.9543 56.0876 80.9666 56.0816C80.9781 56.076 80.9885 56.0712 80.9978 56.0671C81.2068 55.9743 81.4103 55.9481 81.5153 55.9373C81.8566 55.9022 82.3646 55.9396 82.6018 55.9571L82.6534 55.9608L82.6724 55.9622L82.7031 55.9642C82.9854 55.9801 83.2524 55.9989 83.5112 56.0171C84.0677 56.0562 84.5862 56.0926 85.1359 56.0926C85.7659 56.0926 86.3832 56.164 86.9285 56.227L86.9574 56.2304C87.5316 56.2968 88.0308 56.3531 88.5218 56.3531C89.5444 56.3531 90.5635 56.4202 91.541 56.4845L91.5623 56.4859C92.5588 56.5514 93.5134 56.6137 94.4614 56.6137C96.5684 56.6137 98.7458 55.8917 100.779 54.9044C100.871 54.8596 100.963 54.8151 101.055 54.7708C102.049 54.2902 102.987 53.837 103.639 53.2567C104.307 52.6617 104.844 51.7909 104.916 51.0935C105.096 49.3548 105.017 47.5815 104.404 46.1786C103.963 45.1683 103.401 44.1966 102.737 43.3522C102.3 42.7967 101.663 42.3773 100.889 41.868L100.889 41.8679L100.889 41.8679L100.889 41.8678L100.887 41.867C100.716 41.7543 100.538 41.6372 100.354 41.5132C98.7446 40.4283 97.3749 39.1976 96.1884 37.5727C95.1538 36.1557 94.101 34.5855 93.221 33.039C92.8205 32.3352 92.3241 31.6718 91.7704 30.9779C91.6235 30.7938 91.47 30.6046 91.3133 30.4113C90.8988 29.9003 90.4616 29.3613 90.0635 28.8154C89.3684 27.8622 88.4147 26.9849 87.333 26.1251C86.6875 25.6119 86.0723 25.1609 85.4529 24.7068L85.4527 24.7066L85.4526 24.7065C84.9827 24.362 84.5104 24.0157 84.0206 23.6392C81.6816 21.8412 78.4423 20.6493 75.4566 20.0631C72.6309 19.5083 69.6184 19.4872 66.7047 19.8166ZM62.8406 53.526L62.8358 53.5267C62.8494 53.5236 62.8522 53.5242 62.8406 53.526ZM19.4584 58.2367C19.4616 58.2461 19.4615 58.248 19.4594 58.2403L19.4584 58.2367ZM81.7476 58.2732L81.7497 58.273C81.7363 58.2752 81.7345 58.2746 81.7476 58.2732ZM70.9615 27.3344C71.1337 26.9548 71.48 26.7131 71.8594 26.6622C71.9806 26.5791 72.1213 26.5075 72.2844 26.4521C72.5329 26.3679 72.7897 26.3744 73.02 26.4541C73.1533 26.4274 73.2878 26.4124 73.4211 26.4095C74.0487 26.3957 74.8585 26.6713 75.2402 27.545C75.525 28.197 75.5938 29.0002 75.3165 29.7083C75.0074 30.4979 74.2861 31.0845 73.2895 31.0845C72.6703 31.0845 72.1609 31.0351 71.4953 30.7747C70.9451 30.5594 70.6138 30.1133 70.4933 29.6231C70.3911 29.2078 70.4495 28.8122 70.5085 28.5511C70.6146 28.0815 70.8352 27.6067 70.9325 27.3971L70.9325 27.3971L70.9475 27.3648L70.9615 27.3344ZM67.0034 31.6668C67.1081 31.0273 66.6835 30.4224 66.0549 30.3159C65.4263 30.2093 64.8318 30.6413 64.7271 31.2808C64.4943 32.7015 64.5305 34.2586 64.5626 35.6441V35.6442V35.6442V35.6442C64.5732 36.1 64.5833 36.5373 64.5833 36.945C64.5833 37.5933 65.0999 38.1189 65.7372 38.1189C66.3744 38.1189 66.891 37.5933 66.891 36.945C66.891 36.4115 66.8792 35.8951 66.8677 35.3926C66.8376 34.0729 66.8096 32.8494 67.0034 31.6668Z" fill="#F1F3F5"/>
</svg>
