<svg width="120" height="120" viewBox="0 0 120 120" fill="none" xmlns="http://www.w3.org/2000/svg">
<path d="M96.6668 29.6113H81.3335V39.8336H91.5557C91.5557 39.8336 96.6668 39.8336 96.6668 44.9447V75.6113C96.6668 80.7224 91.5557 80.7224 91.5557 80.7224H81.3335V90.9447H96.6668C102.304 90.9447 106.889 86.36 106.889 80.7224V39.8336C106.889 34.196 102.304 29.6113 96.6668 29.6113Z" fill="#FFAC33"/>
<path d="M86.4442 30.334H25.1108V96.7784C25.1108 102.424 29.6878 107.001 35.3331 107.001H76.222C81.8672 107.001 86.4442 102.424 86.4442 96.7784V30.334Z" fill="#FFCC4D"/>
<path d="M39.1669 96.7773C37.7562 96.7773 36.6113 95.635 36.6113 94.2218V53.3329C36.6113 51.9222 37.7562 50.7773 39.1669 50.7773C40.5776 50.7773 41.7224 51.9222 41.7224 53.3329V94.2218C41.7224 95.635 40.5776 96.7773 39.1669 96.7773ZM55.778 96.7773C54.3673 96.7773 53.2224 95.635 53.2224 94.2218V53.3329C53.2224 51.9222 54.3673 50.7773 55.778 50.7773C57.1887 50.7773 58.3336 51.9222 58.3336 53.3329V94.2218C58.3336 95.635 57.1887 96.7773 55.778 96.7773ZM72.3891 96.7773C70.9759 96.7773 69.8336 95.635 69.8336 94.2218V53.3329C69.8336 51.9222 70.9759 50.7773 72.3891 50.7773C73.8023 50.7773 74.9447 51.9222 74.9447 53.3329V94.2218C74.9447 95.635 73.8023 96.7773 72.3891 96.7773Z" fill="#F4900C"/>
<path d="M25.1108 27.7773V46.8035C26.6186 47.6826 28.3513 48.2218 30.222 48.2218C34.5 48.2218 38.1544 45.587 39.6801 41.8559C40.5745 42.6277 41.7271 43.1107 42.9997 43.1107C44.7298 43.1107 46.253 42.2469 47.1781 40.9308C48.9925 43.77 52.1563 45.6662 55.7775 45.6662C59.1023 45.6662 62.0258 44.0537 63.894 41.5952C64.8242 43.9745 67.1242 45.6662 69.8331 45.6662C72.2583 45.6662 74.3436 44.299 75.4246 42.3082L75.8003 41.3857C77.0704 42.0782 78.5066 42.5076 80.0553 42.5076C82.5623 42.5076 84.8214 41.47 86.4442 39.8089V27.7773H25.1108Z" fill="#FFAC33"/>
<path d="M78.7778 15H27.6667C23.4321 15 20 18.4321 20 22.6667V32.8889C20 38.5341 24.577 43.1111 30.2222 43.1111C34.5002 43.1111 38.1547 40.4763 39.6803 36.7452C40.5748 37.517 41.7273 38 43 38C44.7301 38 46.2532 37.1362 47.1783 35.8201C48.9928 38.6593 52.1566 40.5556 55.7778 40.5556C59.1026 40.5556 62.0261 38.943 63.8942 36.4846C64.8245 38.8638 67.1244 40.5556 69.8333 40.5556C72.2586 40.5556 74.3439 39.1883 75.4249 37.1976C76.442 37.6959 77.569 38 78.7778 38C83.0123 38 86.4445 34.5679 86.4445 30.3333V22.6667C86.4445 18.4321 83.0123 15 78.7778 15Z" fill="#EEEEEE"/>
</svg>
