<svg width="120" height="120" viewBox="0 0 120 120" fill="none" xmlns="http://www.w3.org/2000/svg">
<path d="M66.696 66.7268C66.696 66.7268 92.9999 60.9301 92.9999 24.8036C92.9999 20.9242 89.9431 18.9099 84.0521 18.9099H40.8401C37.8932 18.9099 32.1201 18.2237 32.1201 24.4761C32.1201 60.3827 58.8379 66.7268 58.8379 66.7268V93.2429C58.8379 93.2429 46.8306 99.3722 44.4365 100.795C41.859 102.267 43.5721 104.624 44.6015 105.03C46.3198 105.706 50.503 107.917 62.3609 107.917C74.5175 107.917 78.6064 105.523 80.0811 105.03C80.6495 104.842 83.6094 102.589 80.1099 100.517C73.881 96.8288 66.696 93.2429 66.696 93.2429V66.7268Z" fill="#8899A6"/>
<path d="M92.8903 22.6879C92.8903 26.9339 83.5993 30.3758 62.4451 30.3758C41.291 30.3758 32 26.9339 32 22.6879C32 18.4393 41.291 15 62.4451 15C83.5993 15 92.8903 18.4419 92.8903 22.6879Z" fill="#CCD6DD"/>
<path d="M36.4634 23.0584C41.8122 47.9426 50.76 56.5656 59.2494 59.2976C62.1569 60.2353 64.5563 60.4187 66.5863 59.6198C75.7542 56.0181 86.3417 44.7757 87.9788 24.0407C88.4006 18.705 36.4634 23.0584 36.4634 23.0584V23.0584Z" fill="#CCD6DD"/>
<path d="M40.5029 38.5566C40.5029 47.7245 49.2333 60.8214 62.3303 60.8214C75.4272 60.8214 85.0325 46.5248 85.0325 38.6667C69.3162 38.6667 40.5029 38.5566 40.5029 38.5566Z" fill="#A0041E"/>
<path d="M62.7677 42.4861C75.0642 42.4861 85.0325 40.727 85.0325 38.557C85.0325 36.387 75.0642 34.6279 62.7677 34.6279C50.4712 34.6279 40.5029 36.387 40.5029 38.557C40.5029 40.727 50.4712 42.4861 62.7677 42.4861Z" fill="#DD2E44"/>
<path d="M61.8981 31.1149C48.7226 31.1149 38.892 28.2074 36.2255 26.9579C34.9158 26.345 34.3526 24.7839 34.9656 23.4742C35.5785 22.1619 37.1423 21.5987 38.4493 22.2142C41.6948 23.7387 63.2156 29.7947 87.1594 21.8816C88.5294 21.4258 90.0093 22.1749 90.4651 23.5475C90.9209 24.9201 90.1744 26.4026 88.7992 26.8584C79.1703 30.0383 69.916 31.1149 61.8981 31.1149V31.1149Z" fill="white"/>
</svg>
