<svg width="340" height="300" viewBox="0 0 340 300" fill="none" xmlns="http://www.w3.org/2000/svg">
<path d="M142.203 149.86C140.969 154.192 141.305 158.64 140.573 163.004C140.183 165.327 140.28 165.206 142.549 164.407C146.007 163.19 149.642 162.758 153.174 161.839C154.375 161.526 155.556 161.121 156.715 160.677C157.103 160.529 158.957 159.39 158.233 160.289" stroke="white" stroke-width="3" stroke-linecap="round"/>
<path d="M139.864 164.438C137.024 167.244 135.28 170.56 133.369 173.998C132.596 175.388 131.492 176.788 130.936 178.28" stroke="white" stroke-width="3" stroke-linecap="round"/>
<path d="M164.871 165.507C169.198 167.908 173.65 170.147 178.292 171.875" stroke="white" stroke-width="3" stroke-linecap="round"/>
<path d="M165.027 166.937C161.183 172.808 158.796 179.067 156.362 185.607C156.174 186.113 155.791 187.993 155.285 188.296C152.529 189.947 159.193 192.306 159.846 192.644C162.619 194.078 165.593 195.391 168.265 196.978" stroke="white" stroke-width="3" stroke-linecap="round"/>
<path d="M159.555 177.945L171.616 182.434" stroke="white" stroke-width="3" stroke-linecap="round"/>
<path d="M177.086 200.947C182.054 195.58 187.427 190.569 192.457 185.269C193.084 184.608 194.469 183.214 195.376 182.96C196.057 182.77 199.501 194.133 199.823 195.658C200.424 198.499 200.455 201.495 201.251 204.275C201.758 206.047 202.482 208.347 201.811 210.148" stroke="white" stroke-width="3" stroke-linecap="round"/>
<path d="M184.447 194.075C190.143 195.963 195.988 197.683 201.557 199.756" stroke="white" stroke-width="3" stroke-linecap="round"/>
<path d="M220.178 191.237C217.329 199.616 217.826 208.292 217.154 216.888" stroke="white" stroke-width="3" stroke-linecap="round"/>
<path d="M218.031 206.231C224.201 206.145 230.325 206.603 236.41 207.578" stroke="white" stroke-width="3" stroke-linecap="round"/>
<path d="M238.871 198.194C237.899 204.092 236.623 209.974 237.966 215.899C238.454 218.057 238.681 220.52 238.33 222.71" stroke="white" stroke-width="3" stroke-linecap="round"/>
<path d="M69.9629 103.034C73.1599 112.457 76.3708 121.863 79.516 131.298C82.0046 138.764 85.2646 145.756 88.1804 153.046C92.4949 163.832 97.2371 173.957 102.646 184.223C107.239 192.94 112.507 201.497 116.815 210.34C120.794 218.507 125.959 226.568 132.366 232.976C133.656 234.265 135.827 234.968 137.402 235.839C143.281 239.089 149.453 240.047 155.965 241.467C167.751 244.038 179.54 246.656 191.364 249.021C208.411 252.431 225.305 256.98 242.511 259.438C256.328 261.412 269.268 267.42 283.414 267.856C289.814 268.053 296.039 268.134 301.656 264.671C307.818 260.872 308.356 252.705 308.543 246.083C308.7 240.494 307.568 234.949 307.333 229.372C307.097 223.754 307.235 218.109 307.235 212.487C307.235 204.748 307.153 196.794 306.445 189.086C305.927 183.451 305.473 178.568 303.68 173.189C302.86 170.73 302.102 168.266 300.57 166.129C298.32 162.989 294.17 160.365 291.091 158.082C280.803 150.452 267.677 147.656 255.89 143.295C245.716 139.531 235.885 138.43 225.133 137.47C220.523 137.058 215.884 137.304 211.26 137.248C203.89 137.158 196.378 136.621 189.018 136.137C181.107 135.616 173.191 134.926 165.296 134.236C158.177 133.614 150.52 132.967 143.623 131.027C137.171 129.212 131.053 127.308 124.862 124.708C114.438 120.329 104.182 115.023 93.3395 111.723C85.7568 109.415 78.5937 106.303 70.8515 104.367" stroke="white" stroke-width="3" stroke-linecap="round"/>
<path d="M248.401 214.1C253.948 215.946 259.452 217.87 264.93 219.908C265.682 220.188 270.003 221.172 270.111 222.18" stroke="white" stroke-width="3" stroke-linecap="round"/>
<path d="M284.521 217.587C283.304 220.858 282.577 224.165 281.835 227.572C281.584 228.728 281.079 229.95 281.204 231.114" stroke="white" stroke-width="3" stroke-linecap="round"/>
<path d="M278.664 239.779C278.314 240.043 275.206 242.19 276.894 242.897C277.753 243.256 279.392 244.255 280.161 243.598C281.76 242.231 280.348 240.062 278.777 239.478" stroke="white" stroke-width="3" stroke-linecap="round"/>
<path d="M291.912 221.71C290.828 224.624 290.098 227.702 290.065 230.825C290.049 232.297 290.611 234.43 290.102 235.798" stroke="white" stroke-width="3" stroke-linecap="round"/>
<path d="M289.933 243.631C288.521 243.971 286.415 244.086 287.324 245.825C287.724 246.59 289.32 247.648 290.182 247.575C291.291 247.483 290.969 246.496 291.182 245.811C291.469 244.886 290.603 244.708 290.123 244.044" stroke="white" stroke-width="3" stroke-linecap="round"/>
<path d="M36.6086 29.2954C36.6086 42.5894 36.8212 55.8439 36.1063 69.1137C35.7647 75.4556 35.1609 81.7479 35.1017 88.0988C35.0357 95.1939 34.5994 102.291 34.5994 109.408C34.5994 111.335 34.2682 113.596 34.7111 115.484C34.8778 116.195 35.1017 116.759 35.1017 117.501C35.1017 119.433 39.7412 118.302 40.6829 118.257C49.6483 117.82 58.6638 118.005 67.6397 118.005C72.9453 118.005 78.1332 118.509 83.4342 118.509C86.2392 118.509 95.6986 119.99 95.8522 116.52C96.5279 101.265 96.3824 85.9348 96.3824 70.6538C96.3824 62.7278 95.8801 54.8891 95.8801 46.9644C95.8801 43.2055 96.8474 37.8775 95.7685 34.2236C95.1066 31.982 95.3778 29.5073 95.3778 27.1672C95.3778 22.9849 86.121 25.7672 83.0436 25.7672C68.0078 25.7672 23.0797 29.7994 38.1155 29.7994" stroke="white" stroke-width="3" stroke-linecap="round"/>
<path d="M95.375 119.013C103.393 123.813 111.521 128.395 119.625 133.042C121.132 133.906 123.329 134.566 124.508 135.898C124.768 136.19 127.111 138.157 127.411 137.942C128.79 136.953 129.427 131.809 129.699 130.297C130.418 126.307 130.514 122.162 130.536 118.117C130.601 106.324 131.038 94.5294 131.038 82.7507C131.038 74.3569 129.815 64.8524 131.29 56.5691C131.818 53.6013 131.541 50.4544 131.541 47.4406C131.541 42.8949 133.234 41.8575 128.415 39.2081C121.29 35.2904 113.812 31.7683 106.426 28.3995C105.129 27.8079 102.511 28.472 101.514 27.6715C100.522 26.8749 97.171 26.9893 96.3796 27.7835" stroke="white" stroke-width="3" stroke-linecap="round"/>
<path d="M118.981 83.7063C117.928 84.6145 117.153 86.0413 117.639 87.5049C117.893 88.2704 118.241 88.6733 118.909 89.1375C119.905 89.8292 121.502 89.9163 122.559 89.3001C123.38 88.8212 124.031 88.1505 124.283 87.2122C124.468 86.5236 124.484 85.3371 123.991 84.76C122.887 83.4679 120.787 83.0776 119.214 83.4722" stroke="white" stroke-width="3" stroke-linecap="round"/>
<path d="M18.9355 119.159H36.7951" stroke="white" stroke-width="3" stroke-linecap="round"/>
<path d="M130.99 119.159H141.936" stroke="white" stroke-width="3" stroke-linecap="round"/>
</svg>
